<?xml version="1.0" standalone="no"?>
<!DOCTYPE svg PUBLIC "-//W3C//DTD SVG 20010904//EN"
 "http://www.w3.org/TR/2001/REC-SVG-20010904/DTD/svg10.dtd">
<svg version="1.0" xmlns="http://www.w3.org/2000/svg"
 width="225.000000pt" height="225.000000pt" viewBox="0 0 225.000000 225.000000"
 preserveAspectRatio="xMidYMid meet">
<metadata>
Created by potrace 1.16, written by Peter Selinger 2001-2019
</metadata>
<g transform="translate(0.000000,225.000000) scale(0.100000,-0.100000)"
fill="#000000" stroke="none">
<path d="M535 680 c-4 -6 -45 -29 -92 -53 -100 -49 -133 -77 -133 -111 0 -20
7 -27 28 -32 32 -8 175 -79 214 -105 14 -11 33 -19 41 -19 17 0 47 26 47 41 0
5 -52 35 -115 65 -63 30 -115 59 -115 64 0 13 49 45 107 70 59 25 88 52 80 75
-7 17 -52 21 -62 5z"/>
<path d="M1589 674 c-16 -20 -4 -28 91 -63 102 -37 113 -54 58 -90 -65 -43
-133 -93 -140 -103 -8 -15 1 -38 16 -38 19 0 246 167 246 181 0 18 -80 72
-145 100 -79 33 -107 36 -126 13z"/>
<path d="M856 589 c-32 -25 -34 -68 -5 -115 27 -44 62 -53 97 -27 23 17 27 29
30 76 3 48 0 57 -20 71 -31 22 -70 20 -102 -5z"/>
<path d="M1267 593 c-31 -36 -25 -96 13 -134 33 -34 62 -33 93 3 22 26 23 110
1 132 -21 22 -87 21 -107 -1z"/>
<path d="M896 231 c-84 -45 -121 -48 -178 -17 l-48 25 0 -47 c0 -163 250 -222
381 -91 32 32 39 46 39 77 0 57 -18 74 -81 79 -46 4 -63 0 -113 -26z"/>
<path d="M1182 250 c-31 -13 -45 -55 -32 -95 40 -121 259 -166 368 -75 30 25
52 80 52 131 l0 41 -30 -25 c-16 -14 -48 -28 -70 -32 -35 -6 -52 -2 -108 26
-69 34 -141 46 -180 29z"/>
</g>
</svg>
