<svg id="svg" version="1.1" xmlns="http://www.w3.org/2000/svg" xmlns:xlink="http://www.w3.org/1999/xlink" width="400" height="400" viewBox="0, 0, 400,400"><g id="svgg"><path id="path0" d="M0.000 200.000 L 0.000 400.000 200.000 400.000 L 400.000 400.000 400.000 200.000 L 400.000 0.000 200.000 0.000 L 0.000 0.000 0.000 200.000 M123.918 191.091 L 124.003 227.682 123.146 228.008 C 122.201 228.367,58.815 228.480,57.042 228.125 L 56.000 227.917 56.000 191.347 C 56.000 171.234,56.101 154.677,56.224 154.554 C 56.347 154.431,71.609 154.368,90.140 154.415 L 123.833 154.500 123.918 191.091 M204.667 175.274 L 204.833 187.382 206.167 186.439 C 211.800 182.455,220.117 183.166,224.938 188.045 C 226.361 189.485,226.753 190.154,227.797 192.923 C 228.490 194.762,228.612 216.921,227.933 217.600 C 227.512 218.022,217.892 218.193,216.861 217.798 C 216.398 217.620,216.333 216.517,216.333 208.843 C 216.333 199.266,216.090 197.119,214.818 195.450 C 212.564 192.496,208.107 192.971,205.531 196.440 C 204.865 197.338,204.829 197.837,204.732 207.331 C 204.653 215.102,204.533 217.362,204.188 217.649 C 203.894 217.893,201.904 217.986,198.289 217.925 L 192.833 217.833 192.748 190.409 L 192.663 162.985 198.581 163.076 L 204.500 163.167 204.667 175.274 M287.077 164.363 C 300.825 166.426,309.976 177.210,310.014 191.391 C 310.027 196.187,309.900 197.023,308.481 201.500 C 301.732 222.794,269.892 224.978,259.891 204.833 C 255.411 195.809,256.145 182.027,261.417 176.187 C 261.737 175.832,262.000 175.416,262.000 175.263 C 262.000 174.628,267.251 169.569,269.132 168.392 C 272.959 165.998,274.888 165.251,278.833 164.637 C 279.933 164.466,280.983 164.265,281.167 164.189 C 281.820 163.921,284.693 164.006,287.077 164.363 M138.167 165.000 C 138.280 165.183,138.605 165.333,138.888 165.333 C 141.726 165.333,144.260 171.129,142.843 174.376 C 139.780 181.390,129.333 179.364,129.333 171.756 C 129.333 169.195,131.951 165.333,133.687 165.333 C 134.021 165.333,134.387 165.183,134.500 165.000 C 134.613 164.817,135.438 164.667,136.333 164.667 C 137.228 164.667,138.053 164.817,138.167 165.000 M337.978 165.473 C 338.733 166.383,338.299 206.733,337.509 209.000 C 334.049 218.935,320.892 222.206,311.250 215.529 C 309.005 213.975,308.890 213.451,310.133 210.439 C 310.573 209.372,311.360 207.413,311.883 206.084 C 312.851 203.624,313.433 203.162,314.393 204.094 C 317.930 207.528,322.632 207.540,324.650 204.120 C 325.317 202.990,325.333 202.514,325.333 184.505 C 325.333 168.170,325.394 165.987,325.857 165.524 C 326.594 164.787,337.371 164.742,337.978 165.473 M76.230 165.881 C 76.104 166.008,76.000 177.636,76.000 191.722 L 76.000 217.333 90.667 217.333 L 105.333 217.333 105.333 212.339 L 105.333 207.344 96.417 207.255 L 87.500 207.167 87.333 186.500 L 87.167 165.833 81.814 165.742 C 78.869 165.692,76.357 165.754,76.230 165.881 M248.131 173.194 C 248.242 173.484,248.333 176.184,248.333 179.194 L 248.333 184.667 251.488 184.667 C 255.368 184.667,255.333 184.622,255.333 189.578 C 255.333 194.061,255.387 194.000,251.433 194.000 L 248.333 194.000 248.333 199.984 C 248.333 207.817,248.686 208.559,251.989 207.670 C 252.765 207.461,253.434 207.337,253.475 207.395 C 253.628 207.613,254.596 210.558,254.989 212.000 C 255.214 212.825,255.608 213.993,255.865 214.595 C 257.012 217.277,254.294 218.720,248.022 218.760 C 243.007 218.791,240.496 217.679,238.562 214.572 C 236.683 211.555,236.555 210.834,236.353 202.167 L 236.167 194.167 234.000 194.000 L 231.833 193.833 231.737 190.000 C 231.599 184.561,231.551 184.667,234.173 184.667 L 236.333 184.667 236.333 178.889 C 236.333 175.711,236.433 173.011,236.556 172.889 C 237.085 172.360,247.921 172.645,248.131 173.194 M279.900 176.841 C 276.388 177.826,274.029 179.937,272.274 183.667 C 270.876 186.637,270.667 187.679,270.667 191.667 C 270.667 195.307,270.786 196.013,271.967 199.333 C 272.573 201.038,276.604 205.333,277.598 205.333 C 277.929 205.333,278.347 205.480,278.526 205.660 C 279.771 206.904,286.528 206.695,289.449 205.322 C 297.101 201.726,298.960 187.636,292.747 180.331 C 289.966 177.062,284.452 175.564,279.900 176.841 M167.180 184.176 C 169.379 184.740,172.483 186.100,172.821 186.647 C 173.200 187.259,173.667 187.030,173.667 186.233 C 173.667 184.787,174.147 184.667,179.908 184.667 L 185.350 184.667 185.675 185.522 C 186.403 187.437,185.972 219.836,185.170 223.500 C 184.373 227.140,180.974 231.159,177.132 233.004 C 173.131 234.925,172.797 234.998,167.000 235.229 C 158.387 235.573,151.828 232.747,148.833 227.403 C 147.738 225.449,147.848 225.314,152.275 223.176 C 154.415 222.142,156.446 221.143,156.789 220.955 C 157.302 220.673,157.648 220.852,158.770 221.986 C 163.693 226.959,172.795 225.076,173.507 218.937 C 173.772 216.659,173.643 216.394,172.594 217.058 C 170.491 218.389,168.621 218.764,164.019 218.774 L 159.481 218.784 156.824 217.509 C 138.842 208.880,148.042 179.268,167.180 184.176 M141.988 185.311 C 142.512 186.290,142.460 217.074,141.933 217.600 C 141.655 217.878,139.896 218.000,136.167 218.000 C 132.437 218.000,130.678 217.878,130.400 217.600 C 129.893 217.093,129.822 186.845,130.325 185.522 L 130.650 184.667 136.147 184.667 C 141.240 184.667,141.669 184.714,141.988 185.311 M164.541 194.556 C 161.626 195.052,159.318 199.484,160.057 203.166 C 161.445 210.076,171.589 210.470,173.620 203.693 C 175.341 197.947,170.898 193.476,164.541 194.556 " stroke="none" fill="#fbfbfb" fill-rule="evenodd"></path><path id="path1" d="M193.230 163.547 C 193.104 163.674,193.000 175.828,193.000 190.556 L 193.000 217.333 198.500 217.333 L 204.000 217.333 204.000 207.677 C 204.000 198.502,204.035 197.957,204.697 196.760 C 207.017 192.570,212.067 191.483,214.919 194.561 C 216.693 196.475,216.792 197.116,216.927 207.583 L 217.053 217.333 222.360 217.333 L 227.667 217.333 227.659 206.250 C 227.647 189.956,227.029 188.432,219.167 185.304 C 214.865 183.593,209.713 184.399,205.952 187.373 C 203.937 188.966,204.016 189.413,203.921 175.917 L 203.833 163.500 198.647 163.409 C 195.795 163.358,193.357 163.421,193.230 163.547 M280.333 164.891 C 261.370 166.806,251.024 190.337,261.876 206.874 C 270.026 219.294,287.237 222.207,299.226 213.194 C 301.734 211.309,303.967 208.829,305.648 206.063 C 306.170 205.203,306.928 203.675,307.333 202.667 C 307.738 201.658,308.190 200.533,308.338 200.167 C 309.486 197.325,309.879 189.179,309.037 185.667 C 305.701 171.752,294.277 163.483,280.333 164.891 M134.632 165.607 C 128.875 167.108,128.409 175.306,133.944 177.707 C 140.722 180.647,146.055 170.919,140.032 166.602 C 138.707 165.653,136.217 165.194,134.632 165.607 M326.333 182.704 C 326.333 201.530,326.203 203.197,324.579 205.168 C 322.216 208.035,318.609 208.017,314.802 205.119 C 313.400 204.051,313.257 204.102,312.554 205.918 C 312.216 206.788,311.816 207.800,311.663 208.167 C 311.510 208.533,311.124 209.583,310.804 210.500 C 310.485 211.417,310.098 212.309,309.945 212.483 C 309.364 213.145,309.731 213.679,311.766 215.131 C 319.368 220.556,331.352 218.891,335.506 211.833 C 337.560 208.344,337.500 209.110,337.500 186.500 L 337.500 165.833 331.917 165.742 L 326.333 165.651 326.333 182.704 M237.000 178.806 C 237.000 185.644,237.120 185.333,234.471 185.333 C 231.911 185.333,231.927 185.301,232.069 190.167 L 232.167 193.500 234.500 193.667 L 236.833 193.833 237.017 202.000 C 237.201 210.190,237.315 211.017,238.611 213.557 C 241.013 218.266,248.275 219.775,254.750 216.910 C 255.840 216.427,255.822 216.598,255.040 214.138 C 254.696 213.054,254.140 211.220,253.804 210.063 C 253.270 208.218,253.111 207.983,252.514 208.159 C 248.214 209.425,247.533 208.072,247.731 198.667 L 247.833 193.833 251.000 193.667 L 254.167 193.500 254.167 189.500 L 254.167 185.500 251.178 185.403 C 247.467 185.282,247.678 185.673,247.672 178.917 L 247.667 173.333 242.333 173.333 L 237.000 173.333 237.000 178.806 M288.000 176.434 C 296.237 179.426,299.665 191.015,295.068 200.327 C 290.621 209.337,277.297 209.653,272.175 200.870 C 267.752 193.287,270.610 179.981,277.247 177.256 C 277.936 176.973,278.875 176.585,279.333 176.394 C 280.522 175.896,286.599 175.925,288.000 176.434 M160.167 184.776 C 144.079 188.152,143.427 213.043,159.300 217.861 C 162.821 218.929,169.194 218.260,172.184 216.507 C 174.163 215.348,174.333 215.413,174.333 217.339 C 174.333 224.981,164.837 228.186,158.549 222.665 C 157.094 221.388,157.345 221.350,152.845 223.530 C 148.420 225.674,148.332 225.834,150.203 228.383 C 153.629 233.050,160.810 235.413,169.095 234.599 C 178.357 233.688,183.812 229.054,184.981 221.103 C 185.551 217.227,185.455 186.182,184.872 185.698 C 184.557 185.438,182.825 185.345,179.455 185.408 L 174.500 185.500 174.397 186.750 C 174.272 188.257,174.289 188.255,172.312 186.986 C 168.901 184.797,164.169 183.936,160.167 184.776 M131.083 185.554 C 130.758 185.685,130.667 189.195,130.667 201.528 L 130.667 217.333 136.167 217.333 L 141.667 217.333 141.667 201.861 C 141.667 193.351,141.576 186.151,141.464 185.861 C 141.265 185.342,132.268 185.076,131.083 185.554 M169.752 194.154 C 174.823 196.273,176.206 203.076,172.350 206.932 C 168.244 211.038,160.969 209.098,159.516 203.509 C 157.879 197.216,163.904 191.711,169.752 194.154 " stroke="none" fill="#0a0a0a" fill-rule="evenodd"></path><path id="path2" d="M56.667 191.165 L 56.667 227.667 90.001 227.667 L 123.336 227.667 123.251 191.250 L 123.167 154.833 89.917 154.748 L 56.667 154.663 56.667 191.165 M88.000 186.167 L 88.167 206.833 96.917 206.922 L 105.667 207.011 105.667 212.339 L 105.667 217.667 90.667 217.667 L 75.667 217.667 75.667 191.722 C 75.667 177.453,75.770 165.674,75.896 165.548 C 76.023 165.422,78.760 165.359,81.980 165.409 L 87.833 165.500 88.000 186.167 " stroke="none" fill="#8d55fc" fill-rule="evenodd"></path><path id="path3" d="M192.897 163.214 C 192.770 163.341,192.667 175.644,192.667 190.556 L 192.667 217.667 198.486 217.667 L 204.305 217.667 204.402 207.917 C 204.494 198.781,204.544 198.083,205.196 196.833 C 207.323 192.760,212.896 192.177,215.280 195.777 L 216.167 197.116 216.333 207.308 L 216.500 217.500 222.250 217.591 L 228.000 217.682 228.000 205.690 C 228.000 197.478,227.880 193.404,227.620 192.766 C 226.621 190.316,226.296 189.738,225.201 188.462 C 220.943 183.496,211.946 182.602,206.294 186.582 C 205.447 187.179,204.661 187.667,204.548 187.667 C 204.434 187.667,204.302 182.154,204.254 175.417 L 204.167 163.167 198.647 163.076 C 195.611 163.025,193.023 163.088,192.897 163.214 M203.921 175.917 C 204.016 189.413,203.937 188.966,205.952 187.373 C 209.713 184.399,214.865 183.593,219.167 185.304 C 227.029 188.432,227.647 189.956,227.659 206.250 L 227.667 217.333 222.360 217.333 L 217.053 217.333 216.927 207.583 C 216.792 197.116,216.693 196.475,214.919 194.561 C 212.067 191.483,207.017 192.570,204.697 196.760 C 204.035 197.957,204.000 198.502,204.000 207.677 L 204.000 217.333 198.500 217.333 L 193.000 217.333 193.000 190.556 C 193.000 175.828,193.104 163.674,193.230 163.547 C 193.357 163.421,195.795 163.358,198.647 163.409 L 203.833 163.500 203.921 175.917 M279.000 164.632 C 271.277 165.676,263.291 171.803,259.704 179.439 C 252.823 194.083,260.052 212.982,274.167 217.251 C 278.416 218.536,279.277 218.666,283.477 218.659 C 292.238 218.643,299.463 215.214,304.178 208.833 C 304.720 208.100,305.263 207.424,305.386 207.331 C 307.164 205.989,309.547 198.660,309.846 193.615 C 310.664 179.825,303.611 169.496,290.333 165.040 C 288.902 164.560,281.505 164.293,279.000 164.632 M134.518 165.143 C 126.936 167.488,128.494 178.667,136.403 178.667 C 144.386 178.667,145.619 167.153,137.859 165.077 C 136.106 164.608,136.257 164.605,134.518 165.143 M287.000 164.994 C 298.143 166.501,306.271 174.126,309.037 185.667 C 309.879 189.179,309.486 197.325,308.338 200.167 C 308.190 200.533,307.738 201.658,307.333 202.667 C 306.928 203.675,306.170 205.203,305.648 206.063 C 304.742 207.554,304.392 208.011,302.221 210.548 C 292.061 222.423,270.809 220.487,261.876 206.874 C 249.261 187.651,264.665 161.973,287.000 164.994 M140.032 166.602 C 141.970 167.991,142.497 169.121,142.499 171.886 C 142.502 178.885,133.217 180.722,130.516 174.256 C 128.060 168.378,134.869 162.902,140.032 166.602 M325.828 165.750 C 325.746 165.979,325.638 174.417,325.589 184.500 C 325.494 203.991,325.539 203.449,323.875 205.279 C 321.589 207.793,318.586 207.440,314.068 204.126 C 313.136 203.443,313.026 203.560,311.899 206.419 C 311.410 207.658,310.620 209.636,310.143 210.815 C 309.070 213.466,309.193 213.868,311.590 215.559 C 314.737 217.778,317.703 218.667,321.959 218.667 C 331.517 218.667,336.929 214.137,337.959 205.277 C 338.497 200.642,338.475 166.275,337.933 165.733 C 337.353 165.153,326.039 165.169,325.828 165.750 M337.500 186.500 C 337.500 209.110,337.560 208.344,335.506 211.833 C 331.352 218.891,319.368 220.556,311.766 215.131 C 309.731 213.679,309.364 213.145,309.945 212.483 C 310.098 212.309,310.485 211.417,310.804 210.500 C 311.124 209.583,311.510 208.533,311.663 208.167 C 311.816 207.800,312.216 206.788,312.554 205.918 C 313.257 204.102,313.400 204.051,314.802 205.119 C 318.609 208.017,322.216 208.035,324.579 205.168 C 326.203 203.197,326.333 201.530,326.333 182.704 L 326.333 165.651 331.917 165.742 L 337.500 165.833 337.500 186.500 M236.641 173.567 C 236.442 174.092,236.323 176.627,236.363 179.492 L 236.434 184.500 234.467 184.596 C 231.804 184.726,231.667 184.966,231.667 189.497 C 231.667 193.841,231.762 194.000,234.348 194.000 L 236.230 194.000 236.423 202.162 L 236.616 210.324 237.808 212.803 C 240.667 218.747,247.422 220.477,255.083 217.226 C 256.057 216.813,256.248 215.998,255.700 214.599 C 255.535 214.178,254.972 212.446,254.450 210.750 L 253.500 207.667 251.452 207.876 C 248.416 208.186,248.202 207.748,248.048 200.927 C 247.884 193.628,247.718 194.000,251.146 194.000 C 255.238 194.000,255.000 194.278,255.000 189.484 C 255.000 184.646,255.195 184.890,251.167 184.667 L 248.167 184.500 248.000 178.667 L 247.833 172.833 242.412 172.742 L 236.990 172.650 236.641 173.567 M247.672 178.917 C 247.678 185.673,247.467 185.282,251.178 185.403 L 254.167 185.500 254.167 189.500 L 254.167 193.500 251.000 193.667 L 247.833 193.833 247.731 198.667 C 247.533 208.072,248.214 209.425,252.514 208.159 C 253.111 207.983,253.270 208.218,253.804 210.063 C 254.140 211.220,254.696 213.054,255.040 214.138 C 255.822 216.598,255.840 216.427,254.750 216.910 C 248.275 219.775,241.013 218.266,238.611 213.557 C 237.315 211.017,237.201 210.190,237.017 202.000 L 236.833 193.833 234.500 193.667 L 232.167 193.500 232.069 190.167 C 231.927 185.301,231.911 185.333,234.471 185.333 C 237.120 185.333,237.000 185.644,237.000 178.806 L 237.000 173.333 242.333 173.333 L 247.667 173.333 247.672 178.917 M279.333 176.394 C 278.875 176.585,277.936 176.973,277.247 177.256 C 270.610 179.981,267.752 193.287,272.175 200.870 C 277.297 209.653,290.621 209.337,295.068 200.327 C 299.665 191.015,296.237 179.426,288.000 176.434 C 286.599 175.925,280.522 175.896,279.333 176.394 M287.334 176.765 C 300.780 180.368,299.295 205.123,285.548 206.532 C 273.961 207.719,267.054 196.632,271.719 184.333 C 274.020 178.266,280.754 175.002,287.334 176.765 M160.000 184.333 C 159.725 184.511,159.228 184.659,158.896 184.662 C 157.838 184.670,154.616 186.444,152.971 187.923 C 143.821 196.150,145.812 211.967,156.667 217.269 C 160.941 219.357,169.128 219.187,172.385 216.943 C 174.085 215.772,174.280 216.159,173.629 219.404 C 172.443 225.310,163.925 226.878,158.695 222.152 C 157.123 220.732,157.785 220.630,152.813 223.062 C 148.140 225.348,148.041 225.450,148.846 227.147 C 153.470 236.891,173.787 238.213,181.808 229.292 C 185.567 225.110,185.667 224.435,185.667 203.162 C 185.667 182.234,186.466 184.667,179.589 184.667 C 174.516 184.667,174.000 184.811,174.000 186.233 C 174.000 187.177,173.267 187.232,172.051 186.380 C 169.188 184.374,161.862 183.130,160.000 184.333 M168.861 185.315 C 169.890 185.677,171.443 186.429,172.312 186.986 C 174.289 188.255,174.272 188.257,174.397 186.750 L 174.500 185.500 179.455 185.408 C 182.825 185.345,184.557 185.438,184.872 185.698 C 186.055 186.680,185.396 221.496,184.132 224.796 C 179.726 236.294,157.718 238.620,150.203 228.383 C 148.332 225.834,148.420 225.674,152.845 223.530 C 157.345 221.350,157.094 221.388,158.549 222.665 C 164.837 228.186,174.333 224.981,174.333 217.339 C 174.333 215.413,174.163 215.348,172.184 216.507 C 164.436 221.048,153.416 217.605,149.450 209.405 C 142.802 195.661,155.050 180.461,168.861 185.315 M130.917 185.027 C 130.374 185.343,130.333 186.488,130.333 201.524 L 130.333 217.682 136.083 217.591 L 141.833 217.500 141.920 201.538 C 141.982 190.029,141.901 185.449,141.629 185.121 C 141.168 184.566,131.849 184.484,130.917 185.027 M141.464 185.861 C 141.576 186.151,141.667 193.351,141.667 201.861 L 141.667 217.333 136.167 217.333 L 130.667 217.333 130.667 201.528 C 130.667 189.195,130.758 185.685,131.083 185.554 C 132.268 185.076,141.265 185.342,141.464 185.861 M164.167 194.075 C 160.473 195.388,158.463 199.463,159.516 203.509 C 161.772 212.186,174.579 210.324,174.475 201.333 C 174.412 195.856,169.294 192.252,164.167 194.075 M168.833 194.368 C 174.097 195.806,175.943 202.702,172.094 206.551 C 168.197 210.448,161.226 208.778,159.997 203.652 C 158.560 197.665,163.170 192.821,168.833 194.368 " stroke="none" fill="#9d96ac" fill-rule="evenodd"></path><path id="path4" d="M56.224 154.554 C 56.101 154.677,56.000 171.234,56.000 191.347 L 56.000 227.917 57.042 228.125 C 58.815 228.480,122.201 228.367,123.146 228.008 L 124.003 227.682 123.918 191.091 L 123.833 154.500 90.140 154.415 C 71.609 154.368,56.347 154.431,56.224 154.554 M123.251 191.250 L 123.336 227.667 90.001 227.667 L 56.667 227.667 56.667 191.165 L 56.667 154.663 89.917 154.748 L 123.167 154.833 123.251 191.250 M204.258 175.365 C 204.343 186.763,204.476 188.451,205.198 187.282 C 205.346 187.043,205.290 186.987,205.052 187.135 C 204.763 187.313,204.667 184.358,204.667 175.373 C 204.667 168.773,204.554 163.303,204.417 163.218 C 204.279 163.133,204.208 168.599,204.258 175.365 M282.243 164.241 C 282.834 164.314,283.884 164.315,284.576 164.243 C 285.267 164.171,284.783 164.111,283.500 164.109 C 282.217 164.108,281.651 164.167,282.243 164.241 M331.809 165.250 C 335.615 165.317,337.622 165.483,337.976 165.758 C 338.438 166.118,338.446 166.098,338.043 165.583 C 337.634 165.063,336.971 165.008,331.876 165.075 L 326.167 165.149 331.809 165.250 M75.896 165.548 C 75.770 165.674,75.667 177.453,75.667 191.722 L 75.667 217.667 90.667 217.667 L 105.667 217.667 105.667 212.339 L 105.667 207.011 96.917 206.922 L 88.167 206.833 88.000 186.167 L 87.833 165.500 81.980 165.409 C 78.760 165.359,76.023 165.422,75.896 165.548 M87.333 186.500 L 87.500 207.167 96.417 207.255 L 105.333 207.344 105.333 212.339 L 105.333 217.333 90.667 217.333 L 76.000 217.333 76.000 191.722 C 76.000 177.636,76.104 166.008,76.230 165.881 C 76.357 165.754,78.869 165.692,81.814 165.742 L 87.167 165.833 87.333 186.500 M325.489 183.833 C 325.489 193.733,325.531 197.735,325.583 192.726 C 325.635 187.718,325.635 179.618,325.583 174.726 C 325.531 169.835,325.489 173.933,325.489 183.833 M248.136 178.833 C 248.136 181.950,248.186 183.270,248.248 181.766 C 248.309 180.263,248.310 177.713,248.248 176.100 C 248.187 174.487,248.137 175.717,248.136 178.833 M162.243 183.907 C 162.834 183.981,163.884 183.982,164.576 183.910 C 165.267 183.838,164.783 183.778,163.500 183.776 C 162.217 183.775,161.651 183.834,162.243 183.907 M212.923 183.908 C 213.522 183.982,214.422 183.981,214.923 183.905 C 215.424 183.829,214.933 183.768,213.833 183.770 C 212.733 183.772,212.324 183.834,212.923 183.908 M174.067 185.067 C 173.847 185.287,173.687 185.849,173.712 186.317 L 173.757 187.167 173.911 186.333 C 173.995 185.875,174.218 185.313,174.406 185.083 C 174.843 184.552,174.594 184.539,174.067 185.067 M141.998 201.500 L 141.833 217.500 136.167 217.679 L 130.500 217.858 136.043 217.929 C 140.385 217.985,141.667 217.902,141.962 217.545 C 142.235 217.217,142.315 212.683,142.252 201.295 L 142.163 185.500 141.998 201.500 M255.127 189.500 C 255.128 191.700,255.182 192.557,255.247 191.404 C 255.312 190.251,255.312 188.451,255.246 187.404 C 255.180 186.357,255.127 187.300,255.127 189.500 M130.154 201.667 C 130.154 210.375,130.197 213.938,130.250 209.583 C 130.302 205.229,130.302 198.104,130.250 193.750 C 130.197 189.396,130.154 192.958,130.154 201.667 M185.821 202.000 C 185.821 210.892,185.864 214.529,185.916 210.083 C 185.969 205.637,185.969 198.362,185.916 193.917 C 185.864 189.471,185.821 193.108,185.821 202.000 M309.744 187.667 C 309.744 188.308,309.813 188.571,309.896 188.250 C 309.980 187.929,309.980 187.404,309.896 187.083 C 309.813 186.762,309.744 187.025,309.744 187.667 M256.781 191.500 C 256.782 192.967,256.841 193.525,256.911 192.741 C 256.982 191.957,256.981 190.757,256.909 190.075 C 256.837 189.392,256.780 190.033,256.781 191.500 M270.437 191.500 C 270.438 192.600,270.501 193.010,270.575 192.411 C 270.649 191.812,270.648 190.912,270.572 190.411 C 270.495 189.910,270.435 190.400,270.437 191.500 M166.417 194.230 C 166.737 194.314,167.262 194.314,167.583 194.230 C 167.904 194.146,167.642 194.077,167.000 194.077 C 166.358 194.077,166.096 194.146,166.417 194.230 M228.150 205.667 C 228.150 212.175,228.195 214.838,228.249 211.583 C 228.304 208.329,228.304 203.004,228.249 199.750 C 228.195 196.496,228.150 199.158,228.150 205.667 M309.744 195.333 C 309.744 195.975,309.813 196.237,309.896 195.917 C 309.980 195.596,309.980 195.071,309.896 194.750 C 309.813 194.429,309.744 194.692,309.744 195.333 M248.135 199.833 C 248.135 202.767,248.186 203.922,248.248 202.401 C 248.310 200.880,248.310 198.480,248.247 197.068 C 248.185 195.655,248.135 196.900,248.135 199.833 M204.480 208.000 C 204.480 213.225,204.526 215.362,204.583 212.750 C 204.639 210.137,204.639 205.862,204.583 203.250 C 204.526 200.637,204.480 202.775,204.480 208.000 M291.982 203.583 L 290.833 204.833 292.083 203.685 C 293.247 202.615,293.487 202.333,293.232 202.333 C 293.176 202.333,292.614 202.896,291.982 203.583 M236.411 207.000 C 236.411 207.642,236.479 207.904,236.563 207.583 C 236.647 207.262,236.647 206.737,236.563 206.417 C 236.479 206.096,236.411 206.358,236.411 207.000 M172.836 216.663 C 172.721 216.848,172.847 216.910,173.125 216.803 C 173.472 216.670,173.659 216.892,173.759 217.557 C 173.895 218.467,173.902 218.462,173.950 217.417 C 173.999 216.351,173.315 215.888,172.836 216.663 M195.766 217.915 C 197.380 217.976,199.930 217.976,201.433 217.914 C 202.937 217.853,201.617 217.803,198.500 217.803 C 195.383 217.803,194.153 217.854,195.766 217.915 M219.583 217.915 C 221.096 217.976,223.571 217.976,225.083 217.915 C 226.596 217.853,225.358 217.802,222.333 217.802 C 219.308 217.802,218.071 217.853,219.583 217.915 M163.088 218.906 C 163.595 218.982,164.345 218.980,164.755 218.901 C 165.165 218.822,164.750 218.760,163.833 218.762 C 162.917 218.765,162.581 218.829,163.088 218.906 M247.083 218.896 C 247.404 218.980,247.929 218.980,248.250 218.896 C 248.571 218.813,248.308 218.744,247.667 218.744 C 247.025 218.744,246.762 218.813,247.083 218.896 M282.921 218.902 C 283.335 218.982,283.935 218.979,284.254 218.896 C 284.573 218.812,284.233 218.747,283.500 218.751 C 282.767 218.754,282.506 218.823,282.921 218.902 M321.250 218.902 C 321.662 218.981,322.337 218.981,322.750 218.902 C 323.162 218.822,322.825 218.757,322.000 218.757 C 321.175 218.757,320.837 218.822,321.250 218.902 M181.479 229.750 L 180.500 230.833 181.583 229.854 C 182.179 229.316,182.667 228.828,182.667 228.771 C 182.667 228.513,182.392 228.740,181.479 229.750 " stroke="none" fill="#c3abfc" fill-rule="evenodd"></path></g></svg>