<svg id="svg" version="1.1" xmlns="http://www.w3.org/2000/svg" xmlns:xlink="http://www.w3.org/1999/xlink" width="400" height="400" viewBox="0, 0, 400,400"><g id="svgg"><path id="path0" d="M57.987 154.483 C 56.773 154.932,56.775 154.866,56.890 192.000 L 57.000 227.400 89.556 227.502 C 112.101 227.573,122.270 227.474,122.625 227.180 C 123.220 226.685,123.262 155.529,122.667 154.933 C 122.260 154.526,59.060 154.086,57.987 154.483 M87.226 165.214 C 87.976 165.615,88.000 166.266,88.000 185.765 C 88.000 202.009,88.103 205.987,88.531 206.343 C 88.869 206.623,92.029 206.822,97.231 206.891 L 105.400 207.000 105.512 212.300 L 105.623 217.600 90.412 217.600 L 75.200 217.600 75.200 191.661 L 75.200 165.722 76.100 165.288 C 77.258 164.730,86.210 164.670,87.226 165.214 " stroke="none" fill="#8c54fc" fill-rule="evenodd"></path><path id="path1" d="M56.400 153.600 C 56.400 153.820,56.040 154.000,55.600 154.000 C 54.538 154.000,54.312 227.569,55.371 228.629 C 56.403 229.660,124.042 229.465,124.690 228.428 C 125.064 227.829,125.076 222.932,124.746 206.529 C 124.410 189.881,124.425 184.963,124.817 183.331 C 125.140 181.983,125.197 180.656,124.980 179.530 C 124.608 177.597,124.621 169.073,125.009 160.634 C 125.197 156.526,125.133 154.823,124.765 154.134 L 124.265 153.200 90.332 153.200 C 67.977 153.200,56.400 153.336,56.400 153.600 M122.667 154.933 C 123.262 155.529,123.220 226.685,122.625 227.180 C 122.270 227.474,112.101 227.573,89.556 227.502 L 57.000 227.400 56.890 192.000 C 56.775 154.866,56.773 154.932,57.987 154.483 C 59.060 154.086,122.260 154.526,122.667 154.933 M192.096 162.795 C 191.345 163.998,191.403 217.107,192.157 218.100 C 192.890 219.066,204.002 219.162,204.793 218.208 C 205.152 217.776,205.268 215.338,205.224 209.186 C 205.150 198.702,205.718 196.289,208.569 194.980 C 210.151 194.254,210.167 194.227,209.108 194.090 C 208.016 193.948,206.000 195.435,206.000 196.382 C 206.000 196.612,205.820 196.800,205.600 196.800 C 205.380 196.800,205.200 197.239,205.200 197.776 C 205.200 198.313,205.020 198.864,204.800 199.000 C 204.552 199.153,204.400 202.804,204.400 208.624 L 204.400 218.000 198.400 218.000 L 192.400 218.000 192.400 190.400 L 192.400 162.800 198.400 162.800 L 204.400 162.800 204.400 175.000 C 204.400 181.710,204.535 187.197,204.700 187.194 C 205.691 187.174,206.017 186.498,205.583 185.367 C 205.280 184.578,205.178 180.769,205.267 173.600 C 205.340 167.770,205.254 162.775,205.076 162.500 C 204.461 161.549,192.708 161.816,192.096 162.795 M282.600 163.200 C 282.464 163.420,281.294 163.600,280.000 163.600 C 278.706 163.600,277.536 163.780,277.400 164.000 C 277.239 164.260,279.404 164.400,283.600 164.400 C 287.796 164.400,289.961 164.260,289.800 164.000 C 289.664 163.780,288.494 163.600,287.200 163.600 C 285.906 163.600,284.736 163.420,284.600 163.200 C 284.464 162.980,284.014 162.800,283.600 162.800 C 283.186 162.800,282.736 162.980,282.600 163.200 M132.253 165.006 C 132.125 165.339,131.566 165.785,131.010 165.996 C 130.455 166.207,130.000 166.655,130.000 166.990 C 130.000 167.326,129.820 167.600,129.600 167.600 C 129.380 167.600,129.200 167.960,129.200 168.400 C 129.200 168.840,129.020 169.200,128.800 169.200 C 127.985 169.200,128.330 174.213,129.200 175.000 C 129.640 175.398,130.000 175.979,130.000 176.291 C 130.000 176.958,130.958 178.000,131.571 178.000 C 132.212 178.000,132.088 177.320,131.400 177.055 C 131.070 176.929,130.800 176.549,130.800 176.213 C 130.800 175.876,130.620 175.600,130.400 175.600 C 130.180 175.600,130.000 175.330,130.000 175.000 C 130.000 174.670,129.820 174.400,129.600 174.400 C 129.374 174.400,129.200 173.267,129.200 171.800 C 129.200 170.333,129.374 169.200,129.600 169.200 C 129.820 169.200,130.000 168.909,130.000 168.554 C 130.000 167.618,132.796 165.200,133.878 165.200 C 134.385 165.200,134.800 165.020,134.800 164.800 C 134.800 164.151,132.510 164.336,132.253 165.006 M137.800 164.800 C 137.656 165.033,138.063 165.200,138.776 165.200 C 139.449 165.200,140.000 165.380,140.000 165.600 C 140.000 165.820,140.193 166.000,140.429 166.000 C 140.982 166.000,142.000 167.018,142.000 167.571 C 142.000 167.807,142.180 168.000,142.400 168.000 C 142.620 168.000,142.800 168.360,142.800 168.800 C 142.800 169.240,142.980 169.600,143.200 169.600 C 144.239 169.600,143.198 167.582,141.200 165.722 C 139.819 164.436,138.282 164.020,137.800 164.800 M274.000 164.800 C 274.000 165.020,273.640 165.200,273.200 165.200 C 272.760 165.200,272.400 165.380,272.400 165.600 C 272.400 165.820,271.995 166.001,271.500 166.002 C 271.005 166.003,270.025 166.543,269.322 167.202 C 268.619 167.861,267.868 168.400,267.653 168.400 C 266.833 168.400,261.099 174.509,260.045 176.507 C 259.437 177.658,258.742 178.960,258.499 179.400 C 257.954 180.390,257.527 181.553,257.328 182.591 C 257.245 183.027,257.002 183.558,256.789 183.771 C 256.273 184.287,256.284 189.200,256.800 189.200 C 257.022 189.200,257.200 188.133,257.200 186.800 C 257.200 185.467,257.378 184.400,257.600 184.400 C 257.820 184.400,258.000 183.770,258.000 183.000 C 258.000 182.230,258.180 181.600,258.400 181.600 C 258.620 181.600,258.800 181.150,258.800 180.600 C 258.800 180.050,258.980 179.600,259.200 179.600 C 259.420 179.600,259.600 179.240,259.600 178.800 C 259.600 178.360,259.780 178.000,260.000 178.000 C 260.220 178.000,260.400 177.730,260.400 177.400 C 260.400 177.070,260.580 176.800,260.800 176.800 C 261.020 176.800,261.200 176.530,261.200 176.200 C 261.200 175.870,261.380 175.600,261.600 175.600 C 261.820 175.600,262.000 175.330,262.000 175.000 C 262.000 174.670,262.180 174.400,262.400 174.400 C 262.620 174.400,262.800 174.204,262.800 173.965 C 262.800 173.365,267.188 169.200,267.820 169.200 C 268.103 169.200,268.393 169.058,268.467 168.886 C 268.706 168.320,271.108 166.800,271.762 166.800 C 272.113 166.800,272.400 166.620,272.400 166.400 C 272.400 166.180,272.760 166.000,273.200 166.000 C 273.640 166.000,274.000 165.820,274.000 165.600 C 274.000 165.380,274.630 165.200,275.400 165.200 C 276.170 165.200,276.800 165.020,276.800 164.800 C 276.800 164.580,276.170 164.400,275.400 164.400 C 274.630 164.400,274.000 164.580,274.000 164.800 M290.400 164.800 C 290.400 165.020,290.940 165.200,291.600 165.200 C 292.260 165.200,292.800 165.380,292.800 165.600 C 292.800 165.820,293.250 166.000,293.800 166.000 C 294.350 166.000,294.800 166.180,294.800 166.400 C 294.800 166.620,295.160 166.800,295.600 166.800 C 296.040 166.800,296.400 166.980,296.400 167.200 C 296.400 167.420,296.625 167.600,296.900 167.601 C 297.175 167.601,298.030 168.141,298.800 168.800 C 299.570 169.459,300.341 169.999,300.513 169.999 C 300.921 170.000,303.599 172.678,303.602 173.087 C 303.603 173.259,304.098 173.948,304.702 174.617 C 305.742 175.770,306.502 176.923,307.262 178.500 C 307.448 178.885,307.780 179.558,308.000 179.995 C 308.220 180.432,308.400 181.062,308.400 181.395 C 308.400 181.728,308.580 182.000,308.800 182.000 C 309.020 182.000,309.200 182.630,309.200 183.400 C 309.200 184.170,309.380 184.800,309.600 184.800 C 309.851 184.800,310.000 187.333,310.000 191.600 C 310.000 195.867,309.851 198.400,309.600 198.400 C 309.380 198.400,309.200 199.030,309.200 199.800 C 309.200 200.570,309.020 201.200,308.800 201.200 C 308.580 201.200,308.400 201.472,308.400 201.805 C 308.400 202.451,308.129 203.086,307.036 205.000 C 306.659 205.660,306.251 206.515,306.129 206.900 C 306.007 207.285,305.748 207.600,305.553 207.600 C 305.359 207.600,305.200 207.782,305.200 208.003 C 305.200 208.698,301.076 213.200,300.440 213.200 C 300.198 213.200,300.000 213.380,300.000 213.600 C 300.000 213.820,299.730 214.000,299.400 214.000 C 299.070 214.000,298.800 214.180,298.800 214.400 C 298.800 214.620,298.530 214.800,298.200 214.800 C 297.870 214.800,297.600 214.980,297.600 215.200 C 297.600 215.420,297.330 215.600,297.000 215.600 C 296.670 215.600,296.400 215.780,296.400 216.000 C 296.400 216.220,296.040 216.400,295.600 216.400 C 295.160 216.400,294.800 216.580,294.800 216.800 C 294.800 217.020,294.350 217.200,293.800 217.200 C 293.250 217.200,292.800 217.380,292.800 217.600 C 292.800 217.820,292.170 218.000,291.400 218.000 C 290.630 218.000,290.000 218.180,290.000 218.400 C 290.000 218.650,287.659 218.800,283.776 218.800 C 279.729 218.800,277.639 218.940,277.800 219.200 C 277.946 219.437,280.396 219.600,283.800 219.600 C 287.204 219.600,289.654 219.437,289.800 219.200 C 289.936 218.980,290.566 218.800,291.200 218.800 C 291.834 218.800,292.464 218.620,292.600 218.400 C 292.736 218.180,293.272 218.000,293.790 218.000 C 294.309 218.000,294.793 217.865,294.867 217.700 C 294.940 217.535,295.855 216.967,296.900 216.437 C 297.945 215.908,298.800 215.323,298.800 215.137 C 298.800 214.952,299.052 214.800,299.359 214.800 C 300.136 214.800,306.000 208.997,306.000 208.227 C 306.000 207.882,306.152 207.600,306.337 207.600 C 306.523 207.600,307.108 206.745,307.637 205.700 C 308.167 204.655,308.735 203.740,308.900 203.667 C 309.065 203.593,309.200 203.199,309.200 202.790 C 309.200 202.382,309.380 201.936,309.600 201.800 C 309.820 201.664,310.000 200.854,310.000 200.000 C 310.000 199.146,310.180 198.336,310.400 198.200 C 310.639 198.052,310.800 195.404,310.800 191.600 C 310.800 187.796,310.639 185.148,310.400 185.000 C 310.180 184.864,310.000 184.054,310.000 183.200 C 310.000 182.346,309.820 181.536,309.600 181.400 C 309.380 181.264,309.200 180.818,309.200 180.410 C 309.200 180.001,309.065 179.607,308.900 179.533 C 308.735 179.460,308.167 178.545,307.637 177.500 C 307.108 176.455,306.523 175.600,306.337 175.600 C 306.152 175.600,306.000 175.330,306.000 175.000 C 306.000 174.364,300.178 168.400,299.557 168.400 C 299.357 168.400,298.628 167.860,297.937 167.200 C 297.246 166.540,296.258 166.000,295.741 166.000 C 295.223 166.000,294.800 165.820,294.800 165.600 C 294.800 165.380,294.440 165.200,294.000 165.200 C 293.560 165.200,293.200 165.020,293.200 164.800 C 293.200 164.580,292.570 164.400,291.800 164.400 C 291.030 164.400,290.400 164.580,290.400 164.800 M324.900 164.998 C 324.260 165.725,324.162 203.600,324.800 203.600 C 325.061 203.600,325.200 197.014,325.200 184.643 C 325.200 167.725,325.268 165.659,325.833 165.443 C 326.181 165.309,329.053 165.200,332.215 165.200 L 337.964 165.200 338.224 166.586 C 338.734 169.308,338.247 208.918,337.700 209.100 C 337.425 209.192,337.200 209.702,337.200 210.233 C 337.200 210.765,337.020 211.200,336.800 211.200 C 336.580 211.200,336.400 211.470,336.400 211.800 C 336.400 212.130,336.220 212.400,336.000 212.400 C 335.780 212.400,335.600 212.688,335.600 213.040 C 335.600 213.789,333.505 215.849,332.380 216.206 C 331.951 216.343,331.600 216.622,331.600 216.827 C 331.600 217.032,331.240 217.200,330.800 217.200 C 330.360 217.200,330.000 217.380,330.000 217.600 C 330.000 217.820,329.471 218.000,328.824 218.000 C 328.177 218.000,327.536 218.180,327.400 218.400 C 327.256 218.633,324.996 218.800,321.976 218.800 C 318.792 218.800,316.800 218.646,316.800 218.400 C 316.800 218.180,316.350 218.000,315.800 218.000 C 315.250 218.000,314.800 218.180,314.800 218.400 C 314.800 218.620,315.149 218.800,315.576 218.800 C 316.003 218.800,316.464 218.980,316.600 219.200 C 316.743 219.432,318.930 219.600,321.800 219.600 C 324.670 219.600,326.857 219.432,327.000 219.200 C 327.136 218.980,327.668 218.800,328.183 218.800 C 330.474 218.800,337.200 213.813,337.200 212.115 C 337.200 211.832,337.380 211.600,337.600 211.600 C 337.820 211.600,338.000 211.096,338.000 210.480 C 338.000 209.864,338.163 209.189,338.363 208.980 C 339.383 207.912,340.111 167.123,339.143 165.300 C 338.542 164.168,325.867 163.900,324.900 164.998 M76.100 165.288 L 75.200 165.722 75.200 191.661 L 75.200 217.600 90.412 217.600 L 105.623 217.600 105.512 212.300 L 105.400 207.000 97.231 206.891 C 92.029 206.822,88.869 206.623,88.531 206.343 C 88.103 205.987,88.000 202.009,88.000 185.765 C 88.000 166.266,87.976 165.615,87.226 165.214 C 86.210 164.670,77.258 164.730,76.100 165.288 M86.000 186.869 C 86.000 204.981,86.065 207.008,86.662 207.669 C 87.264 208.334,88.099 208.400,95.862 208.400 L 104.400 208.400 104.400 212.400 L 104.400 216.400 90.800 216.400 L 77.200 216.400 77.200 191.600 L 77.200 166.800 81.600 166.800 L 86.000 166.800 86.000 186.869 M143.600 171.776 C 143.600 172.779,143.420 173.600,143.200 173.600 C 142.980 173.600,142.800 174.050,142.800 174.600 C 142.800 175.150,142.620 175.600,142.400 175.600 C 142.180 175.600,142.000 175.851,142.000 176.157 C 142.000 176.464,141.730 176.818,141.400 176.945 C 140.640 177.236,140.615 178.000,141.366 178.000 C 141.678 178.000,142.172 177.460,142.464 176.800 C 142.756 176.140,143.131 175.600,143.298 175.600 C 143.464 175.600,143.600 175.161,143.600 174.624 C 143.600 174.087,143.780 173.536,144.000 173.400 C 144.220 173.264,144.400 172.544,144.400 171.800 C 144.400 171.056,144.220 170.336,144.000 170.200 C 143.756 170.049,143.600 170.663,143.600 171.776 M242.000 172.000 L 237.400 172.240 242.524 172.320 C 245.857 172.372,247.561 172.260,247.400 172.000 C 247.264 171.780,247.028 171.636,246.876 171.680 C 246.724 171.724,244.530 171.868,242.000 172.000 M235.867 172.667 C 235.720 172.813,235.600 175.318,235.600 178.233 L 235.600 183.533 234.500 183.935 C 233.417 184.331,233.423 184.337,234.900 184.368 L 236.400 184.400 236.400 178.400 C 236.400 175.100,236.340 172.400,236.267 172.400 C 236.193 172.400,236.013 172.520,235.867 172.667 M248.157 173.033 C 248.291 173.381,248.400 176.081,248.400 179.033 C 248.400 182.344,248.553 184.400,248.800 184.400 C 249.049 184.400,249.200 182.133,249.200 178.400 C 249.200 173.156,249.119 172.400,248.557 172.400 C 248.135 172.400,247.998 172.618,248.157 173.033 M280.800 176.800 C 280.800 177.020,280.260 177.200,279.600 177.200 C 278.940 177.200,278.400 177.380,278.400 177.600 C 278.400 177.820,278.929 178.000,279.576 178.000 C 280.223 178.000,280.864 177.820,281.000 177.600 C 281.136 177.380,282.306 177.200,283.600 177.200 C 284.894 177.200,286.064 177.380,286.200 177.600 C 286.336 177.820,286.977 178.000,287.624 178.000 C 288.271 178.000,288.800 177.820,288.800 177.600 C 288.800 177.380,288.159 177.200,287.376 177.200 C 286.529 177.200,286.053 177.038,286.200 176.800 C 286.356 176.548,285.404 176.400,283.624 176.400 C 282.008 176.400,280.800 176.571,280.800 176.800 M132.400 178.256 C 132.400 179.029,134.055 179.575,136.400 179.575 C 137.944 179.575,139.284 179.359,139.700 179.043 C 140.559 178.391,140.596 178.000,139.800 178.000 C 139.470 178.000,139.200 178.180,139.200 178.400 C 139.200 178.629,138.000 178.800,136.400 178.800 C 134.800 178.800,133.600 178.629,133.600 178.400 C 133.600 178.180,133.330 178.000,133.000 178.000 C 132.670 178.000,132.400 178.115,132.400 178.256 M276.800 178.400 C 276.800 178.620,276.612 178.800,276.382 178.800 C 275.839 178.800,274.000 180.639,274.000 181.182 C 274.000 181.412,273.820 181.600,273.600 181.600 C 273.380 181.600,273.200 181.870,273.200 182.200 C 273.200 182.530,273.064 182.800,272.898 182.800 C 272.420 182.800,271.522 185.113,271.697 185.893 C 271.811 186.403,272.036 186.183,272.505 185.104 C 273.240 183.416,275.524 179.941,276.173 179.527 C 277.790 178.496,278.202 178.025,277.500 178.013 C 277.115 178.006,276.800 178.180,276.800 178.400 M289.200 178.229 C 289.200 178.669,290.348 179.600,290.891 179.600 C 291.193 179.600,291.656 179.816,291.920 180.080 C 292.184 180.344,292.400 180.421,292.400 180.251 C 292.400 179.859,291.617 179.141,290.490 178.500 C 289.523 177.950,289.200 177.882,289.200 178.229 M292.400 181.217 C 292.400 181.446,292.760 182.020,293.200 182.492 C 293.640 182.964,294.000 183.767,294.000 184.275 C 294.000 184.784,294.180 185.200,294.400 185.200 C 294.620 185.200,294.800 185.740,294.800 186.400 C 294.800 187.060,294.980 187.600,295.200 187.600 C 295.437 187.600,295.600 189.059,295.600 191.176 C 295.600 193.143,295.420 194.864,295.200 195.000 C 294.980 195.136,294.800 195.867,294.800 196.624 C 294.800 197.381,294.620 198.000,294.400 198.000 C 294.180 198.000,294.000 198.272,294.000 198.605 C 294.000 200.018,290.233 204.400,289.019 204.400 C 288.679 204.400,288.400 204.580,288.400 204.800 C 288.400 205.020,287.871 205.200,287.224 205.200 C 286.577 205.200,285.936 205.380,285.800 205.600 C 285.215 206.546,288.973 205.830,290.000 204.799 C 290.110 204.689,290.693 204.345,291.295 204.034 C 291.898 203.724,292.617 202.959,292.893 202.335 C 293.169 201.711,293.531 201.200,293.698 201.200 C 293.864 201.200,294.000 200.930,294.000 200.600 C 294.000 200.270,294.180 200.000,294.400 200.000 C 294.620 200.000,294.800 199.651,294.800 199.224 C 294.800 198.797,294.980 198.336,295.200 198.200 C 295.420 198.064,295.600 197.524,295.600 197.000 C 295.600 196.476,295.780 195.936,296.000 195.800 C 296.225 195.661,296.400 193.729,296.400 191.376 C 296.400 188.859,296.241 187.200,296.000 187.200 C 295.780 187.200,295.600 186.761,295.600 186.224 C 295.600 185.687,295.420 185.136,295.200 185.000 C 294.980 184.864,294.800 184.403,294.800 183.976 C 294.800 183.549,294.664 183.200,294.498 183.200 C 294.331 183.200,293.956 182.660,293.664 182.000 C 293.149 180.836,292.400 180.372,292.400 181.217 M158.800 183.624 C 158.030 184.030,156.995 184.370,156.500 184.381 C 156.005 184.391,155.600 184.580,155.600 184.800 C 155.600 185.020,155.316 185.200,154.969 185.200 C 154.066 185.200,148.400 191.081,148.400 192.018 C 148.400 192.448,148.580 192.800,148.800 192.800 C 149.020 192.800,149.200 192.530,149.200 192.200 C 149.200 191.870,149.380 191.600,149.600 191.600 C 149.820 191.600,150.000 191.314,150.000 190.965 C 150.000 190.203,154.278 186.000,155.054 186.000 C 155.354 186.000,155.600 185.820,155.600 185.600 C 155.600 185.380,155.949 185.200,156.376 185.200 C 156.803 185.200,157.264 185.020,157.400 184.800 C 157.536 184.580,158.256 184.400,159.000 184.400 C 159.744 184.400,160.464 184.220,160.600 184.000 C 160.934 183.460,166.129 183.489,166.674 184.034 C 166.912 184.272,167.533 184.394,168.054 184.304 C 168.944 184.150,168.953 184.123,168.200 183.841 C 167.760 183.676,167.087 183.375,166.705 183.171 C 165.481 182.517,160.342 182.812,158.800 183.624 M211.412 183.180 C 211.270 183.411,210.724 183.600,210.200 183.600 C 209.676 183.600,209.136 183.780,209.000 184.000 C 208.856 184.233,209.263 184.400,209.976 184.400 C 210.649 184.400,211.200 184.220,211.200 184.000 C 211.200 183.775,212.325 183.600,213.776 183.600 C 215.193 183.600,216.464 183.780,216.600 184.000 C 216.736 184.220,217.467 184.400,218.224 184.400 C 218.981 184.400,219.600 184.580,219.600 184.800 C 219.600 185.020,220.140 185.200,220.800 185.200 C 221.460 185.200,222.000 185.380,222.000 185.600 C 222.000 185.820,222.275 186.000,222.611 186.000 C 223.404 186.000,226.800 189.396,226.800 190.189 C 226.800 190.525,226.980 190.800,227.200 190.800 C 227.420 190.800,227.600 191.329,227.600 191.976 C 227.600 192.623,227.780 193.264,228.000 193.400 C 228.252 193.556,228.400 198.137,228.400 205.824 L 228.400 218.000 222.400 218.000 L 216.400 218.000 216.400 208.224 C 216.400 202.137,216.249 198.354,216.000 198.200 C 215.780 198.064,215.600 197.603,215.600 197.176 C 215.600 196.749,215.420 196.400,215.200 196.400 C 214.980 196.400,214.800 196.170,214.800 195.889 C 214.800 195.199,213.351 194.000,212.517 194.000 C 212.044 194.000,212.284 194.403,213.322 195.354 C 214.135 196.099,214.800 197.078,214.800 197.530 C 214.800 197.983,214.980 198.464,215.200 198.600 C 215.448 198.754,215.600 202.423,215.600 208.280 C 215.600 219.745,214.957 218.770,222.529 218.787 C 229.897 218.804,229.200 220.194,229.200 205.485 L 229.200 193.312 227.933 190.856 C 227.237 189.505,226.517 188.400,226.333 188.400 C 226.150 188.400,226.000 188.154,226.000 187.853 C 226.000 187.299,223.159 185.200,222.409 185.200 C 222.184 185.200,222.000 185.020,222.000 184.800 C 222.000 184.580,221.471 184.400,220.824 184.400 C 220.177 184.400,219.536 184.220,219.400 184.000 C 219.264 183.780,218.724 183.600,218.200 183.600 C 217.676 183.600,217.154 183.449,217.039 183.264 C 216.730 182.763,211.716 182.688,211.412 183.180 M139.200 184.000 C 138.342 184.275,138.436 184.326,139.857 184.360 C 142.107 184.414,142.000 183.540,142.000 201.833 L 142.000 218.000 136.000 218.000 L 130.000 218.000 130.000 201.680 C 130.000 189.167,130.117 185.239,130.500 184.841 C 130.904 184.422,130.847 184.350,130.200 184.467 C 129.134 184.659,128.717 217.174,129.767 218.224 C 130.525 218.982,141.574 219.066,142.320 218.320 C 143.199 217.441,142.989 184.831,142.100 184.157 C 141.319 183.564,140.672 183.529,139.200 184.000 M131.900 184.282 C 132.395 184.378,133.205 184.378,133.700 184.282 C 134.195 184.187,133.790 184.109,132.800 184.109 C 131.810 184.109,131.405 184.187,131.900 184.282 M169.800 184.800 C 169.936 185.020,170.397 185.200,170.824 185.200 C 171.251 185.200,171.601 185.335,171.603 185.500 C 171.606 185.785,173.662 186.897,173.815 186.696 C 174.324 186.027,174.319 184.400,173.808 184.400 C 173.473 184.400,173.200 184.580,173.200 184.800 C 173.200 185.020,172.851 185.200,172.424 185.200 C 171.997 185.200,171.536 185.020,171.400 184.800 C 171.264 184.580,170.793 184.400,170.353 184.400 C 169.913 184.400,169.664 184.580,169.800 184.800 M185.413 184.779 C 185.270 185.010,185.343 185.200,185.576 185.200 C 185.868 185.200,186.000 190.940,186.000 203.680 C 186.000 216.125,186.132 222.028,186.404 221.756 C 187.011 221.149,186.749 184.716,186.137 184.512 C 185.882 184.427,185.556 184.547,185.413 184.779 M206.460 185.042 C 206.162 185.378,205.996 185.729,206.089 185.822 C 206.330 186.064,208.393 185.061,208.397 184.700 C 208.402 184.167,207.017 184.412,206.460 185.042 M230.813 188.867 C 230.828 194.303,231.073 194.800,233.744 194.800 L 235.600 194.800 235.600 202.576 C 235.600 207.329,235.756 210.449,236.000 210.600 C 236.262 210.762,236.400 207.937,236.400 202.424 L 236.400 194.000 233.979 194.000 L 231.558 194.000 231.627 189.316 C 231.674 186.157,231.550 184.583,231.248 184.483 C 230.934 184.378,230.804 185.693,230.813 188.867 M254.694 184.639 C 254.334 185.000,254.830 186.029,255.242 185.774 C 255.439 185.652,255.600 185.293,255.600 184.976 C 255.600 184.387,255.123 184.210,254.694 184.639 M255.728 188.800 C 255.728 190.230,255.801 190.815,255.889 190.100 C 255.978 189.385,255.978 188.215,255.889 187.500 C 255.801 186.785,255.728 187.370,255.728 188.800 M270.800 191.824 C 270.800 195.071,270.941 196.760,271.200 196.600 C 271.431 196.458,271.600 194.329,271.600 191.576 C 271.600 188.659,271.444 186.800,271.200 186.800 C 270.955 186.800,270.800 188.741,270.800 191.824 M147.296 193.995 C 147.023 194.432,146.800 195.321,146.800 195.971 C 146.800 196.621,146.611 197.269,146.381 197.412 C 145.873 197.726,145.936 205.513,146.449 205.831 C 146.642 205.950,146.800 206.577,146.800 207.224 C 146.800 207.871,146.935 208.401,147.100 208.403 C 147.459 208.407,148.400 210.344,148.400 211.080 C 148.400 211.366,148.550 211.600,148.732 211.600 C 148.915 211.600,149.320 212.095,149.632 212.700 C 150.315 214.026,153.600 217.190,154.300 217.196 C 154.575 217.198,154.800 217.380,154.800 217.600 C 154.800 217.820,155.160 218.000,155.600 218.000 C 156.040 218.000,156.400 218.180,156.400 218.400 C 156.400 218.620,156.749 218.800,157.176 218.800 C 157.603 218.800,158.064 218.980,158.200 219.200 C 158.509 219.700,170.000 219.744,170.000 219.245 C 170.000 219.050,170.540 218.812,171.200 218.715 C 172.296 218.554,172.400 218.638,172.400 219.687 C 172.400 220.935,170.853 222.800,169.818 222.800 C 169.478 222.800,169.200 222.980,169.200 223.200 C 169.200 223.420,168.795 223.603,168.300 223.606 C 167.805 223.609,167.130 223.787,166.800 224.000 C 166.361 224.284,166.655 224.389,167.900 224.394 C 168.835 224.397,169.600 224.220,169.600 224.000 C 169.600 223.780,169.786 223.600,170.013 223.600 C 170.798 223.600,173.090 220.934,173.307 219.769 C 173.427 219.126,173.658 218.175,173.821 217.654 C 174.120 216.701,172.433 216.699,172.067 217.653 C 171.993 217.844,171.408 218.000,170.767 218.000 C 170.125 218.000,169.600 218.180,169.600 218.400 C 169.600 218.647,167.541 218.800,164.224 218.800 C 161.071 218.800,158.745 218.635,158.600 218.400 C 158.464 218.180,157.913 218.000,157.376 218.000 C 156.839 218.000,156.400 217.820,156.400 217.600 C 156.400 217.380,156.080 217.200,155.688 217.200 C 155.297 217.200,154.717 216.840,154.400 216.400 C 154.083 215.960,153.676 215.600,153.496 215.600 C 152.882 215.600,150.151 212.603,149.577 211.300 C 149.262 210.585,148.869 210.000,148.702 210.000 C 148.536 210.000,148.400 209.561,148.400 209.024 C 148.400 208.487,148.220 207.936,148.000 207.800 C 147.780 207.664,147.600 207.034,147.600 206.400 C 147.600 205.766,147.420 205.136,147.200 205.000 C 146.980 204.864,146.800 203.244,146.800 201.400 C 146.800 199.556,146.980 197.936,147.200 197.800 C 147.420 197.664,147.600 197.034,147.600 196.400 C 147.600 195.766,147.780 195.136,148.000 195.000 C 148.465 194.713,148.546 193.200,148.096 193.200 C 147.929 193.200,147.569 193.558,147.296 193.995 M254.800 193.600 C 254.800 193.833,253.467 194.000,251.600 194.000 L 248.400 194.000 248.400 200.200 C 248.400 204.067,248.551 206.400,248.800 206.400 C 249.020 206.400,249.200 206.670,249.200 207.000 C 249.200 207.467,249.733 207.600,251.600 207.600 C 253.893 207.600,254.000 207.644,254.000 208.600 C 254.000 209.150,254.180 209.600,254.400 209.600 C 254.620 209.600,254.800 210.241,254.800 211.024 C 254.800 211.871,254.962 212.347,255.200 212.200 C 255.420 212.064,255.600 211.333,255.600 210.576 C 255.600 209.819,255.420 209.200,255.200 209.200 C 254.980 209.200,254.800 208.778,254.800 208.262 C 254.800 207.009,253.362 205.678,252.711 206.329 C 252.064 206.976,250.463 206.921,249.771 206.229 C 249.332 205.789,249.200 204.400,249.200 200.229 L 249.200 194.800 252.400 194.800 C 255.333 194.800,255.600 194.733,255.600 194.000 C 255.600 193.560,255.420 193.200,255.200 193.200 C 254.980 193.200,254.800 193.380,254.800 193.600 M166.000 194.400 C 166.000 194.620,165.460 194.800,164.800 194.800 C 164.140 194.800,163.600 194.980,163.600 195.200 C 163.600 195.420,163.370 195.600,163.089 195.600 C 162.515 195.600,161.200 196.996,161.200 197.605 C 161.200 197.822,161.020 198.000,160.800 198.000 C 160.580 198.000,160.400 198.349,160.400 198.776 C 160.400 199.203,160.220 199.664,160.000 199.800 C 159.780 199.936,159.600 200.656,159.600 201.400 C 159.600 202.144,159.780 202.864,160.000 203.000 C 160.220 203.136,160.400 203.561,160.400 203.945 C 160.400 204.723,162.528 207.126,163.902 207.900 C 164.957 208.495,169.600 208.576,169.600 208.000 C 169.600 207.780,169.798 207.600,170.040 207.600 C 170.706 207.600,173.200 204.967,173.200 204.264 C 173.200 203.925,173.380 203.536,173.600 203.400 C 173.820 203.264,174.000 202.364,174.000 201.400 C 174.000 200.436,173.820 199.536,173.600 199.400 C 173.380 199.264,173.200 198.803,173.200 198.376 C 173.200 197.949,173.020 197.600,172.800 197.600 C 172.580 197.600,172.400 197.407,172.400 197.171 C 172.400 196.313,170.121 194.800,168.829 194.800 C 168.399 194.800,167.936 194.620,167.800 194.400 C 167.664 194.180,167.203 194.000,166.776 194.000 C 166.349 194.000,166.000 194.180,166.000 194.400 M256.400 196.576 C 256.400 197.993,256.580 199.264,256.800 199.400 C 257.020 199.536,257.200 200.076,257.200 200.600 C 257.200 201.124,257.380 201.664,257.600 201.800 C 257.820 201.936,258.000 202.369,258.000 202.762 C 258.000 203.674,259.039 205.768,259.808 206.407 C 260.134 206.677,260.400 207.153,260.400 207.464 C 260.400 208.190,267.911 215.600,268.647 215.600 C 268.951 215.600,269.200 215.747,269.200 215.926 C 269.200 216.385,272.325 218.000,273.214 218.000 C 273.620 218.000,274.064 218.180,274.200 218.400 C 274.336 218.620,275.067 218.800,275.824 218.800 C 276.581 218.800,277.200 218.620,277.200 218.400 C 277.200 218.180,276.480 218.000,275.600 218.000 C 274.720 218.000,274.000 217.820,274.000 217.600 C 274.000 217.380,273.651 217.200,273.224 217.200 C 272.797 217.200,272.336 217.020,272.200 216.800 C 272.064 216.580,271.603 216.400,271.176 216.400 C 270.749 216.400,270.400 216.220,270.400 216.000 C 270.400 215.780,270.130 215.600,269.800 215.600 C 269.470 215.600,269.200 215.420,269.200 215.200 C 269.200 214.980,268.930 214.800,268.600 214.800 C 268.270 214.800,268.000 214.620,268.000 214.400 C 268.000 214.180,267.817 214.000,267.593 214.000 C 267.003 214.000,262.303 209.183,261.632 207.893 C 261.320 207.292,260.915 206.800,260.732 206.800 C 260.550 206.800,260.400 206.440,260.400 206.000 C 260.400 205.560,260.220 205.200,260.000 205.200 C 259.780 205.200,259.600 204.840,259.600 204.400 C 259.600 203.960,259.420 203.600,259.200 203.600 C 258.980 203.600,258.800 203.240,258.800 202.800 C 258.800 202.360,258.620 202.000,258.400 202.000 C 258.180 202.000,258.000 201.370,258.000 200.600 C 258.000 199.830,257.820 199.200,257.600 199.200 C 257.374 199.200,257.200 198.067,257.200 196.600 C 257.200 195.133,257.026 194.000,256.800 194.000 C 256.575 194.000,256.400 195.125,256.400 196.576 M169.131 195.508 C 169.865 195.611,170.570 195.987,170.704 196.347 C 170.838 196.706,171.274 197.235,171.674 197.523 C 172.073 197.810,172.400 198.395,172.400 198.823 C 172.400 199.250,172.580 199.600,172.800 199.600 C 173.020 199.600,173.200 200.309,173.200 201.176 C 173.200 202.043,173.020 202.864,172.800 203.000 C 172.580 203.136,172.400 203.605,172.400 204.042 C 172.400 204.983,170.699 206.800,169.818 206.800 C 169.478 206.800,169.200 206.980,169.200 207.200 C 169.200 207.422,168.133 207.600,166.800 207.600 C 165.467 207.600,164.400 207.422,164.400 207.200 C 164.400 206.980,164.117 206.800,163.771 206.800 C 163.001 206.800,162.358 206.148,161.700 204.700 C 161.425 204.095,160.984 203.139,160.719 202.575 C 160.345 201.777,160.345 201.380,160.719 200.781 C 160.984 200.357,161.200 199.642,161.200 199.192 C 161.200 198.034,163.750 195.600,164.963 195.600 C 165.507 195.600,166.072 195.408,166.217 195.173 C 166.362 194.938,166.778 194.875,167.140 195.034 C 167.503 195.192,168.399 195.406,169.131 195.508 M271.643 197.900 C 271.619 198.615,271.780 199.200,272.000 199.200 C 272.220 199.200,272.400 199.470,272.400 199.800 C 272.400 200.130,272.580 200.400,272.800 200.400 C 273.020 200.400,273.200 200.670,273.200 201.000 C 273.200 201.330,273.380 201.600,273.600 201.600 C 273.820 201.600,274.000 201.788,274.000 202.018 C 274.000 202.660,275.886 204.400,276.582 204.400 C 276.922 204.400,277.200 204.580,277.200 204.800 C 277.200 205.020,277.560 205.200,278.000 205.200 C 278.440 205.200,278.800 205.380,278.800 205.600 C 278.800 205.820,279.531 206.000,280.424 206.000 C 281.404 206.000,281.949 205.842,281.800 205.600 C 281.664 205.380,280.933 205.200,280.176 205.200 C 279.419 205.200,278.800 205.020,278.800 204.800 C 278.800 204.580,278.440 204.400,278.000 204.400 C 277.560 204.400,277.196 204.265,277.191 204.100 C 277.185 203.935,276.465 203.270,275.591 202.623 C 274.716 201.976,274.000 201.211,274.000 200.923 C 274.000 200.635,273.820 200.400,273.600 200.400 C 273.380 200.400,273.200 200.040,273.200 199.600 C 273.200 199.160,273.055 198.800,272.877 198.800 C 272.700 198.800,272.359 198.305,272.120 197.700 L 271.685 196.600 271.643 197.900 M311.936 204.000 C 311.644 204.660,311.269 205.200,311.102 205.200 C 310.936 205.200,310.800 205.562,310.800 206.005 C 310.800 206.448,310.620 207.168,310.400 207.605 C 310.180 208.042,309.820 208.758,309.600 209.195 C 309.380 209.632,309.200 210.352,309.200 210.795 C 309.200 211.238,309.020 211.600,308.800 211.600 C 307.812 211.600,308.386 214.619,309.500 215.279 C 310.105 215.637,311.140 216.396,311.800 216.965 C 313.006 218.004,314.400 218.345,314.400 217.600 C 314.400 217.380,314.040 217.200,313.600 217.200 C 313.160 217.200,312.800 217.020,312.800 216.800 C 312.800 216.580,312.530 216.400,312.200 216.400 C 311.870 216.400,311.600 216.220,311.600 216.000 C 311.600 215.780,311.330 215.600,311.000 215.600 C 310.670 215.600,310.400 215.420,310.400 215.200 C 310.400 214.980,310.130 214.800,309.800 214.800 C 309.367 214.800,309.200 214.356,309.200 213.200 C 309.200 212.320,309.380 211.600,309.600 211.600 C 309.820 211.600,310.000 211.060,310.000 210.400 C 310.000 209.740,310.180 209.200,310.400 209.200 C 310.620 209.200,310.800 208.750,310.800 208.200 C 310.800 207.650,310.980 207.200,311.200 207.200 C 311.420 207.200,311.600 206.851,311.600 206.424 C 311.600 205.997,311.780 205.536,312.000 205.400 C 312.220 205.264,312.400 204.803,312.400 204.376 C 312.400 203.330,313.974 203.344,315.108 204.400 C 315.580 204.840,316.154 205.200,316.383 205.200 C 316.612 205.200,316.800 205.380,316.800 205.600 C 316.800 205.820,317.250 206.000,317.800 206.000 C 318.350 206.000,318.800 206.180,318.800 206.400 C 318.800 206.620,319.340 206.800,320.000 206.800 C 320.660 206.800,321.200 206.620,321.200 206.400 C 321.200 206.180,321.476 206.000,321.814 206.000 C 322.562 206.000,324.400 204.839,324.400 204.367 C 324.400 204.027,323.181 204.335,322.800 204.771 C 321.867 205.840,319.087 206.389,318.600 205.600 C 318.464 205.380,318.048 205.200,317.676 205.199 C 317.304 205.199,316.370 204.659,315.600 204.000 C 313.779 202.442,312.626 202.442,311.936 204.000 M282.800 206.400 C 282.800 206.620,283.250 206.800,283.800 206.800 C 284.350 206.800,284.800 206.620,284.800 206.400 C 284.800 206.180,284.350 206.000,283.800 206.000 C 283.250 206.000,282.800 206.180,282.800 206.400 M236.400 212.351 C 236.400 212.984,236.673 213.729,237.007 214.006 C 237.341 214.283,237.890 215.090,238.226 215.798 C 239.638 218.775,249.528 221.067,253.105 219.247 C 253.487 219.052,254.340 218.647,255.000 218.347 C 257.401 217.253,257.778 216.048,256.500 213.561 L 255.800 212.200 255.669 213.349 C 255.597 213.981,255.732 214.692,255.969 214.929 C 256.620 215.580,256.500 217.200,255.800 217.200 C 255.470 217.200,255.200 217.380,255.200 217.600 C 255.200 217.820,254.660 218.000,254.000 218.000 C 253.340 218.000,252.800 218.180,252.800 218.400 C 252.800 218.644,250.933 218.800,248.000 218.800 C 245.067 218.800,243.200 218.644,243.200 218.400 C 243.200 218.180,242.831 218.000,242.381 218.000 C 241.408 218.000,238.000 214.767,238.000 213.844 C 238.000 213.490,237.820 213.200,237.600 213.200 C 237.380 213.200,237.200 212.750,237.200 212.200 C 237.200 211.650,237.020 211.200,236.800 211.200 C 236.580 211.200,236.400 211.718,236.400 212.351 M154.733 220.700 C 154.541 221.132,151.228 222.800,150.562 222.800 C 150.253 222.800,150.000 222.980,150.000 223.200 C 150.000 223.420,149.758 223.600,149.462 223.600 C 148.552 223.600,147.600 224.997,147.600 226.331 C 147.600 227.029,147.780 227.600,148.000 227.600 C 148.220 227.600,148.400 227.862,148.400 228.182 C 148.400 228.953,152.632 233.200,153.400 233.200 C 153.730 233.200,154.000 233.380,154.000 233.600 C 154.000 233.820,154.265 234.000,154.588 234.000 C 154.911 234.000,155.817 234.360,156.600 234.800 C 158.088 235.636,161.600 235.917,161.600 235.200 C 161.600 234.980,160.790 234.800,159.800 234.800 C 158.810 234.800,158.000 234.620,158.000 234.400 C 158.000 234.180,157.460 234.000,156.800 234.000 C 156.140 234.000,155.600 233.820,155.600 233.600 C 155.600 233.380,155.240 233.200,154.800 233.200 C 154.360 233.200,154.000 233.059,154.000 232.886 C 154.000 232.714,153.441 232.242,152.758 231.839 C 151.184 230.909,149.200 228.847,149.200 228.141 C 149.200 227.843,149.020 227.600,148.800 227.600 C 148.580 227.600,148.400 226.880,148.400 226.000 C 148.400 224.560,148.500 224.400,149.400 224.400 C 149.950 224.400,150.400 224.254,150.400 224.075 C 150.400 223.896,151.030 223.502,151.800 223.200 C 152.570 222.898,153.200 222.504,153.200 222.325 C 153.200 222.146,153.549 222.000,153.976 222.000 C 154.403 222.000,154.864 221.820,155.000 221.600 C 155.547 220.715,158.440 221.160,159.550 222.300 C 161.307 224.104,165.962 225.556,165.000 224.000 C 164.864 223.780,164.133 223.600,163.376 223.600 C 162.619 223.600,162.000 223.420,162.000 223.200 C 162.000 222.980,161.712 222.800,161.360 222.800 C 161.009 222.800,160.217 222.260,159.600 221.600 C 158.507 220.430,155.131 219.806,154.733 220.700 M185.200 223.800 C 185.200 224.570,185.020 225.200,184.800 225.200 C 184.580 225.200,184.400 225.560,184.400 226.000 C 184.400 226.440,184.220 226.800,184.000 226.800 C 183.780 226.800,183.600 227.041,183.600 227.336 C 183.600 228.049,180.488 231.253,179.100 231.968 C 178.495 232.280,178.000 232.685,178.000 232.868 C 178.000 233.050,177.640 233.200,177.200 233.200 C 176.760 233.200,176.400 233.380,176.400 233.600 C 176.400 233.820,175.961 234.000,175.424 234.000 C 174.887 234.000,174.336 234.180,174.200 234.400 C 174.064 234.620,173.243 234.800,172.376 234.800 C 171.509 234.800,170.800 234.980,170.800 235.200 C 170.800 235.420,171.599 235.600,172.576 235.600 C 173.553 235.600,174.464 235.420,174.600 235.200 C 174.736 234.980,175.197 234.800,175.624 234.800 C 176.051 234.800,176.400 234.620,176.400 234.400 C 176.400 234.180,176.687 234.000,177.038 234.000 C 177.692 234.000,180.094 232.480,180.333 231.914 C 180.407 231.742,180.727 231.600,181.046 231.600 C 181.364 231.600,181.735 231.313,181.870 230.962 C 182.005 230.611,182.629 229.761,183.257 229.073 C 183.886 228.385,184.400 227.592,184.400 227.311 C 184.400 227.030,184.544 226.800,184.720 226.800 C 185.131 226.800,186.000 224.405,186.000 223.272 C 186.000 222.792,185.820 222.400,185.600 222.400 C 185.380 222.400,185.200 223.030,185.200 223.800 M164.000 236.000 C 165.333 236.427,168.007 236.427,169.000 236.000 C 169.527 235.773,168.640 235.660,166.400 235.668 C 164.117 235.676,163.329 235.785,164.000 236.000 " stroke="none" fill="#af88fc" fill-rule="evenodd"></path><path id="path2" d="M193.784 163.700 C 193.679 163.975,193.639 176.170,193.696 190.800 L 193.800 217.400 198.343 217.514 C 204.480 217.667,204.000 218.530,204.000 207.335 C 204.000 198.760,204.068 197.836,204.799 196.401 C 206.621 192.830,211.838 191.586,214.450 194.100 C 216.798 196.360,216.800 196.373,216.800 206.718 C 216.800 218.511,216.360 217.664,222.405 217.514 L 227.000 217.400 227.106 205.308 C 227.207 193.720,227.176 193.141,226.367 191.420 C 223.189 184.657,212.624 182.518,206.288 187.353 C 203.866 189.202,204.000 189.852,204.000 176.213 C 204.000 167.372,203.872 164.032,203.520 163.680 C 202.836 162.996,194.046 163.014,193.784 163.700 M279.400 165.182 C 278.960 165.381,278.129 165.556,277.553 165.572 C 272.437 165.709,263.041 173.323,260.368 179.500 C 260.058 180.215,259.669 180.800,259.502 180.800 C 259.336 180.800,259.200 181.239,259.200 181.776 C 259.200 182.313,259.020 182.864,258.800 183.000 C 258.580 183.136,258.400 183.856,258.400 184.600 C 258.400 185.344,258.220 186.064,258.000 186.200 C 257.491 186.514,257.469 195.711,257.973 197.372 C 258.178 198.047,258.577 199.410,258.859 200.400 C 259.141 201.390,259.677 202.740,260.051 203.400 C 260.424 204.060,261.151 205.345,261.665 206.255 C 264.159 210.669,269.539 215.013,275.000 217.020 C 278.024 218.132,285.852 218.496,289.200 217.681 C 290.190 217.440,291.540 217.118,292.200 216.965 C 292.860 216.812,293.878 216.352,294.462 215.943 C 295.046 215.534,295.643 215.200,295.790 215.200 C 298.684 215.200,305.655 206.709,308.433 199.800 C 309.606 196.883,309.592 185.070,308.413 183.400 C 308.258 183.180,307.710 181.920,307.195 180.600 C 305.058 175.121,298.735 168.718,293.600 166.833 C 292.830 166.551,291.840 166.170,291.400 165.987 C 289.307 165.118,280.803 164.547,279.400 165.182 M132.860 166.586 C 128.733 169.503,129.552 175.606,134.346 177.664 C 139.703 179.964,144.964 172.837,141.379 168.137 C 139.327 165.447,135.466 164.744,132.860 166.586 M326.594 166.088 C 326.490 166.370,326.343 174.610,326.268 184.400 C 326.116 204.200,326.103 204.327,324.062 206.009 C 321.785 207.886,315.438 207.285,314.467 205.100 C 314.159 204.408,313.150 204.879,312.764 205.894 C 312.535 206.496,312.102 207.531,311.801 208.194 C 309.829 212.541,309.983 215.200,312.208 215.200 C 312.465 215.200,313.002 215.560,313.400 216.000 C 313.798 216.440,314.445 216.800,314.838 216.800 C 315.231 216.800,315.652 216.960,315.773 217.156 C 316.297 218.004,323.947 218.483,326.600 217.833 C 332.082 216.492,335.619 213.006,337.186 207.400 C 337.496 206.291,337.598 199.658,337.517 185.800 L 337.400 165.800 332.092 165.688 C 328.064 165.604,326.738 165.700,326.594 166.088 M237.043 174.233 C 236.909 174.581,236.800 177.281,236.800 180.233 L 236.800 185.600 234.880 185.600 C 232.332 185.600,232.000 186.027,232.000 189.306 C 232.000 193.070,232.345 193.600,234.797 193.600 L 236.767 193.600 236.927 201.100 C 237.177 212.797,239.230 217.600,243.981 217.600 C 244.344 217.600,244.836 217.796,245.076 218.036 C 245.807 218.767,251.426 218.161,254.128 217.060 C 255.094 216.666,255.228 216.427,255.057 215.400 C 254.573 212.494,254.158 211.103,253.208 209.200 C 252.992 208.768,252.407 208.637,251.120 208.730 C 248.151 208.947,247.800 208.045,247.800 200.200 L 247.800 193.800 251.000 193.600 L 254.200 193.400 254.200 189.600 L 254.200 185.800 251.000 185.600 L 247.800 185.400 247.702 180.400 C 247.556 172.945,248.083 173.600,242.235 173.600 C 238.091 173.600,237.246 173.703,237.043 174.233 M288.400 176.481 C 290.680 177.452,291.311 177.813,292.134 178.618 C 298.474 184.812,298.859 197.216,292.910 203.646 C 291.541 205.125,290.934 205.499,287.881 206.744 C 286.441 207.331,280.772 207.335,279.319 206.749 C 276.534 205.628,274.770 204.616,274.249 203.841 C 273.938 203.378,273.294 202.591,272.817 202.091 C 269.889 199.016,268.914 189.353,271.012 184.200 C 272.261 181.132,276.417 176.800,278.111 176.800 C 278.402 176.800,278.811 176.631,279.020 176.424 C 279.800 175.652,286.550 175.693,288.400 176.481 M158.800 185.281 C 158.250 185.516,157.196 185.972,156.459 186.293 C 153.400 187.624,150.292 191.359,148.856 195.427 C 147.928 198.056,147.604 205.708,148.400 206.200 C 148.620 206.336,148.800 206.792,148.800 207.213 C 148.800 207.634,149.258 208.748,149.818 209.689 C 150.377 210.630,150.935 211.670,151.056 212.000 C 151.377 212.870,156.182 216.800,156.924 216.800 C 157.270 216.800,157.664 216.980,157.800 217.200 C 157.936 217.420,158.541 217.600,159.144 217.600 C 159.747 217.600,160.434 217.794,160.672 218.032 C 161.394 218.754,170.114 217.987,170.627 217.156 C 170.748 216.960,171.169 216.800,171.562 216.800 C 171.955 216.800,172.598 216.444,172.991 216.009 C 174.023 214.870,174.400 215.352,174.400 217.811 C 174.400 225.607,164.316 228.370,157.850 222.346 C 157.426 221.951,156.971 221.685,156.839 221.756 C 156.708 221.827,155.030 222.640,153.110 223.564 C 148.989 225.547,148.962 225.578,149.839 227.426 C 150.526 228.874,154.954 232.800,155.900 232.800 C 156.181 232.800,156.723 232.958,157.105 233.151 C 157.487 233.344,158.443 233.704,159.228 233.951 C 161.017 234.513,172.257 234.554,172.600 234.000 C 172.736 233.780,173.199 233.600,173.629 233.600 C 174.059 233.600,174.723 233.441,175.105 233.247 C 175.487 233.052,176.268 232.676,176.840 232.411 C 179.481 231.187,181.729 228.964,183.255 226.067 L 184.800 223.135 184.800 204.355 L 184.800 185.576 179.700 185.688 L 174.600 185.800 174.473 186.900 C 174.326 188.185,173.916 188.264,172.462 187.286 C 171.425 186.588,170.552 186.163,168.281 185.250 C 166.879 184.686,160.141 184.709,158.800 185.281 M131.295 201.488 L 131.400 217.400 136.041 217.512 C 142.195 217.661,141.629 219.356,141.505 201.153 L 141.400 185.800 136.295 185.688 L 131.191 185.576 131.295 201.488 M170.801 194.495 C 174.266 196.344,175.760 202.550,173.509 205.738 C 168.844 212.342,159.182 209.440,159.210 201.442 C 159.220 198.452,160.926 195.102,162.718 194.552 C 163.093 194.437,163.670 194.186,164.000 193.995 C 165.232 193.281,169.053 193.562,170.801 194.495 " stroke="none" fill="#050505" fill-rule="evenodd"></path><path id="path3" d="M192.400 163.449 C 192.400 163.980,192.509 164.008,193.000 163.600 C 193.330 163.326,193.600 163.034,193.600 162.951 C 193.600 162.868,193.330 162.800,193.000 162.800 C 192.670 162.800,192.400 163.092,192.400 163.449 M134.800 164.800 C 134.800 165.020,135.419 165.200,136.176 165.200 C 136.933 165.200,137.664 165.020,137.800 164.800 C 137.949 164.558,137.404 164.400,136.424 164.400 C 135.531 164.400,134.800 164.580,134.800 164.800 M276.800 164.800 C 276.800 165.020,277.070 165.200,277.400 165.200 C 277.730 165.200,278.000 165.020,278.000 164.800 C 278.000 164.580,277.730 164.400,277.400 164.400 C 277.070 164.400,276.800 164.580,276.800 164.800 M289.000 164.800 C 289.136 165.020,289.507 165.200,289.824 165.200 C 290.141 165.200,290.400 165.020,290.400 164.800 C 290.400 164.580,290.029 164.400,289.576 164.400 C 289.123 164.400,288.864 164.580,289.000 164.800 M131.441 166.588 C 130.607 167.352,129.987 168.119,130.063 168.294 C 130.138 168.469,130.961 167.844,131.891 166.906 C 133.918 164.861,133.584 164.625,131.441 166.588 M139.376 165.813 C 139.804 166.136,140.292 166.400,140.462 166.400 C 140.632 166.400,141.228 167.072,141.786 167.893 C 142.472 168.902,142.800 169.154,142.800 168.669 C 142.800 168.230,142.978 168.063,143.262 168.238 C 143.541 168.411,143.615 168.348,143.449 168.079 C 143.298 167.835,142.910 167.736,142.587 167.860 C 142.264 167.984,142.000 167.873,142.000 167.614 C 142.000 167.025,141.002 166.000,140.429 166.000 C 140.193 166.000,140.000 165.820,140.000 165.600 C 140.000 165.380,139.685 165.206,139.300 165.213 C 138.667 165.224,138.674 165.281,139.376 165.813 M274.000 165.600 C 274.000 166.101,274.424 166.101,275.200 165.600 C 275.685 165.286,275.628 165.211,274.900 165.206 C 274.405 165.203,274.000 165.380,274.000 165.600 M325.700 165.465 C 325.310 165.622,325.206 169.713,325.228 184.133 C 325.244 194.812,325.401 202.263,325.600 201.800 C 325.789 201.360,325.956 193.050,325.972 183.333 C 325.994 169.596,326.111 165.622,326.500 165.465 C 326.775 165.354,326.820 165.263,326.600 165.263 C 326.380 165.263,325.975 165.354,325.700 165.465 M338.185 185.000 C 338.185 195.340,338.236 199.627,338.300 194.528 C 338.363 189.428,338.363 180.968,338.300 175.728 C 338.237 170.487,338.185 174.660,338.185 185.000 M269.800 167.705 C 269.140 168.188,268.540 168.723,268.467 168.892 C 268.393 169.061,268.103 169.200,267.820 169.200 C 267.188 169.200,262.800 173.365,262.800 173.965 C 262.800 174.204,262.620 174.400,262.400 174.400 C 262.180 174.400,262.000 174.670,262.000 175.000 C 262.000 175.330,261.820 175.600,261.600 175.600 C 261.380 175.600,261.206 175.825,261.213 176.100 C 261.221 176.375,261.563 176.197,261.973 175.705 C 265.227 171.806,266.478 170.586,268.868 168.982 C 270.371 167.974,271.600 167.071,271.600 166.975 C 271.600 166.599,270.948 166.864,269.800 167.705 M296.400 167.712 C 300.742 170.465,304.009 173.697,306.161 177.370 C 306.771 178.411,307.364 179.169,307.479 179.054 C 307.594 178.940,307.308 178.313,306.844 177.661 C 306.380 177.010,306.000 176.360,306.000 176.217 C 306.000 176.074,305.461 175.381,304.802 174.678 C 304.143 173.975,303.603 173.259,303.602 173.087 C 303.599 172.678,300.921 170.000,300.513 169.999 C 300.341 169.999,299.570 169.459,298.800 168.800 C 298.030 168.141,297.175 167.601,296.900 167.601 C 296.625 167.600,296.400 167.420,296.400 167.200 C 296.400 166.980,296.085 166.806,295.700 166.812 C 295.234 166.821,295.469 167.122,296.400 167.712 M129.206 170.300 C 129.211 171.157,129.298 171.268,129.600 170.800 C 130.106 170.017,130.106 169.200,129.600 169.200 C 129.380 169.200,129.203 169.695,129.206 170.300 M142.923 171.600 C 142.939 172.700,143.098 173.600,143.276 173.600 C 143.454 173.600,143.600 172.700,143.600 171.600 C 143.600 170.500,143.441 169.600,143.246 169.600 C 143.052 169.600,142.906 170.500,142.923 171.600 M129.206 173.300 C 129.203 173.905,129.380 174.400,129.600 174.400 C 130.106 174.400,130.106 173.583,129.600 172.800 C 129.298 172.332,129.211 172.443,129.206 173.300 M236.432 173.300 C 236.449 173.795,236.554 173.975,236.665 173.700 C 236.878 173.173,246.088 172.952,247.367 173.443 C 247.899 173.647,248.000 174.506,248.000 178.810 C 248.000 185.488,247.847 185.200,251.400 185.200 C 253.689 185.200,254.367 185.336,254.557 185.833 C 255.007 187.004,254.821 193.019,254.320 193.520 C 254.056 193.784,253.979 194.000,254.149 194.000 C 254.318 194.000,254.714 193.743,255.029 193.429 C 255.711 192.746,255.877 185.382,255.200 185.800 C 254.840 186.022,254.627 185.497,254.753 184.700 C 254.779 184.535,253.360 184.400,251.600 184.400 L 248.400 184.400 248.400 179.033 C 248.400 171.772,248.992 172.400,242.157 172.400 C 236.444 172.400,236.400 172.407,236.432 173.300 M142.432 174.639 C 142.414 174.880,141.761 175.735,140.981 176.539 C 140.200 177.342,139.750 178.000,139.981 178.000 C 140.497 178.000,142.000 176.536,142.000 176.033 C 142.000 175.832,142.207 175.598,142.460 175.513 C 142.713 175.429,142.817 175.099,142.692 174.780 C 142.566 174.461,142.449 174.397,142.432 174.639 M130.800 176.299 C 130.800 176.795,132.412 178.063,132.854 177.915 C 133.070 177.843,132.696 177.378,132.023 176.880 C 131.350 176.383,130.800 176.121,130.800 176.299 M279.200 176.800 C 278.732 177.102,278.843 177.189,279.700 177.194 C 280.305 177.197,280.800 177.020,280.800 176.800 C 280.800 176.294,279.983 176.294,279.200 176.800 M286.200 176.800 C 286.057 177.031,286.428 177.197,287.076 177.194 C 287.949 177.189,288.066 177.101,287.600 176.800 C 286.831 176.303,286.507 176.303,286.200 176.800 M260.400 177.400 C 260.400 177.730,260.220 178.000,260.000 178.000 C 259.780 178.000,259.600 178.345,259.600 178.767 C 259.600 179.188,259.393 179.602,259.140 179.687 C 258.887 179.771,258.769 180.101,258.878 180.420 C 258.999 180.777,259.486 180.192,260.144 178.900 C 260.732 177.745,261.030 176.800,260.807 176.800 C 260.583 176.800,260.400 177.070,260.400 177.400 M288.800 177.553 C 288.800 177.748,289.115 178.018,289.500 178.154 C 289.885 178.289,290.470 178.504,290.800 178.630 C 291.130 178.756,290.950 178.490,290.400 178.038 C 289.320 177.152,288.800 176.994,288.800 177.553 M138.000 178.400 C 137.515 178.714,137.572 178.789,138.300 178.794 C 138.795 178.797,139.200 178.620,139.200 178.400 C 139.200 177.899,138.776 177.899,138.000 178.400 M274.647 179.601 C 273.116 181.296,272.956 181.600,273.600 181.600 C 273.820 181.600,274.000 181.412,274.000 181.182 C 274.000 180.626,275.845 178.800,276.405 178.800 C 276.648 178.800,276.719 179.008,276.562 179.262 C 276.389 179.541,276.452 179.615,276.721 179.449 C 277.189 179.160,276.935 178.000,276.404 178.000 C 276.233 178.000,275.442 178.721,274.647 179.601 M291.600 179.176 C 291.600 179.409,291.780 179.600,292.000 179.600 C 292.220 179.600,292.400 179.788,292.400 180.017 C 292.400 180.246,292.760 180.820,293.200 181.292 C 293.640 181.764,294.000 182.387,294.000 182.675 C 294.000 182.964,294.180 183.200,294.400 183.200 C 295.013 183.200,294.899 182.888,293.595 180.992 C 292.315 179.132,291.600 178.481,291.600 179.176 M272.178 182.978 C 271.800 183.554,271.602 184.135,271.736 184.270 C 271.871 184.404,272.107 184.174,272.261 183.757 C 272.416 183.341,272.730 182.875,272.959 182.722 C 273.189 182.569,273.261 182.328,273.120 182.187 C 272.979 182.046,272.555 182.402,272.178 182.978 M211.094 183.039 C 210.299 183.834,211.445 184.345,214.044 184.353 C 215.705 184.358,216.729 184.209,216.588 183.981 C 216.459 183.771,215.183 183.600,213.753 183.600 C 212.121 183.600,211.245 183.451,211.400 183.200 C 211.671 182.762,211.475 182.659,211.094 183.039 M160.633 183.947 C 160.514 184.138,161.850 184.295,163.600 184.295 C 165.350 184.295,166.686 184.138,166.567 183.947 C 166.449 183.756,165.114 183.600,163.600 183.600 C 162.086 183.600,160.751 183.756,160.633 183.947 M168.800 184.400 C 169.035 184.840,169.430 185.200,169.676 185.200 C 169.922 185.200,169.798 184.840,169.400 184.400 C 169.002 183.960,168.608 183.600,168.524 183.600 C 168.440 183.600,168.565 183.960,168.800 184.400 M294.816 184.076 C 294.807 184.448,294.980 184.864,295.200 185.000 C 295.420 185.136,295.600 185.687,295.600 186.224 C 295.600 186.761,295.792 187.200,296.027 187.200 C 296.501 187.200,296.216 185.992,295.366 184.400 C 294.984 183.684,294.827 183.592,294.816 184.076 M130.480 184.880 C 130.216 185.144,130.000 185.607,130.000 185.909 C 130.000 186.339,130.135 186.322,130.629 185.829 C 131.430 185.027,140.740 184.900,141.520 185.680 C 142.050 186.210,142.127 185.997,141.757 185.033 C 141.446 184.221,131.277 184.083,130.480 184.880 M174.233 185.057 C 174.095 185.419,174.075 185.809,174.191 185.924 C 174.306 186.039,174.400 185.923,174.400 185.667 C 174.400 185.116,184.270 185.003,185.123 185.544 C 185.543 185.811,185.621 189.438,185.523 204.138 C 185.455 214.182,185.535 222.400,185.700 222.400 C 185.865 222.400,186.000 214.030,186.000 203.800 C 186.000 190.976,185.868 185.200,185.576 185.200 C 185.343 185.200,185.264 185.020,185.400 184.800 C 185.560 184.541,183.685 184.400,180.066 184.400 C 175.259 184.400,174.451 184.491,174.233 185.057 M208.400 184.800 C 208.400 185.020,208.175 185.200,207.900 185.200 C 207.625 185.201,206.888 185.641,206.262 186.180 C 205.636 186.718,204.916 187.233,204.662 187.325 C 204.408 187.416,204.323 187.623,204.474 187.785 C 204.624 187.948,205.164 187.687,205.674 187.205 C 206.183 186.724,207.275 185.982,208.100 185.557 C 209.705 184.730,209.961 184.400,209.000 184.400 C 208.670 184.400,208.400 184.580,208.400 184.800 M231.705 185.260 C 231.657 185.907,231.754 186.006,232.100 185.660 C 232.353 185.407,233.424 185.200,234.480 185.200 C 235.536 185.200,236.400 185.020,236.400 184.800 C 236.400 183.885,231.775 184.338,231.705 185.260 M257.206 185.300 C 257.211 186.028,257.286 186.085,257.600 185.600 C 258.101 184.824,258.101 184.400,257.600 184.400 C 257.380 184.400,257.203 184.805,257.206 185.300 M309.206 185.300 C 309.220 186.442,309.988 187.026,309.994 185.900 C 309.997 185.295,309.820 184.800,309.600 184.800 C 309.380 184.800,309.203 185.025,309.206 185.300 M155.600 185.600 C 155.600 185.820,155.354 186.000,155.054 186.000 C 154.371 186.000,150.000 190.159,150.000 190.809 C 150.000 191.072,150.835 190.358,151.855 189.223 C 152.875 188.089,154.405 186.805,155.255 186.372 C 156.902 185.532,157.169 185.200,156.200 185.200 C 155.870 185.200,155.600 185.380,155.600 185.600 M170.620 185.536 C 171.580 186.385,174.000 187.624,174.000 187.266 C 174.000 187.047,173.460 186.628,172.800 186.336 C 172.140 186.044,171.600 185.669,171.600 185.502 C 171.600 185.336,171.294 185.200,170.920 185.200 C 170.518 185.200,170.395 185.337,170.620 185.536 M224.524 188.100 C 225.666 189.255,226.657 190.073,226.728 189.917 C 226.890 189.558,223.353 186.000,222.834 186.000 C 222.621 186.000,223.382 186.945,224.524 188.100 M256.400 191.600 C 256.400 192.933,256.578 194.000,256.800 194.000 C 257.022 194.000,257.200 192.933,257.200 191.600 C 257.200 190.267,257.022 189.200,256.800 189.200 C 256.578 189.200,256.400 190.267,256.400 191.600 M270.528 191.600 C 270.528 193.030,270.601 193.615,270.689 192.900 C 270.778 192.185,270.778 191.015,270.689 190.300 C 270.601 189.585,270.528 190.170,270.528 191.600 M149.200 192.200 C 149.200 192.530,149.020 192.800,148.800 192.800 C 148.580 192.800,148.400 192.980,148.400 193.200 C 148.400 193.956,149.072 193.599,149.527 192.600 C 149.804 191.992,149.830 191.600,149.591 191.600 C 149.376 191.600,149.200 191.870,149.200 192.200 M209.000 193.600 C 208.846 193.849,209.604 194.000,211.000 194.000 C 212.396 194.000,213.154 193.849,213.000 193.600 C 212.864 193.380,211.964 193.200,211.000 193.200 C 210.036 193.200,209.136 193.380,209.000 193.600 M227.932 205.058 C 228.030 213.813,227.940 216.990,227.583 217.421 C 227.197 217.886,227.230 218.000,227.751 218.000 C 228.446 218.000,228.789 193.888,228.100 193.461 C 227.935 193.359,227.859 198.578,227.932 205.058 M164.400 194.400 C 163.932 194.702,164.043 194.789,164.900 194.794 C 165.505 194.797,166.000 194.620,166.000 194.400 C 166.000 193.894,165.183 193.894,164.400 194.400 M167.800 194.400 C 167.936 194.620,168.407 194.800,168.847 194.800 C 169.287 194.800,169.536 194.620,169.400 194.400 C 169.264 194.180,168.793 194.000,168.353 194.000 C 167.913 194.000,167.664 194.180,167.800 194.400 M206.271 195.126 C 205.139 196.307,204.942 196.800,205.600 196.800 C 205.820 196.800,206.000 196.596,206.000 196.347 C 206.000 196.098,206.389 195.557,206.864 195.144 C 207.339 194.732,207.641 194.308,207.535 194.202 C 207.429 194.095,206.860 194.511,206.271 195.126 M213.600 194.295 C 213.600 194.526,213.870 194.818,214.200 194.945 C 214.530 195.071,214.800 195.451,214.800 195.787 C 214.800 196.124,214.980 196.400,215.200 196.400 C 215.420 196.400,215.600 196.749,215.600 197.176 C 215.600 197.603,215.780 198.064,216.000 198.200 C 216.569 198.552,216.495 197.743,215.841 196.479 C 215.195 195.230,213.600 193.675,213.600 194.295 M248.158 199.400 C 248.158 202.480,248.221 203.687,248.297 202.082 C 248.373 200.478,248.373 197.958,248.296 196.482 C 248.219 195.007,248.157 196.320,248.158 199.400 M147.867 195.067 C 147.720 195.213,147.611 195.708,147.625 196.167 C 147.649 196.933,147.682 196.923,148.034 196.042 C 148.426 195.063,148.344 194.589,147.867 195.067 M162.375 195.313 C 160.905 196.458,158.717 200.593,160.000 199.800 C 160.220 199.664,160.400 199.203,160.400 198.776 C 160.400 198.349,160.580 198.000,160.800 198.000 C 161.020 198.000,161.200 197.822,161.200 197.605 C 161.200 196.996,162.515 195.600,163.089 195.600 C 163.370 195.600,163.600 195.420,163.600 195.200 C 163.600 194.671,163.144 194.713,162.375 195.313 M170.157 195.388 C 170.205 195.712,170.398 196.117,170.586 196.288 C 170.774 196.460,170.799 196.375,170.641 196.100 C 170.482 195.825,170.556 195.600,170.805 195.600 C 171.378 195.600,172.400 196.607,172.400 197.171 C 172.400 197.407,172.586 197.600,172.814 197.600 C 173.432 197.600,172.573 196.166,171.508 195.421 C 170.400 194.645,170.047 194.636,170.157 195.388 M295.892 195.842 C 295.731 196.002,295.600 196.543,295.600 197.043 C 295.600 197.543,295.420 198.064,295.200 198.200 C 294.980 198.336,294.815 198.752,294.834 199.124 C 294.852 199.496,295.224 199.024,295.659 198.076 C 296.405 196.453,296.535 195.198,295.892 195.842 M270.978 196.835 C 270.831 197.074,270.910 197.470,271.155 197.715 C 271.482 198.042,271.600 197.926,271.600 197.280 C 271.600 196.314,271.392 196.165,270.978 196.835 M309.449 197.130 C 309.272 197.642,309.233 198.167,309.363 198.297 C 309.778 198.711,310.070 198.100,309.918 197.134 L 309.771 196.200 309.449 197.130 M204.700 197.431 C 204.535 197.597,204.400 198.099,204.400 198.547 C 204.400 199.135,204.521 199.239,204.838 198.922 C 205.078 198.682,205.213 198.180,205.138 197.807 C 205.062 197.433,204.865 197.264,204.700 197.431 M257.206 198.100 C 257.203 198.705,257.380 199.200,257.600 199.200 C 258.106 199.200,258.106 198.383,257.600 197.600 C 257.298 197.132,257.211 197.243,257.206 198.100 M147.067 197.867 C 146.693 198.240,146.732 204.711,147.109 204.944 C 147.279 205.049,147.418 203.440,147.418 201.367 C 147.418 199.295,147.399 197.600,147.376 197.600 C 147.352 197.600,147.213 197.720,147.067 197.867 M173.200 198.553 C 173.200 198.883,173.380 199.264,173.600 199.400 C 173.820 199.536,174.000 199.377,174.000 199.047 C 174.000 198.717,173.820 198.336,173.600 198.200 C 173.380 198.064,173.200 198.223,173.200 198.553 M272.197 200.395 C 273.702 203.305,278.800 207.324,278.800 205.600 C 278.800 205.380,278.440 205.200,278.000 205.200 C 277.560 205.200,277.200 205.020,277.200 204.800 C 277.200 204.580,276.922 204.400,276.582 204.400 C 275.886 204.400,274.000 202.660,274.000 202.018 C 274.000 201.788,273.820 201.600,273.600 201.600 C 273.380 201.600,273.200 201.330,273.200 201.000 C 273.200 200.670,273.020 200.400,272.800 200.400 C 272.580 200.400,272.400 200.130,272.400 199.800 C 272.400 199.470,272.215 199.200,271.990 199.200 C 271.756 199.200,271.845 199.713,272.197 200.395 M308.679 200.157 C 308.515 200.574,308.475 201.009,308.591 201.124 C 308.955 201.489,309.276 200.891,309.124 200.131 C 308.983 199.435,308.962 199.436,308.679 200.157 M294.000 200.600 C 294.000 200.930,293.864 201.200,293.698 201.200 C 293.531 201.200,293.161 201.730,292.874 202.377 C 292.588 203.024,291.824 203.788,291.177 204.074 C 290.530 204.361,290.000 204.710,290.000 204.851 C 290.000 204.992,289.603 205.211,289.117 205.337 C 288.632 205.464,288.354 205.687,288.499 205.833 C 289.010 206.343,292.221 204.060,293.504 202.274 C 294.892 200.341,295.027 200.000,294.400 200.000 C 294.180 200.000,294.000 200.270,294.000 200.600 M159.600 203.196 C 159.600 204.094,160.798 205.915,162.193 207.141 C 163.567 208.347,164.719 208.840,164.200 208.000 C 164.064 207.780,163.763 207.600,163.530 207.600 C 162.866 207.600,160.400 204.721,160.400 203.945 C 160.400 203.561,160.220 203.136,160.000 203.000 C 159.780 202.864,159.600 202.952,159.600 203.196 M173.467 203.467 C 173.320 203.613,173.200 203.991,173.200 204.307 C 173.200 204.978,170.684 207.600,170.040 207.600 C 169.798 207.600,169.600 207.780,169.600 208.000 C 169.600 209.155,173.288 206.013,173.791 204.430 C 174.086 203.498,173.922 203.011,173.467 203.467 M312.400 204.376 C 312.400 204.803,312.220 205.264,312.000 205.400 C 311.780 205.536,311.612 205.952,311.626 206.324 C 311.641 206.729,311.910 206.479,312.298 205.700 C 313.038 204.213,313.776 204.086,315.200 205.200 C 315.750 205.630,316.316 205.986,316.457 205.991 C 316.947 206.008,317.163 204.825,316.721 204.551 C 316.452 204.385,316.389 204.459,316.562 204.738 C 317.029 205.494,316.034 205.263,315.108 204.400 C 313.974 203.344,312.400 203.330,312.400 204.376 M323.762 204.062 C 323.585 204.348,323.652 204.415,323.938 204.238 C 324.192 204.081,324.400 204.123,324.400 204.330 C 324.400 204.832,322.590 206.000,321.814 206.000 C 321.476 206.000,321.200 206.180,321.200 206.400 C 321.200 206.620,321.429 206.800,321.709 206.800 C 322.337 206.800,325.200 204.480,325.200 203.971 C 325.200 203.442,324.102 203.511,323.762 204.062 M305.678 206.493 C 304.122 208.869,301.661 211.552,299.000 213.773 C 298.340 214.324,298.025 214.780,298.300 214.787 C 298.575 214.794,298.800 214.620,298.800 214.400 C 298.800 214.180,299.070 214.000,299.400 214.000 C 299.730 214.000,300.000 213.820,300.000 213.600 C 300.000 213.380,300.198 213.200,300.440 213.200 C 301.076 213.200,305.200 208.698,305.200 208.003 C 305.200 207.782,305.380 207.600,305.600 207.600 C 305.820 207.600,306.000 207.403,306.000 207.162 C 306.000 206.921,306.380 206.190,306.844 205.539 C 307.308 204.887,307.605 204.271,307.504 204.170 C 307.403 204.069,306.581 205.115,305.678 206.493 M260.400 206.106 C 260.400 206.488,260.550 206.800,260.732 206.800 C 260.915 206.800,261.320 207.292,261.632 207.893 C 262.217 209.019,266.970 214.000,267.460 214.000 C 267.611 214.000,266.490 212.684,264.968 211.075 C 263.445 209.466,261.795 207.534,261.300 206.781 C 260.705 205.875,260.400 205.646,260.400 206.106 M147.628 206.676 C 147.613 207.158,147.780 207.664,148.000 207.800 C 148.473 208.092,148.473 207.701,148.000 206.600 C 147.669 205.829,147.655 205.831,147.628 206.676 M280.200 206.400 C 280.336 206.620,280.977 206.800,281.624 206.800 C 282.271 206.800,282.800 206.620,282.800 206.400 C 282.800 206.180,282.159 206.000,281.376 206.000 C 280.529 206.000,280.053 206.162,280.200 206.400 M284.800 206.400 C 284.800 206.620,285.239 206.800,285.776 206.800 C 286.313 206.800,286.864 206.620,287.000 206.400 C 287.144 206.167,286.737 206.000,286.024 206.000 C 285.351 206.000,284.800 206.180,284.800 206.400 M317.600 206.400 C 318.376 206.901,318.800 206.901,318.800 206.400 C 318.800 206.180,318.395 206.003,317.900 206.006 C 317.172 206.011,317.115 206.086,317.600 206.400 M248.400 206.738 C 248.400 207.752,249.993 208.472,251.625 208.196 C 252.847 207.989,253.392 208.060,253.643 208.456 C 253.912 208.881,253.989 208.846,253.994 208.300 C 253.999 207.710,253.621 207.600,251.600 207.600 C 249.733 207.600,249.200 207.467,249.200 207.000 C 249.200 206.670,249.020 206.400,248.800 206.400 C 248.580 206.400,248.400 206.552,248.400 206.738 M310.151 207.279 C 309.985 207.548,310.059 207.611,310.338 207.438 C 310.636 207.254,310.802 207.481,310.806 208.076 C 310.812 208.925,311.573 208.409,311.594 207.543 C 311.606 207.053,310.424 206.837,310.151 207.279 M337.412 208.117 C 337.241 208.512,337.213 208.947,337.351 209.084 C 337.757 209.490,338.084 208.920,337.897 208.131 C 337.732 207.433,337.710 207.432,337.412 208.117 M236.400 210.376 C 236.400 210.829,236.580 211.200,236.800 211.200 C 237.020 211.200,237.200 210.941,237.200 210.624 C 237.200 210.307,237.020 209.936,236.800 209.800 C 236.580 209.664,236.400 209.923,236.400 210.376 M254.006 209.900 C 254.024 210.777,254.788 211.359,254.794 210.500 C 254.797 210.005,254.620 209.600,254.400 209.600 C 254.180 209.600,254.003 209.735,254.006 209.900 M335.611 212.122 C 334.781 213.493,333.477 214.901,332.230 215.773 C 331.012 216.625,330.480 217.194,330.900 217.196 C 331.285 217.198,331.600 217.032,331.600 216.827 C 331.600 216.622,331.951 216.343,332.380 216.206 C 333.505 215.849,335.600 213.789,335.600 213.040 C 335.600 212.688,335.780 212.400,336.000 212.400 C 336.220 212.400,336.400 212.145,336.400 211.833 C 336.400 211.522,336.607 211.198,336.860 211.113 C 337.113 211.029,337.240 210.719,337.142 210.426 C 337.041 210.123,336.376 210.861,335.611 212.122 M149.200 210.605 C 149.200 211.447,152.772 215.600,153.496 215.600 C 153.676 215.600,154.083 215.960,154.400 216.400 C 154.717 216.840,155.223 217.200,155.523 217.200 C 155.824 217.200,154.985 216.293,153.658 215.185 C 152.332 214.076,150.861 212.546,150.391 211.785 C 149.596 210.499,149.200 210.107,149.200 210.605 M254.978 212.435 C 254.831 212.674,254.910 213.070,255.155 213.315 C 255.482 213.642,255.600 213.526,255.600 212.880 C 255.600 211.914,255.392 211.765,254.978 212.435 M238.000 214.121 C 238.000 214.632,241.555 218.089,241.917 217.930 C 242.079 217.858,241.264 216.889,240.106 215.777 C 238.948 214.664,238.000 213.919,238.000 214.121 M309.200 214.170 C 309.200 214.516,309.470 214.800,309.800 214.800 C 310.130 214.800,310.400 214.980,310.400 215.200 C 310.400 215.420,310.670 215.600,311.000 215.600 C 311.330 215.600,311.600 215.780,311.600 216.000 C 311.600 216.220,311.870 216.400,312.200 216.400 C 312.530 216.400,312.800 216.580,312.800 216.800 C 312.800 217.020,313.105 217.200,313.478 217.200 C 313.922 217.200,313.681 216.866,312.778 216.230 C 312.020 215.696,310.905 214.873,310.300 214.400 C 309.396 213.692,309.200 213.651,309.200 214.170 M268.000 214.386 C 268.000 214.614,268.270 214.800,268.600 214.800 C 268.930 214.800,269.200 214.980,269.200 215.200 C 269.200 215.420,269.391 215.600,269.624 215.600 C 270.211 215.600,269.715 214.890,268.778 214.388 C 268.243 214.102,268.000 214.101,268.000 214.386 M255.600 215.728 C 255.600 216.286,255.215 216.971,254.700 217.330 C 253.944 217.857,253.912 217.961,254.500 217.979 C 254.885 217.991,255.200 217.820,255.200 217.600 C 255.200 217.380,255.470 217.200,255.800 217.200 C 256.480 217.200,256.644 215.398,256.000 215.000 C 255.775 214.861,255.600 215.180,255.600 215.728 M295.463 215.897 C 294.398 216.490,293.759 217.053,294.043 217.148 C 294.327 217.242,294.629 217.113,294.713 216.860 C 294.798 216.607,295.212 216.400,295.633 216.400 C 296.055 216.400,296.400 216.220,296.400 216.000 C 296.400 215.780,296.670 215.600,297.000 215.600 C 297.330 215.600,297.600 215.420,297.600 215.200 C 297.600 214.683,297.708 214.648,295.463 215.897 M270.400 216.000 C 270.400 216.220,270.724 216.400,271.120 216.400 C 271.516 216.400,272.053 216.613,272.313 216.873 C 272.574 217.134,272.896 217.237,273.031 217.103 C 273.165 216.969,272.727 216.576,272.057 216.229 C 270.632 215.493,270.400 215.461,270.400 216.000 M172.800 216.600 C 172.259 217.251,172.389 217.333,173.367 216.957 C 173.715 216.824,174.000 216.554,174.000 216.357 C 174.000 215.804,173.352 215.935,172.800 216.600 M130.032 217.100 C 130.010 217.705,130.230 217.998,130.700 217.994 C 131.132 217.990,131.231 217.875,130.960 217.694 C 130.718 217.532,130.417 217.130,130.292 216.800 C 130.139 216.399,130.053 216.499,130.032 217.100 M192.400 217.133 C 192.400 217.666,192.650 218.000,193.049 218.000 C 193.604 218.000,193.621 217.899,193.162 217.300 C 192.867 216.915,192.575 216.525,192.513 216.433 C 192.451 216.342,192.400 216.657,192.400 217.133 M158.600 218.400 C 158.736 218.620,159.242 218.797,159.724 218.794 C 160.436 218.789,160.488 218.715,160.000 218.400 C 159.212 217.891,158.285 217.891,158.600 218.400 M168.200 218.400 C 167.491 218.705,167.525 218.747,168.500 218.772 C 169.105 218.787,169.600 218.620,169.600 218.400 C 169.600 217.931,169.293 217.931,168.200 218.400 M173.488 218.533 C 173.010 219.749,173.124 220.773,173.639 219.887 C 173.867 219.496,173.991 218.866,173.915 218.487 C 173.788 217.860,173.751 217.864,173.488 218.533 M243.200 218.400 C 243.200 218.620,243.605 218.797,244.100 218.794 C 244.828 218.789,244.885 218.714,244.400 218.400 C 243.624 217.899,243.200 217.899,243.200 218.400 M251.400 218.400 C 251.264 218.620,251.523 218.800,251.976 218.800 C 252.429 218.800,252.800 218.620,252.800 218.400 C 252.800 218.180,252.541 218.000,252.224 218.000 C 251.907 218.000,251.536 218.180,251.400 218.400 M277.200 218.576 C 277.200 218.893,277.408 219.281,277.662 219.438 C 277.948 219.615,278.015 219.548,277.838 219.262 C 277.654 218.964,277.881 218.798,278.476 218.794 C 279.219 218.789,279.283 218.712,278.800 218.400 C 277.926 217.835,277.200 217.915,277.200 218.576 M288.400 218.400 C 287.932 218.702,288.043 218.789,288.900 218.794 C 289.505 218.797,290.000 218.620,290.000 218.400 C 290.000 217.894,289.183 217.894,288.400 218.400 M316.800 218.400 C 316.800 218.620,317.205 218.797,317.700 218.794 C 318.428 218.789,318.485 218.714,318.000 218.400 C 317.224 217.899,316.800 217.899,316.800 218.400 M326.000 218.400 C 325.517 218.712,325.581 218.789,326.324 218.794 C 326.948 218.798,327.154 218.962,326.959 219.300 C 326.801 219.575,326.826 219.660,327.014 219.488 C 328.096 218.504,327.247 217.594,326.000 218.400 M155.000 221.600 C 154.864 221.820,154.403 222.000,153.976 222.000 C 153.549 222.000,153.200 222.146,153.200 222.325 C 153.200 222.504,152.570 222.898,151.800 223.200 C 151.030 223.502,150.400 223.898,150.400 224.080 C 150.400 224.261,151.705 223.757,153.300 222.958 C 156.626 221.293,156.763 221.200,155.890 221.200 C 155.537 221.200,155.136 221.380,155.000 221.600 M158.679 222.249 C 160.237 223.706,161.579 224.554,161.870 224.264 C 162.004 224.129,161.774 223.891,161.357 223.734 C 160.941 223.577,160.123 222.943,159.540 222.325 C 158.956 221.706,158.272 221.200,158.019 221.200 C 157.766 221.200,158.063 221.672,158.679 222.249 M171.600 222.400 C 171.050 223.047,170.375 223.581,170.100 223.588 C 169.825 223.595,169.600 223.780,169.600 224.000 C 169.600 224.846,171.291 223.711,172.749 221.887 C 173.700 220.697,172.649 221.166,171.600 222.400 M183.822 226.000 C 183.215 227.210,181.979 228.965,181.076 229.900 C 180.173 230.835,179.579 231.600,179.756 231.600 C 180.282 231.600,183.600 227.920,183.600 227.336 C 183.600 227.041,183.780 226.800,184.000 226.800 C 184.220 226.800,184.400 226.455,184.400 226.033 C 184.400 225.612,184.607 225.198,184.860 225.113 C 185.113 225.029,185.231 224.699,185.122 224.380 C 185.002 224.027,184.493 224.661,183.822 226.000 M148.400 226.000 C 148.400 226.880,148.580 227.600,148.800 227.600 C 149.020 227.600,149.200 227.843,149.200 228.141 C 149.200 228.847,151.184 230.909,152.758 231.839 C 153.441 232.242,154.000 232.714,154.000 232.886 C 154.000 233.059,154.306 233.200,154.680 233.200 C 155.057 233.200,154.283 232.416,152.945 231.442 C 149.438 228.891,147.830 225.805,149.500 224.832 C 150.125 224.468,150.104 224.423,149.300 224.412 C 148.515 224.402,148.400 224.604,148.400 226.000 M163.800 224.800 C 163.936 225.020,164.836 225.200,165.800 225.200 C 166.764 225.200,167.664 225.020,167.800 224.800 C 167.954 224.551,167.196 224.400,165.800 224.400 C 164.404 224.400,163.646 224.551,163.800 224.800 M177.800 232.400 C 177.140 232.837,176.833 233.196,177.117 233.197 C 177.401 233.199,178.020 232.840,178.492 232.400 C 179.582 231.385,179.332 231.385,177.800 232.400 M161.600 235.200 C 161.600 235.420,162.545 235.597,163.700 235.594 C 165.203 235.589,165.630 235.478,165.200 235.200 C 164.408 234.688,161.600 234.688,161.600 235.200 M167.600 235.200 C 167.166 235.480,167.526 235.589,168.900 235.594 C 169.945 235.597,170.800 235.420,170.800 235.200 C 170.800 234.689,168.391 234.689,167.600 235.200 " stroke="none" fill="#757575" fill-rule="evenodd"></path><path id="path4" d="M193.062 163.531 C 192.082 164.615,192.044 215.714,193.023 217.111 C 193.611 217.951,193.928 218.000,198.776 218.000 C 204.997 218.000,204.387 219.183,204.395 207.095 C 204.398 200.563,204.541 197.736,204.900 197.095 C 205.780 195.520,207.328 194.000,208.051 194.000 C 208.437 194.000,208.864 193.820,209.000 193.600 C 209.505 192.783,212.475 193.162,213.863 194.221 C 216.290 196.072,216.400 196.605,216.400 206.530 C 216.400 211.464,216.513 216.063,216.650 216.750 L 216.900 218.000 222.001 218.000 C 226.017 218.000,227.207 217.874,227.593 217.408 C 228.304 216.552,228.023 191.941,227.300 191.700 C 227.025 191.608,226.800 191.304,226.800 191.023 C 226.800 190.047,223.666 186.960,221.739 186.039 C 220.673 185.529,219.479 184.947,219.086 184.744 C 216.146 183.227,208.452 184.629,205.713 187.180 C 205.229 187.631,204.736 188.000,204.617 188.000 C 204.498 188.000,204.400 182.678,204.400 176.174 C 204.400 168.786,204.245 164.057,203.986 163.574 C 203.376 162.433,194.088 162.397,193.062 163.531 M203.520 163.680 C 203.872 164.032,204.000 167.372,204.000 176.213 C 204.000 189.852,203.866 189.202,206.288 187.353 C 212.624 182.518,223.189 184.657,226.367 191.420 C 227.176 193.141,227.207 193.720,227.106 205.308 L 227.000 217.400 222.405 217.514 C 216.360 217.664,216.800 218.511,216.800 206.718 C 216.800 196.373,216.798 196.360,214.450 194.100 C 211.838 191.586,206.621 192.830,204.799 196.401 C 204.068 197.836,204.000 198.760,204.000 207.335 C 204.000 218.530,204.480 217.667,198.343 217.514 L 193.800 217.400 193.696 190.800 C 193.639 176.170,193.679 163.975,193.784 163.700 C 194.046 163.014,202.836 162.996,203.520 163.680 M278.000 164.800 C 278.000 165.020,277.574 165.200,277.053 165.200 C 270.587 165.200,259.946 175.899,257.759 184.600 C 257.374 186.131,257.382 196.950,257.770 198.800 C 259.400 206.579,266.025 213.812,275.000 217.612 C 278.090 218.920,288.776 218.869,292.000 217.530 C 301.039 213.778,306.874 207.262,309.310 198.200 C 310.320 194.442,309.780 185.235,308.366 182.104 C 307.945 181.172,307.600 180.230,307.600 180.012 C 307.600 177.285,299.872 169.382,294.821 166.943 C 293.599 166.353,292.287 165.720,291.905 165.535 C 291.523 165.351,290.769 165.200,290.229 165.200 C 289.689 165.200,289.136 165.020,289.000 164.800 C 288.855 164.565,286.529 164.400,283.376 164.400 C 280.059 164.400,278.000 164.553,278.000 164.800 M289.200 165.396 C 289.970 165.538,290.960 165.804,291.400 165.987 C 291.840 166.170,292.830 166.551,293.600 166.833 C 298.735 168.718,305.058 175.121,307.195 180.600 C 307.710 181.920,308.258 183.180,308.413 183.400 C 309.592 185.070,309.606 196.883,308.433 199.800 C 305.655 206.709,298.684 215.200,295.790 215.200 C 295.643 215.200,295.046 215.534,294.462 215.943 C 293.878 216.352,292.860 216.812,292.200 216.965 C 291.540 217.118,290.190 217.440,289.200 217.681 C 285.852 218.496,278.024 218.132,275.000 217.020 C 269.539 215.013,264.159 210.669,261.665 206.255 C 261.151 205.345,260.424 204.060,260.051 203.400 C 259.677 202.740,259.141 201.390,258.859 200.400 C 258.577 199.410,258.178 198.047,257.973 197.372 C 257.469 195.711,257.491 186.514,258.000 186.200 C 258.220 186.064,258.400 185.344,258.400 184.600 C 258.400 183.856,258.580 183.136,258.800 183.000 C 259.020 182.864,259.200 182.313,259.200 181.776 C 259.200 181.239,259.336 180.800,259.502 180.800 C 259.669 180.800,260.058 180.215,260.368 179.500 C 263.041 173.323,272.437 165.709,277.553 165.572 C 278.129 165.556,278.960 165.381,279.400 165.182 C 280.234 164.804,286.772 164.947,289.200 165.396 M131.889 166.905 C 128.998 169.822,128.731 172.595,131.031 175.800 C 134.809 181.065,142.914 178.361,142.914 171.836 C 142.914 165.882,135.978 162.780,131.889 166.905 M326.500 165.465 C 326.111 165.622,325.996 169.548,325.982 183.133 C 325.963 202.718,325.849 203.779,323.577 205.676 C 321.537 207.378,315.833 206.794,314.571 204.754 C 313.887 203.646,312.838 204.526,311.773 207.100 C 311.159 208.585,310.509 209.971,310.328 210.180 C 310.148 210.389,310.000 210.938,310.000 211.400 C 310.000 211.862,309.792 212.448,309.537 212.703 C 308.816 213.424,313.186 217.200,314.741 217.200 C 314.994 217.200,315.200 217.360,315.200 217.556 C 315.200 218.126,317.903 218.499,322.000 218.492 C 326.233 218.486,329.200 218.101,329.200 217.558 C 329.200 217.361,329.426 217.200,329.701 217.200 C 331.642 217.200,337.200 211.003,337.200 208.839 C 337.200 208.403,337.380 207.936,337.600 207.800 C 338.220 207.417,338.142 166.302,337.520 165.680 C 337.043 165.203,327.606 165.018,326.500 165.465 M139.199 166.200 C 144.202 168.787,143.326 176.113,137.796 177.934 C 133.061 179.494,128.453 173.287,130.915 168.667 C 132.360 165.957,136.402 164.753,139.199 166.200 M337.517 185.800 C 337.598 199.658,337.496 206.291,337.186 207.400 C 335.619 213.006,332.082 216.492,326.600 217.833 C 323.947 218.483,316.297 218.004,315.773 217.156 C 315.652 216.960,315.231 216.800,314.838 216.800 C 314.445 216.800,313.798 216.440,313.400 216.000 C 313.002 215.560,312.465 215.200,312.208 215.200 C 309.983 215.200,309.829 212.541,311.801 208.194 C 312.102 207.531,312.535 206.496,312.764 205.894 C 313.150 204.879,314.159 204.408,314.467 205.100 C 315.438 207.285,321.785 207.886,324.062 206.009 C 326.103 204.327,326.116 204.200,326.268 184.400 C 326.343 174.610,326.490 166.370,326.594 166.088 C 326.738 165.700,328.064 165.604,332.092 165.688 L 337.400 165.800 337.517 185.800 M236.643 173.833 C 236.509 174.181,236.400 176.881,236.400 179.833 L 236.400 185.200 234.480 185.200 C 231.833 185.200,231.600 185.561,231.600 189.666 C 231.600 193.652,231.855 194.000,234.774 194.000 L 236.400 194.000 236.400 201.776 C 236.400 206.529,236.556 209.649,236.800 209.800 C 237.020 209.936,237.200 210.404,237.200 210.840 C 237.200 213.244,240.945 217.387,243.945 218.300 C 245.906 218.897,251.050 218.966,251.400 218.400 C 251.536 218.180,252.093 218.000,252.638 218.000 C 255.049 218.000,256.413 215.528,255.233 213.295 C 255.032 212.913,254.560 211.551,254.186 210.269 L 253.506 207.938 251.638 208.195 C 248.522 208.623,248.262 208.053,248.067 200.374 L 247.904 194.000 250.872 194.000 C 254.646 194.000,254.800 193.833,254.800 189.753 C 254.800 185.130,254.852 185.200,251.400 185.200 C 247.847 185.200,248.000 185.488,248.000 178.810 C 248.000 172.727,248.522 173.200,241.810 173.200 C 237.689 173.200,236.846 173.303,236.643 173.833 M247.394 174.500 C 247.510 174.995,247.648 177.650,247.702 180.400 L 247.800 185.400 251.000 185.600 L 254.200 185.800 254.200 189.600 L 254.200 193.400 251.000 193.600 L 247.800 193.800 247.800 200.200 C 247.800 208.045,248.151 208.947,251.120 208.730 C 252.978 208.595,253.018 208.625,253.924 210.800 C 255.902 215.553,255.484 216.929,251.800 217.805 C 249.519 218.347,245.524 218.484,245.076 218.036 C 244.836 217.796,244.344 217.600,243.981 217.600 C 239.230 217.600,237.177 212.797,236.927 201.100 L 236.767 193.600 234.797 193.600 C 232.345 193.600,232.000 193.070,232.000 189.306 C 232.000 186.027,232.332 185.600,234.880 185.600 L 236.800 185.600 236.800 180.233 C 236.800 173.028,236.331 173.600,242.235 173.600 C 247.039 173.600,247.191 173.626,247.394 174.500 M281.400 175.924 C 280.300 175.992,279.229 176.217,279.020 176.424 C 278.811 176.631,278.402 176.800,278.111 176.800 C 276.417 176.800,272.261 181.132,271.012 184.200 C 268.914 189.353,269.889 199.016,272.817 202.091 C 273.294 202.591,273.938 203.378,274.249 203.841 C 274.770 204.616,276.534 205.628,279.319 206.749 C 280.772 207.335,286.441 207.331,287.881 206.744 C 290.934 205.499,291.541 205.125,292.910 203.646 C 298.859 197.216,298.474 184.812,292.134 178.618 C 291.311 177.813,290.680 177.452,288.400 176.481 C 287.235 175.985,284.247 175.747,281.400 175.924 M288.000 176.906 C 296.647 179.957,299.565 193.621,293.431 202.340 C 292.132 204.187,289.485 206.000,288.088 206.000 C 287.626 206.000,287.136 206.180,287.000 206.400 C 286.864 206.620,285.334 206.800,283.600 206.800 C 281.866 206.800,280.336 206.620,280.200 206.400 C 280.064 206.180,279.596 206.000,279.160 206.000 C 276.954 206.000,273.379 202.981,272.116 200.053 C 271.771 199.254,271.294 198.176,271.055 197.659 C 270.436 196.317,270.482 186.558,271.110 185.930 C 271.380 185.660,271.600 185.090,271.600 184.661 C 271.600 183.776,273.872 180.198,275.191 179.007 C 277.822 176.631,284.237 175.578,288.000 176.906 M160.700 184.312 C 159.435 184.382,158.400 184.611,158.400 184.820 C 158.400 185.029,158.140 185.200,157.823 185.200 C 156.038 185.200,151.745 188.751,150.086 191.600 C 149.510 192.590,148.929 193.490,148.796 193.600 C 147.601 194.585,147.023 203.582,147.961 206.600 C 149.763 212.401,153.786 216.449,159.628 218.338 C 163.242 219.507,171.856 218.252,173.007 216.389 C 174.039 214.719,174.375 218.205,173.405 220.526 C 172.594 222.467,170.461 224.396,169.124 224.398 C 168.532 224.399,167.936 224.580,167.800 224.800 C 167.664 225.020,166.764 225.200,165.800 225.200 C 164.836 225.200,163.936 225.020,163.800 224.800 C 163.664 224.580,163.048 224.400,162.430 224.400 C 161.379 224.400,159.946 223.531,158.304 221.900 C 157.335 220.936,157.290 220.947,152.793 223.204 C 148.327 225.445,148.137 225.766,149.766 228.346 C 151.145 230.530,156.187 234.000,157.981 234.000 C 158.344 234.000,158.811 234.166,159.020 234.369 C 159.350 234.689,163.343 235.122,166.400 235.169 C 174.301 235.291,180.530 232.027,183.901 226.000 L 185.355 223.400 185.509 204.643 C 185.634 189.355,185.564 185.824,185.131 185.549 C 184.839 185.364,182.301 185.209,179.490 185.206 L 174.380 185.200 174.140 186.402 L 173.899 187.603 172.650 186.841 C 169.368 184.840,168.495 184.523,165.800 184.357 C 164.260 184.261,161.965 184.241,160.700 184.312 M168.281 185.250 C 170.552 186.163,171.425 186.588,172.462 187.286 C 173.916 188.264,174.326 188.185,174.473 186.900 L 174.600 185.800 179.700 185.688 L 184.800 185.576 184.800 204.355 L 184.800 223.135 183.255 226.067 C 181.729 228.964,179.481 231.187,176.840 232.411 C 176.268 232.676,175.487 233.052,175.105 233.247 C 174.723 233.441,174.059 233.600,173.629 233.600 C 173.199 233.600,172.736 233.780,172.600 234.000 C 172.257 234.554,161.017 234.513,159.228 233.951 C 158.443 233.704,157.487 233.344,157.105 233.151 C 156.723 232.958,156.181 232.800,155.900 232.800 C 154.954 232.800,150.526 228.874,149.839 227.426 C 148.962 225.578,148.989 225.547,153.110 223.564 C 155.030 222.640,156.708 221.827,156.839 221.756 C 156.971 221.685,157.426 221.951,157.850 222.346 C 164.316 228.370,174.400 225.607,174.400 217.811 C 174.400 215.352,174.023 214.870,172.991 216.009 C 172.598 216.444,171.955 216.800,171.562 216.800 C 171.169 216.800,170.748 216.960,170.627 217.156 C 170.114 217.987,161.394 218.754,160.672 218.032 C 160.434 217.794,159.747 217.600,159.144 217.600 C 158.541 217.600,157.936 217.420,157.800 217.200 C 157.664 216.980,157.270 216.800,156.924 216.800 C 156.182 216.800,151.377 212.870,151.056 212.000 C 150.935 211.670,150.377 210.630,149.818 209.689 C 149.258 208.748,148.800 207.634,148.800 207.213 C 148.800 206.792,148.620 206.336,148.400 206.200 C 147.604 205.708,147.928 198.056,148.856 195.427 C 150.292 191.359,153.400 187.624,156.459 186.293 C 157.196 185.972,158.250 185.516,158.800 185.281 C 160.141 184.709,166.879 184.686,168.281 185.250 M130.615 185.842 C 129.680 186.777,129.856 217.013,130.800 217.609 C 132.223 218.508,141.486 218.077,141.748 217.100 C 142.239 215.267,142.028 186.188,141.520 185.680 C 140.730 184.890,131.429 185.028,130.615 185.842 M141.505 201.153 C 141.629 219.356,142.195 217.661,136.041 217.512 L 131.400 217.400 131.295 201.488 L 131.191 185.576 136.295 185.688 L 141.400 185.800 141.505 201.153 M164.000 193.995 C 163.670 194.186,163.093 194.437,162.718 194.552 C 159.360 195.583,158.009 202.725,160.544 206.045 C 166.715 214.127,178.592 205.823,173.439 197.030 C 171.795 194.226,166.526 192.531,164.000 193.995 M170.326 194.810 C 174.787 196.965,175.500 203.624,171.643 207.100 C 169.485 209.044,164.386 209.066,162.193 207.141 C 155.532 201.292,162.349 190.956,170.326 194.810 " stroke="none" fill="#606060" fill-rule="evenodd"></path></g></svg>