<?xml version="1.0" encoding="UTF-8" standalone="no"?>
<svg
   height="256"
   width="794"
   inkscape:version="1.1 (c4e8f9ed74, 2021-05-24)"
   inkscape:export-ydpi="45.000004"
   inkscape:export-xdpi="45.000004"
   inkscape:export-filename="/home/hjr265/Toph/brand/logo/logo-v2_120h.png"
   sodipodi:docname="logo-v2.svg"
   xml:space="preserve"
   viewBox="0 0 794 256"
   y="0px"
   x="0px"
   id="Layer_1"
   version="1.1"
   xmlns:inkscape="http://www.inkscape.org/namespaces/inkscape"
   xmlns:sodipodi="http://sodipodi.sourceforge.net/DTD/sodipodi-0.dtd"
   xmlns="http://www.w3.org/2000/svg"
   xmlns:svg="http://www.w3.org/2000/svg"
   xmlns:rdf="http://www.w3.org/1999/02/22-rdf-syntax-ns#"
   xmlns:cc="http://creativecommons.org/ns#"
   xmlns:dc="http://purl.org/dc/elements/1.1/"><metadata
   id="metadata903"><rdf:RDF><cc:Work
       rdf:about=""><dc:format>image/svg+xml</dc:format><dc:type
         rdf:resource="http://purl.org/dc/dcmitype/StillImage" /><dc:title /></cc:Work></rdf:RDF></metadata><defs
   id="defs901"><rect
   id="rect1356"
   height="385.09039"
   width="325.51656"
   y="-386.15724"
   x="47.218388" />
	
</defs><sodipodi:namedview
   inkscape:showpageshadow="false"
   showborder="true"
   inkscape:document-rotation="0"
   fit-margin-bottom="0"
   fit-margin-right="0"
   fit-margin-left="0"
   fit-margin-top="0"
   inkscape:current-layer="Layer_1"
   inkscape:window-maximized="1"
   inkscape:window-y="0"
   inkscape:window-x="0"
   inkscape:cy="233.56065"
   inkscape:cx="395.5802"
   inkscape:zoom="2.6138821"
   showgrid="true"
   id="namedview899"
   inkscape:window-height="1046"
   inkscape:window-width="956"
   inkscape:pageshadow="2"
   inkscape:pageopacity="0"
   guidetolerance="10"
   gridtolerance="10"
   objecttolerance="10"
   borderopacity="1"
   bordercolor="#666666"
   pagecolor="#ffffff"
   inkscape:pagecheckerboard="0"><inkscape:grid
     type="xygrid"
     id="grid923" /></sodipodi:namedview>
<style
   id="style893"
   type="text/css">
	.st0{fill:#F9F9F9;}
	.st1{enable-background:new    ;}
	.st2{fill:#3E454C;}
</style>


<g
   aria-label="Toph"
   transform="scale(0.99660547,1.0034061)"
   id="text932"
   style="font-size:213.797px;line-height:1.25;letter-spacing:0px;word-spacing:0px;fill:#22313f"><path
     d="m 335.77108,199.73698 q 6.15919,0 10.5437,-4.28012 4.4889,-4.38451 4.4889,-11.37884 V 72.79501 h 33.92775 q 5.21965,0 8.35144,-3.549365 3.13179,-3.549364 3.13179,-8.351445 0,-4.697688 -3.23618,-8.247052 -3.13179,-3.653757 -8.24705,-3.653757 h -97.9207 q -5.21965,0 -8.45584,3.653757 -3.13179,3.549364 -3.13179,8.351445 0,4.802081 3.13179,8.351446 3.13179,3.444971 8.45584,3.444971 h 34.03214 v 111.28301 q 0,6.99433 4.38451,11.37884 4.4889,4.28012 10.5437,4.28012 z"
     style="font-weight:bold;font-family:Nunito;-inkscape-font-specification:'Nunito Bold'"
     id="path17" /><path
     d="m 461.56472,183.03409 q -13.46671,0 -20.98301,-9.39538 -7.5163,-9.39538 -7.5163,-26.30705 0,-17.12046 7.41191,-26.51584 7.5163,-9.49977 21.0874,-9.49977 13.5711,0 21.0874,9.49977 7.5163,9.49977 7.5163,26.51584 0,16.91167 -7.5163,26.30705 -7.5163,9.39538 -21.0874,9.39538 z m 0,17.85121 q 11.06566,0 20.25225,-3.0274 9.18659,-3.0274 15.45018,-8.03826 6.36797,-5.11526 10.64809,-12.00521 4.38451,-6.99433 6.36798,-14.61503 2.08786,-7.62069 2.08786,-15.86774 0,-8.66463 -2.19226,-16.5985 -2.08786,-7.93387 -6.57676,-14.71942 -4.4889,-6.88994 -10.85688,-11.79642 -6.36798,-5.010865 -15.45017,-7.829478 -8.97781,-2.923005 -19.73029,-2.923005 -10.96127,0 -20.14786,3.027398 -9.0822,2.923006 -15.45018,8.038265 -6.26358,5.11526 -10.64809,12.0052 -4.38451,6.88995 -6.47237,14.71943 -1.98347,7.72508 -1.98347,16.07653 0,10.5437 3.34058,19.93907 3.34058,9.39538 9.70856,17.01607 6.47237,7.6207 17.22485,12.1096 10.75249,4.4889 24.42798,4.4889 z"
     style="font-weight:bold;font-family:Nunito;-inkscape-font-specification:'Nunito Bold'"
     id="path19" /><path
     d="m 551.44714,239.19756 q 5.84602,0 9.49977,-3.75816 3.75815,-3.65375 3.75815,-10.4393 v -40.92208 q 10.23052,16.80728 32.98821,16.80728 21.19179,0 33.92775,-14.19746 12.73595,-14.30185 12.73595,-38.83422 0,-15.45017 -5.32404,-27.66416 -5.21966,-12.21399 -15.65896,-19.41711 -10.33492,-7.307513 -24.2192,-7.307513 -24.42797,0 -34.44971,18.164393 v -3.65376 q 0,-6.36797 -3.54936,-9.708552 -3.44497,-3.340579 -9.29098,-3.340579 -5.63723,0 -9.49977,4.07133 -3.86255,4.071331 -3.86255,10.856881 V 225.0001 q 0,6.68115 3.65376,10.4393 3.65376,3.75816 9.29098,3.75816 z m 40.7133,-56.16347 q -9.39538,0 -15.76335,-4.90648 -6.26359,-5.01086 -8.97781,-12.73595 -2.60982,-7.82948 -2.60982,-17.95561 0,-17.95561 6.26358,-27.0378 6.36798,-9.0822 21.40058,-9.0822 5.84601,0 10.4393,2.29665 4.5933,2.29665 7.41191,5.9504 2.92301,3.65376 4.80208,8.56023 1.87908,4.90648 2.60983,9.70856 0.73075,4.80208 0.73075,9.81295 0,5.53283 -0.83514,10.4393 -0.83515,4.90648 -2.81862,9.60417 -1.87907,4.59329 -4.80208,7.93387 -2.923,3.34058 -7.5163,5.42844 -4.59329,1.98347 -10.33491,1.98347 z"
     style="font-weight:bold;font-family:Nunito;-inkscape-font-specification:'Nunito Bold'"
     id="path21" /><path
     d="m 764.40901,133.23859 q 0,-10.12612 -3.13179,-17.9556 -3.13179,-7.82948 -8.56023,-12.42278 -5.32405,-4.697686 -12.10959,-6.994333 -6.68116,-2.40104 -14.40625,-2.40104 -22.86208,0 -33.40578,15.658963 V 63.399634 q 0,-6.785549 -3.75815,-10.5437 -3.65376,-3.75815 -9.49977,-3.75815 -5.74162,0 -9.39537,3.75815 -3.65376,3.758151 -3.65376,10.5437 l 0.10439,121.826706 q 0,6.78555 3.65376,10.64809 3.65376,3.75815 9.39538,3.75815 5.84601,0 9.49976,-3.75815 3.65376,-3.75815 3.65376,-10.64809 v -44.88902 q 0,-12.94474 7.72509,-20.983 7.72509,-8.03827 18.16439,-8.03827 8.56023,0 13.98867,5.74162 5.53284,5.63722 5.53284,16.38971 v 51.77896 q 0,6.78555 3.65375,10.64809 3.75815,3.75815 9.39538,3.75815 5.74162,0 9.39537,-3.75815 3.75815,-3.86254 3.75815,-10.64809 z"
     style="font-weight:bold;font-family:Nunito;-inkscape-font-specification:'Nunito Bold'"
     id="path23" /></g>

<g
   style="stroke-width:1.15188"
   transform="matrix(0.86131857,0,0,0.87499999,15.999999,16.000003)"
   id="g929"><path
     id="path934-4"
     class="st2"
     d="m 96.583285,223.42705 c 3.757705,-10.85715 7.268565,-22.27353 10.537135,-34.25524 3.26705,-11.98019 6.29181,-23.82781 9.07733,-35.54438 2.78248,-11.7181 5.2861,-23.008 7.51543,-33.86819 2.22629,-10.86019 4.14934,-20.592765 5.76915,-29.199241 1.61676,-8.604953 2.92419,-15.791238 3.92228,-21.560381 0.99505,-5.766095 1.64876,-9.44 1.96419,-11.015619 2.78553,1.130667 6.19124,2.602667 10.2141,4.412952 4.02285,1.81181 8.08838,3.702857 12.20114,5.679238 4.10819,1.974858 7.94209,3.887238 11.50171,5.731048 3.5581,1.849905 6.33143,3.40419 8.31696,4.672 -1.44915,8.579047 -3.66629,18.140952 -6.65296,28.682673 -2.98971,10.54628 -6.40914,21.47504 -10.26285,32.79542 -3.85219,11.32343 -7.95886,22.70934 -12.32,34.15924 -4.35962,11.45295 -8.64305,22.33295 -12.84876,32.64 -4.20572,10.30857 -8.128,19.71505 -11.76534,28.22248 -3.63733,8.5059 -6.62552,15.51695 -8.95847,21.02095 -1.94134,-1.00876 -4.36724,-2.42286 -7.27315,-4.24991 -2.90743,-1.82552 -5.87733,-3.66171 -8.905135,-5.50857 -3.02933,-1.85143 -5.830094,-3.58247 -8.406856,-5.19466 z"
     inkscape:connector-curvature="0"
     style="fill:#0099ef;fill-opacity:0.941176;stroke-width:1.15188"
     sodipodi:nodetypes="ccccccccccccccccccccc" /><path
     sodipodi:nodetypes="cccccccccccccccccccccc"
     style="fill:#22313f;fill-opacity:1;stroke-width:1.15188"
     inkscape:connector-curvature="0"
     d="m 66.107098,223.42705 c 3.757714,-10.85715 7.268571,-22.27353 10.537147,-34.25524 3.26704,-11.98019 6.291815,-23.82781 9.077335,-35.54438 2.78248,-11.7181 5.28609,-23.008 7.51543,-33.86819 2.22628,-10.86019 4.14933,-20.592765 5.76914,-29.199241 1.61675,-8.604953 2.92418,-15.791238 3.92227,-21.560381 0.99505,-5.766095 1.64876,-9.44 1.96419,-11.015619 2.78553,1.130667 6.19124,2.602667 10.2141,4.412952 4.02285,1.81181 8.08838,3.702857 12.20114,5.679238 4.10819,1.974858 7.94209,3.887238 11.50171,5.731048 3.5581,1.849905 6.33143,3.40419 8.31696,4.672 -1.44915,8.579047 -3.66629,18.140952 -6.65296,28.682673 -2.98971,10.54628 -6.40914,21.47504 -10.26285,32.79542 -3.85219,11.32343 -7.95886,22.70934 -12.32,34.15924 -4.35962,11.45295 -8.64305,22.33295 -12.84876,32.64 -4.20572,10.30857 -8.12799,19.71505 -11.76532,28.22248 -3.63734,8.5059 -6.62553,15.51695 -8.95848,21.02095 -1.94133,-1.00876 -4.367245,-2.42286 -7.273145,-4.24991 -2.90743,-1.82552 -5.877336,-3.66171 -8.905145,-5.50857 -3.029333,-1.85143 -5.830095,-3.58247 -8.406857,-5.19466 -2.576762,-1.61677 -4.455619,-2.76877 -5.635048,-3.45753 z"
     class="st2"
     id="XMLID_55_-9" /><path
     sodipodi:nodetypes="ccccccccccccccccccccc"
     id="XMLID_55_-9-9"
     class="st2"
     d="m 21.71852,84.182852 c 6.72762,9.578666 12.448,19.113148 17.16267,28.592768 4.7101,9.48114 8.68267,18.59809 11.91467,27.34932 3.23047,8.75429 5.82095,17.03468 7.77143,24.8442 1.948946,7.81257 3.478852,14.88914 4.583613,21.23123 1.045334,5.99772 1.793524,11.30668 2.246095,15.92838 0.452572,4.62019 0.713144,8.49525 0.78781,11.61448 0.178286,3.73029 0.15238,6.95619 -0.07771,9.68382 l -6.374095,17.6198 c -2.576763,-1.61676 -4.455623,-2.76876 -5.635053,-3.45753 0.0457,-1.0819 0.16,-2.96227 0.34286,-5.63352 0.17981,-2.66971 0.24838,-5.99466 0.20419,-9.9718 -0.0472,-3.97563 -0.288,-8.56533 -0.72381,-13.77373 -0.43733,-5.20533 -1.19924,-10.93942 -2.29028,-17.1977 C 50.389,183.88724 48.65034,176.28648 46.421,168.21028 44.19015,160.13714 41.13034,151.86894 37.24462,143.40876 33.35738,134.94857 28.42481,126.40152 22.44843,117.76457 16.469,109.12914 9.1638598,100.63543 0.52995979,92.278852 l -0.19505,-0.100572 -0.28495,-0.621714 z"
     inkscape:connector-curvature="0"
     style="fill:#e7ecf1;fill-opacity:1;stroke-width:1.15188" /><path
     sodipodi:nodetypes="ccccccccccccccccccccccccsccc"
     id="XMLID_55_-9-0"
     class="st2"
     d="m 243.81223,29.528375 c -5.62895,0.793905 -11.32191,1.554287 -17.07886,2.281144 -5.76,0.728381 -11.91619,1.523809 -18.47314,2.387809 -6.55848,0.865525 -13.7661,1.889525 -21.62133,3.067429 -7.85829,1.180953 -16.69791,2.619428 -26.52343,4.318475 -12.56991,2.174478 -24.69486,4.518096 -36.37791,7.027811 -11.68457,2.514285 -23.18323,5.418666 -34.49446,8.719237 -11.312765,3.299048 -22.534101,7.119239 -33.66248,11.462096 -11.13295,4.341333 -33.8621,15.390476 -33.8621,15.390476 l -21.18856021,8.096 c -0.11581,0.02132 -0.17981,-0.01373 -0.19505,-0.100572 -0.12952,-0.06552 -0.224,-0.274285 -0.28495,-0.621714 -0.15086,-0.868571 0.0396,-2.130286 0.576,-3.791238 0.53333001,-1.659429 1.30285001,-3.494096 2.30704001,-5.504 1.00115,-2.006857 2.12115,-4.035048 3.35239,-6.084571 1.23123,-2.048 2.4198,-3.843048 3.56419,-5.385143 C 10.32958,70.171423 12.85453,68.460184 17.429,65.654852 21.99738,62.849519 28.36234,59.3539 36.52081,55.167995 44.67472,50.983614 54.4591,46.337519 65.869383,41.22971 77.276625,36.1219 90.01263,31.032375 104.07585,25.959615 118.13756,20.8899 133.39396,16.07771 149.84499,11.532185 166.29299,6.988186 183.60194,3.142091 201.76881,-4e-6 c 0.91885,0.560762 2.40609,1.488762 4.45713,2.790095 2.04953,1.304381 4.40381,2.820571 7.06134,4.553143 2.65601,1.7356187 5.48571,3.617524 8.48762,5.650286 3.0019,2.03276 5.91238,4.036571 8.72685,6.012951 2.81753,1.976382 5.38362,3.882666 7.70591,5.717334 2.32076,1.837714 4.18895,3.437714 5.60457,4.80457 z"
     inkscape:connector-curvature="0"
     style="fill:#22313f;fill-opacity:1;stroke-width:1.15188" /></g><text
   style="fill:black;fill-opacity:1;line-height:1.25;stroke:none;font-family:sans-serif;font-style:normal;font-weight:normal;font-size:40px;white-space:pre;shape-inside:url(#rect1356)"
   id="text1354"
   xml:space="preserve" /></svg>
