<?xml version="1.0" standalone="no"?>
<!DOCTYPE svg PUBLIC "-//W3C//DTD SVG 20010904//EN"
 "http://www.w3.org/TR/2001/REC-SVG-20010904/DTD/svg10.dtd">
<svg version="1.0" xmlns="http://www.w3.org/2000/svg"
 width="695.000000pt" height="695.000000pt" viewBox="0 0 695.000000 695.000000"
 preserveAspectRatio="xMidYMid meet">

<g transform="translate(0.000000,695.000000) scale(0.100000,-0.100000)"
fill="#000000" stroke="none">
<path d="M0 3475 l0 -3475 3475 0 3475 0 0 3475 0 3475 -3475 0 -3475 0 0
-3475z m1790 243 c0 -450 3 -580 15 -646 21 -120 60 -179 151 -229 44 -24 62
-27 171 -31 113 -4 126 -2 175 20 65 30 114 77 142 137 20 45 21 59 24 679 l3
632 182 -2 182 -3 0 -585 c-1 -673 -8 -762 -68 -893 -41 -87 -73 -127 -149
-183 -135 -99 -331 -136 -602 -114 -196 15 -291 52 -403 154 -115 105 -156
205 -172 423 -6 76 -11 378 -11 671 l0 532 180 0 180 0 0 -562z m1496 554 c6
-4 15 -22 19 -40 4 -18 13 -45 21 -60 8 -15 14 -33 14 -40 0 -8 6 -28 14 -45
8 -18 19 -48 25 -67 15 -52 42 -132 51 -155 11 -25 117 -335 135 -395 15 -47
85 -247 102 -290 6 -14 14 -40 18 -58 4 -18 13 -45 21 -60 8 -15 14 -34 14
-42 0 -26 18 9 36 70 9 30 22 69 30 87 8 17 14 36 14 42 0 11 45 153 60 186 9
22 34 96 55 165 7 25 18 59 24 75 6 17 56 165 110 330 l99 300 191 3 c105 1
191 -1 191 -5 0 -15 -28 -98 -103 -303 -19 -52 -51 -142 -72 -200 -20 -58 -40
-114 -45 -125 -5 -11 -25 -65 -44 -120 -19 -55 -53 -152 -76 -215 -23 -63 -47
-133 -55 -155 -26 -76 -46 -130 -55 -150 -4 -11 -22 -60 -39 -110 -17 -49 -42
-121 -57 -160 -14 -38 -30 -84 -35 -102 -5 -18 -16 -45 -24 -60 -8 -15 -15
-34 -15 -40 0 -10 -46 -13 -194 -13 l-194 0 -17 48 c-10 26 -21 56 -26 67 -5
11 -15 40 -23 65 -8 25 -33 97 -56 160 -23 63 -48 133 -55 155 -8 22 -26 72
-40 110 -14 39 -30 84 -35 100 -5 17 -14 39 -19 50 -5 11 -23 61 -40 110 -17
50 -42 122 -57 160 -14 39 -31 88 -39 110 -13 40 -53 152 -134 375 -60 166
-81 228 -81 240 0 12 368 14 386 2z m1904 -467 c175 -46 261 -134 282 -288 5
-40 9 -207 9 -372 -2 -312 11 -477 43 -540 8 -16 18 -42 21 -58 l7 -27 -168 2
-169 3 -12 35 c-27 81 -32 91 -45 80 -7 -6 -26 -22 -43 -36 -16 -13 -64 -41
-105 -62 l-75 -37 -155 0 -155 0 -63 33 c-76 40 -132 94 -169 164 -25 49 -28
62 -28 168 0 103 3 120 25 165 14 28 46 71 71 97 68 68 151 101 384 149 83 17
170 37 195 44 25 8 58 16 74 20 28 6 28 7 24 66 -3 38 -11 69 -24 87 -41 55
-190 79 -286 46 -52 -17 -67 -31 -100 -94 l-24 -45 -114 18 c-63 10 -132 20
-152 24 -33 4 -38 9 -38 32 0 54 81 189 145 243 44 36 121 70 204 89 109 24
339 21 441 -6z"/>
<path d="M5067 3105 c-22 -7 -69 -18 -105 -25 -102 -18 -184 -48 -219 -83 -30
-28 -33 -36 -33 -93 0 -53 4 -67 26 -94 36 -42 94 -70 146 -70 58 0 146 34
186 73 55 52 65 81 70 200 5 121 6 120 -71 92z"/>
</g>
</svg>
