<svg id="svg" version="1.1" xmlns="http://www.w3.org/2000/svg" xmlns:xlink="http://www.w3.org/1999/xlink" width="400" height="281.25" viewBox="0, 0, 400,281.25"><g id="svgg"><path id="path0" d="M99.791 6.945 C 99.325 7.066,99.300 12.159,99.298 106.349 L 99.295 205.626 199.296 205.626 L 299.297 205.626 299.297 107.052 L 299.297 8.478 298.664 8.388 C 298.268 8.332,297.999 8.072,297.945 7.694 C 297.896 7.354,297.589 7.017,297.242 6.924 C 296.526 6.732,100.525 6.752,99.791 6.945 M299.015 107.203 C 299.015 194.002,298.968 205.063,298.594 205.063 C 298.219 205.063,298.172 193.984,298.172 107.041 C 298.172 20.026,298.219 9.037,298.594 9.181 C 298.967 9.324,299.015 20.476,299.015 107.203 M228.840 83.655 C 229.527 84.158,228.596 88.133,226.981 91.592 C 226.684 92.228,226.442 93.054,226.442 93.428 C 226.442 93.802,226.232 94.407,225.976 94.773 C 225.720 95.139,225.403 96.012,225.272 96.713 C 225.141 97.414,224.858 98.188,224.643 98.431 C 224.428 98.675,224.159 99.444,224.045 100.139 C 223.931 100.835,223.600 101.845,223.311 102.385 C 223.022 102.925,222.779 103.749,222.772 104.215 C 222.766 104.682,222.566 105.570,222.329 106.188 C 222.092 106.807,221.736 108.010,221.538 108.861 C 221.339 109.712,220.976 110.851,220.731 111.392 C 220.485 111.934,220.211 112.839,220.121 113.404 C 220.031 113.968,219.777 114.580,219.556 114.763 C 219.336 114.946,219.071 115.686,218.967 116.408 C 218.863 117.131,218.604 117.921,218.391 118.165 C 218.178 118.409,217.893 119.204,217.757 119.933 C 217.620 120.662,217.304 121.485,217.053 121.762 C 216.802 122.040,216.596 122.641,216.596 123.099 C 216.596 123.557,216.344 124.426,216.036 125.030 C 215.728 125.634,215.404 126.579,215.315 127.129 C 215.037 128.858,213.728 132.890,213.277 133.408 C 212.672 134.103,198.087 134.033,197.745 133.333 C 197.142 132.101,196.258 129.688,196.071 128.767 C 195.954 128.190,195.726 127.557,195.564 127.361 C 195.402 127.165,195.079 126.308,194.846 125.457 C 194.613 124.606,194.290 123.530,194.127 123.066 C 193.330 120.793,192.448 117.595,192.317 116.504 C 192.237 115.835,191.960 115.053,191.702 114.768 C 191.444 114.483,191.163 113.701,191.079 113.032 C 190.995 112.362,190.706 111.561,190.436 111.252 C 190.167 110.942,189.870 110.183,189.776 109.564 C 189.682 108.945,189.350 107.937,189.036 107.324 C 188.723 106.712,188.467 105.936,188.467 105.601 C 188.467 105.266,188.287 104.842,188.067 104.660 C 187.847 104.477,187.580 103.797,187.473 103.148 C 187.366 102.500,187.093 101.526,186.866 100.985 C 186.180 99.349,185.029 95.314,184.793 93.716 C 184.670 92.890,184.382 92.004,184.152 91.747 C 183.921 91.490,183.643 90.774,183.532 90.155 C 183.422 89.536,183.175 88.840,182.982 88.608 C 182.789 88.376,182.545 87.679,182.440 87.060 C 182.143 85.314,181.991 84.951,181.556 84.951 C 181.335 84.951,181.153 84.786,181.153 84.585 C 181.153 83.623,181.749 83.544,189.079 83.544 L 196.330 83.544 196.810 84.277 C 197.074 84.680,197.515 85.977,197.789 87.160 C 198.063 88.343,198.438 89.880,198.621 90.577 C 199.943 95.592,200.281 97.110,200.281 98.036 C 200.281 98.615,200.523 99.484,200.819 99.967 C 201.115 100.449,201.447 101.477,201.557 102.250 C 201.667 103.024,201.917 103.847,202.113 104.079 C 202.310 104.311,202.562 105.070,202.673 105.767 C 202.784 106.463,203.115 107.563,203.407 108.212 C 203.699 108.861,203.941 109.748,203.944 110.181 C 203.948 110.615,204.183 111.482,204.467 112.108 C 204.751 112.734,205.074 113.968,205.185 114.851 C 205.415 116.695,205.796 116.932,206.071 115.401 C 206.175 114.821,206.460 114.117,206.705 113.837 C 206.972 113.531,207.230 112.487,207.351 111.219 C 207.462 110.059,207.668 108.959,207.809 108.775 C 208.063 108.442,208.520 106.446,208.869 104.151 C 208.969 103.494,209.151 102.894,209.275 102.818 C 209.398 102.742,209.657 101.823,209.851 100.777 C 210.044 99.731,210.358 98.558,210.547 98.172 C 210.737 97.785,210.977 96.915,211.081 96.238 C 211.185 95.561,211.519 94.460,211.823 93.792 C 212.128 93.123,212.377 92.185,212.377 91.707 C 212.377 91.229,212.567 90.548,212.799 90.193 C 213.032 89.839,213.360 88.799,213.529 87.883 C 213.698 86.966,214.032 85.837,214.272 85.373 C 214.511 84.909,214.798 84.339,214.908 84.107 C 215.075 83.758,216.173 83.659,221.268 83.536 C 224.655 83.454,227.623 83.359,227.865 83.325 C 228.106 83.291,228.545 83.440,228.840 83.655 M152.124 83.882 C 152.378 84.136,152.461 87.937,152.461 99.260 C 152.461 114.364,152.626 117.472,153.479 118.447 C 153.693 118.691,153.868 119.015,153.868 119.167 C 153.868 119.691,155.624 121.238,156.222 121.239 C 156.552 121.240,157.184 121.430,157.627 121.661 C 159.993 122.895,164.375 120.613,164.986 117.829 C 165.089 117.362,165.350 116.641,165.566 116.226 C 165.890 115.606,165.960 112.703,165.962 99.953 C 165.963 91.418,166.040 84.234,166.134 83.989 C 166.356 83.410,179.680 83.309,180.253 83.882 C 181.153 84.781,180.557 118.556,179.609 120.388 C 179.402 120.789,179.145 121.583,179.038 122.153 C 178.931 122.723,178.604 123.466,178.311 123.804 C 178.018 124.141,177.778 124.597,177.778 124.816 C 177.778 125.034,177.461 125.628,177.075 126.135 C 176.688 126.642,176.371 127.189,176.371 127.350 C 176.371 127.840,172.697 131.364,172.186 131.364 C 172.051 131.364,171.784 131.552,171.593 131.782 C 170.737 132.813,168.237 133.828,166.047 134.032 C 164.841 134.145,163.045 134.406,162.057 134.612 C 160.757 134.884,159.670 134.919,158.119 134.739 C 156.941 134.602,154.712 134.342,153.165 134.161 C 151.533 133.971,149.997 133.625,149.508 133.338 C 149.044 133.066,148.314 132.761,147.886 132.660 C 146.987 132.448,146.705 132.229,143.715 129.425 C 141.578 127.421,140.389 125.815,139.946 124.332 C 139.831 123.945,139.466 123.059,139.137 122.363 C 138.559 121.143,137.980 85.318,138.515 83.923 C 138.714 83.404,151.607 83.365,152.124 83.882 M249.855 96.087 C 252.507 96.234,253.276 96.373,253.766 96.799 C 254.101 97.090,254.590 97.328,254.852 97.328 C 255.113 97.328,255.695 97.644,256.145 98.031 C 256.594 98.417,257.149 98.734,257.379 98.734 C 257.859 98.734,260.197 101.149,260.197 101.645 C 260.197 101.828,260.482 102.482,260.830 103.098 C 261.449 104.196,261.466 104.458,261.615 115.612 C 261.745 125.318,261.840 127.263,262.262 128.755 C 262.553 129.784,262.722 131.174,262.672 132.130 L 262.588 133.755 257.064 133.831 L 251.539 133.908 250.886 132.847 C 250.527 132.264,250.061 131.406,249.851 130.942 C 249.526 130.223,249.420 130.161,249.134 130.520 C 248.708 131.057,246.848 132.482,245.570 133.252 C 244.984 133.605,243.617 133.979,242.194 134.176 C 240.879 134.358,239.319 134.574,238.728 134.655 C 237.232 134.861,233.021 133.948,231.533 133.096 C 229.777 132.090,227.287 129.455,227.284 128.598 C 227.283 128.340,227.030 127.750,226.723 127.286 C 224.743 124.296,227.648 114.768,230.539 114.768 C 230.719 114.768,231.168 114.534,231.537 114.248 C 231.906 113.962,232.774 113.639,233.467 113.531 C 234.159 113.423,234.945 113.136,235.213 112.893 C 235.482 112.650,236.308 112.387,237.049 112.308 C 237.790 112.229,238.589 111.998,238.823 111.794 C 239.058 111.591,240.120 111.285,241.183 111.115 C 242.247 110.945,243.381 110.622,243.703 110.396 C 244.025 110.171,244.584 109.986,244.946 109.986 C 247.689 109.986,249.526 107.664,247.943 106.197 C 246.693 105.039,242.566 105.063,241.594 106.234 C 241.422 106.441,241.112 106.610,240.905 106.610 C 240.698 106.610,240.393 107.112,240.228 107.724 C 239.974 108.669,239.790 108.863,239.022 109.003 C 237.730 109.237,231.231 108.700,230.860 108.328 C 230.688 108.157,230.213 108.017,229.803 108.017 C 227.401 108.017,226.372 105.865,227.944 104.128 C 228.197 103.848,228.482 103.230,228.578 102.752 C 228.922 101.031,232.603 97.753,234.736 97.268 C 235.352 97.128,236.048 96.841,236.283 96.631 C 236.747 96.213,243.084 95.633,245.288 95.806 C 245.985 95.861,248.039 95.987,249.855 96.087 M246.976 117.700 C 246.435 117.888,245.521 118.254,244.946 118.514 C 244.371 118.774,243.738 118.988,243.539 118.989 C 243.341 118.990,242.799 119.243,242.335 119.550 C 241.871 119.857,241.301 120.110,241.069 120.111 C 239.517 120.118,238.693 122.993,239.909 124.158 C 243.665 127.756,250.403 122.722,248.493 117.745 C 248.299 117.239,248.306 117.239,246.976 117.700 M138.115 222.105 C 138.115 222.350,138.266 222.500,138.449 222.439 C 138.971 222.265,139.057 221.660,138.561 221.660 C 138.316 221.660,138.115 221.860,138.115 222.105 M138.115 225.726 C 138.115 226.402,138.175 226.461,138.551 226.149 C 138.790 225.951,138.885 225.712,138.762 225.619 C 138.638 225.526,138.442 225.336,138.326 225.196 C 138.210 225.056,138.115 225.294,138.115 225.726 M131.301 226.558 C 130.880 226.868,130.867 226.986,131.203 227.446 C 131.771 228.222,137.593 228.385,137.867 227.632 C 138.168 226.806,137.895 226.723,134.887 226.723 C 133.285 226.723,131.932 226.605,131.880 226.461 C 131.828 226.317,131.568 226.361,131.301 226.558 M329.395 233.853 C 329.395 234.412,329.537 234.599,329.958 234.599 C 330.267 234.599,330.520 234.555,330.520 234.502 C 330.520 234.448,330.267 234.112,329.958 233.755 L 329.395 233.107 329.395 233.853 M284.669 238.256 C 284.669 238.565,284.792 238.819,284.942 238.819 C 285.092 238.819,285.142 238.629,285.052 238.397 C 284.963 238.165,284.971 237.975,285.070 237.975 C 285.169 237.975,285.365 238.259,285.505 238.608 C 285.749 239.216,285.760 239.211,285.777 238.467 C 285.790 237.875,285.663 237.693,285.232 237.693 C 284.857 237.693,284.669 237.881,284.669 238.256 M108.146 251.336 C 108.146 257.989,108.183 260.670,108.228 257.295 C 108.273 253.919,108.272 248.476,108.227 245.199 C 108.183 241.922,108.146 244.684,108.146 251.336 M107.302 251.758 C 107.302 258.179,107.339 260.805,107.384 257.595 C 107.429 254.385,107.429 249.132,107.384 245.921 C 107.339 242.711,107.302 245.338,107.302 251.758 M284.514 249.367 C 284.514 254.473,284.552 256.601,284.599 254.097 C 284.645 251.592,284.645 247.415,284.599 244.814 C 284.552 242.213,284.514 244.262,284.514 249.367 M284.521 259.491 C 284.802 260.715,285.795 261.130,285.795 260.023 C 285.795 259.791,285.677 259.674,285.533 259.763 C 285.388 259.852,285.058 259.638,284.799 259.287 L 284.327 258.650 284.521 259.491 M285.905 277.238 C 285.999 277.483,286.076 277.736,286.076 277.801 C 286.076 277.865,286.266 277.918,286.498 277.918 C 286.732 277.918,286.920 277.668,286.920 277.356 C 286.920 276.971,286.732 276.793,286.327 276.793 C 285.902 276.793,285.783 276.919,285.905 277.238 " stroke="none" fill="#c31a54" fill-rule="evenodd"></path><path id="path1" d="M297.938 7.643 C 298.000 8.080,298.249 8.329,298.686 8.391 C 299.232 8.468,299.326 8.374,299.249 7.828 C 299.187 7.391,298.938 7.142,298.501 7.080 C 297.955 7.003,297.861 7.097,297.938 7.643 M67.996 212.658 C 67.589 212.979,66.855 213.221,66.291 213.221 C 64.278 213.221,64.416 211.262,64.416 239.823 L 64.416 265.541 65.049 265.571 C 65.397 265.588,66.047 265.576,66.492 265.546 C 67.232 265.496,67.287 265.555,67.120 266.220 L 66.937 266.948 76.225 266.948 L 85.513 266.948 85.513 266.245 C 85.513 265.599,85.617 265.541,86.779 265.541 L 88.045 265.541 88.045 263.448 C 88.045 262.297,88.172 261.277,88.326 261.181 C 88.510 261.068,88.608 253.730,88.608 240.084 C 88.608 226.439,88.510 219.101,88.326 218.987 C 88.172 218.892,88.045 217.808,88.045 216.580 C 88.045 214.014,87.574 213.221,86.050 213.221 C 85.572 213.221,84.858 212.968,84.465 212.658 C 83.790 212.128,83.324 212.096,76.231 212.096 C 69.138 212.096,68.671 212.128,67.996 212.658 M120.320 212.844 L 119.269 213.592 119.273 239.918 C 119.275 254.398,119.380 266.407,119.506 266.605 C 119.677 266.874,120.623 266.946,123.229 266.887 L 126.723 266.807 126.795 240.014 L 126.866 213.221 126.229 213.221 C 125.879 213.221,125.434 212.968,125.241 212.658 C 124.670 211.744,121.709 211.856,120.320 212.844 M222.504 212.371 C 222.135 212.604,222.072 215.594,222.006 235.995 L 221.931 259.353 218.139 259.353 L 214.346 259.353 214.346 253.607 C 214.346 246.523,214.623 246.976,210.284 246.976 L 207.106 246.976 206.932 248.031 C 206.313 251.772,206.812 265.541,207.566 265.541 C 207.818 265.541,208.149 265.826,208.302 266.174 L 208.579 266.807 217.515 266.882 L 226.450 266.956 226.772 266.249 C 226.950 265.860,227.327 265.541,227.612 265.541 C 227.931 265.541,228.129 265.339,228.129 265.012 C 228.129 264.718,228.381 264.416,228.692 264.335 C 229.249 264.189,229.255 263.951,229.255 238.704 L 229.255 213.221 228.614 213.221 C 228.261 213.221,227.756 212.968,227.491 212.658 C 226.961 212.039,223.357 211.832,222.504 212.371 M274.052 212.729 L 273.146 213.361 273.141 222.574 L 273.136 231.786 270.253 231.789 C 265.969 231.792,264.416 232.027,264.416 232.669 C 264.416 233.094,264.200 233.193,263.265 233.193 C 262.368 233.193,262.082 233.312,261.973 233.729 C 261.896 234.024,261.591 234.329,261.296 234.406 C 260.880 234.515,260.759 234.801,260.759 235.678 C 260.759 236.638,260.663 236.824,260.127 236.900 L 259.494 236.990 259.421 249.969 L 259.347 262.947 260.053 263.125 C 260.659 263.277,260.759 263.461,260.759 264.422 C 260.759 265.429,260.830 265.541,261.463 265.541 C 261.905 265.541,262.166 265.700,262.166 265.970 C 262.166 266.206,262.491 266.523,262.888 266.674 C 263.604 266.946,272.193 267.034,271.519 266.762 C 270.599 266.391,271.160 265.541,272.325 265.541 C 273.409 265.541,273.475 265.587,273.349 266.245 L 273.214 266.948 276.799 266.948 C 280.279 266.948,280.389 266.929,280.554 266.315 C 280.777 265.485,280.783 214.245,280.561 213.666 C 280.467 213.421,280.087 213.221,279.717 213.221 C 279.329 213.221,279.044 213.055,279.044 212.829 C 279.044 211.847,275.417 211.774,274.052 212.729 M80.731 239.381 L 80.731 259.353 75.668 259.353 L 70.605 259.353 70.605 239.381 L 70.605 219.409 75.668 219.409 L 80.731 219.409 80.731 239.381 M131.474 219.685 C 130.788 219.962,130.521 221.453,130.608 224.520 C 130.666 226.581,130.852 226.983,131.498 226.447 C 131.764 226.227,131.927 226.205,131.927 226.390 C 131.927 226.576,133.084 226.721,135.022 226.776 L 138.116 226.864 138.116 225.938 C 138.115 225.160,138.178 225.071,138.509 225.376 C 138.789 225.633,138.818 225.842,138.610 226.097 C 138.448 226.294,138.389 226.528,138.478 226.617 C 139.471 227.610,139.590 221.909,138.608 220.393 L 137.975 219.416 135.021 219.431 C 133.397 219.438,131.800 219.553,131.474 219.685 M138.895 221.994 C 138.721 222.515,138.115 222.602,138.115 222.105 C 138.115 221.860,138.316 221.660,138.561 221.660 C 138.806 221.660,138.956 221.810,138.895 221.994 M94.233 232.034 L 93.249 232.208 93.249 249.508 L 93.249 266.807 96.906 266.807 L 100.563 266.807 100.636 253.094 L 100.709 239.381 104.506 239.381 L 108.304 239.381 108.231 252.250 L 108.158 265.120 107.506 265.049 C 106.833 264.977,106.830 265.811,107.500 266.526 C 107.957 267.013,115.020 266.887,115.336 266.385 C 115.628 265.923,115.729 235.794,115.441 235.044 C 115.347 234.799,115.108 234.599,114.909 234.599 C 114.710 234.599,114.468 234.283,114.371 233.896 C 114.257 233.442,113.997 233.193,113.637 233.193 C 113.281 233.193,113.080 233.003,113.080 232.667 C 113.080 232.037,111.945 231.793,109.001 231.791 C 105.196 231.789,103.235 232.088,103.235 232.671 C 103.235 233.436,100.833 233.438,100.633 232.673 C 100.423 231.870,97.062 231.535,94.233 232.034 M131.927 232.034 L 130.942 232.208 130.870 249.404 L 130.797 266.600 131.432 266.770 C 131.782 266.864,133.419 266.942,135.071 266.944 C 139.668 266.950,139.241 268.716,139.241 249.698 L 139.241 233.931 138.618 233.022 C 137.791 231.816,135.270 231.444,131.927 232.034 M144.093 231.990 L 143.179 232.103 143.179 249.526 L 143.179 266.948 146.835 266.948 L 150.492 266.948 150.492 253.165 L 150.492 239.381 153.724 239.381 L 156.957 239.381 157.030 253.094 L 157.103 266.807 160.689 266.886 L 164.276 266.965 164.276 250.641 C 164.276 234.505,164.269 234.318,163.713 234.318 C 163.338 234.318,163.150 234.130,163.150 233.755 C 163.150 233.446,163.018 233.193,162.856 233.193 C 162.695 233.193,162.229 232.859,161.821 232.451 L 161.080 231.710 157.318 231.854 C 153.984 231.981,153.485 232.065,152.921 232.595 C 152.091 233.374,150.492 233.423,150.492 232.668 C 150.492 231.900,147.431 231.575,144.093 231.990 M171.909 231.992 C 171.283 232.069,170.917 232.286,170.826 232.634 C 170.750 232.924,170.416 233.200,170.084 233.247 C 169.646 233.310,169.454 233.565,169.386 234.177 C 169.334 234.641,169.093 235.243,168.850 235.513 C 168.448 235.961,168.450 236.052,168.873 236.520 C 169.476 237.186,169.604 262.262,169.001 261.660 C 168.126 260.785,168.080 262.873,168.953 263.876 C 169.165 264.120,169.339 264.595,169.339 264.931 C 169.339 265.395,169.508 265.541,170.042 265.541 C 170.605 265.541,170.745 265.682,170.745 266.245 L 170.745 266.948 178.793 266.948 L 186.840 266.948 186.664 266.245 C 186.493 265.565,186.534 265.541,187.899 265.541 L 189.311 265.541 189.311 260.093 L 189.311 254.645 188.256 254.470 C 186.915 254.249,184.577 254.247,183.755 254.467 C 183.148 254.630,183.122 254.761,183.122 257.698 L 183.122 260.759 179.255 260.742 C 176.653 260.730,175.594 260.641,176.020 260.469 C 176.774 260.166,177.035 252.522,176.301 252.226 C 176.108 252.148,178.458 252.074,181.523 252.062 C 187.079 252.039,188.186 251.871,188.186 251.045 C 188.186 250.818,188.441 250.633,188.752 250.633 C 189.310 250.633,189.318 250.491,189.245 241.983 L 189.170 233.333 187.975 233.247 C 187.038 233.179,186.779 233.049,186.779 232.649 C 186.779 232.302,186.498 232.082,185.900 231.962 C 184.960 231.774,173.489 231.799,171.909 231.992 M234.318 232.034 L 233.333 232.208 233.261 248.197 C 233.189 264.003,233.195 264.188,233.753 264.334 C 234.064 264.415,234.318 264.647,234.318 264.849 C 234.318 265.052,234.707 265.606,235.183 266.082 L 236.049 266.948 240.739 266.910 C 243.318 266.889,245.144 266.816,244.796 266.749 C 243.117 266.426,244.090 265.541,246.125 265.541 L 248.087 265.541 247.820 266.245 L 247.553 266.948 250.921 266.948 L 254.290 266.948 254.290 249.541 L 254.290 232.133 253.657 231.964 C 251.885 231.489,247.679 231.957,247.221 232.680 C 247.091 232.885,246.983 238.962,246.980 246.186 L 246.976 259.319 243.741 259.406 L 240.505 259.494 240.506 245.816 L 240.506 232.138 239.627 231.962 C 238.578 231.752,235.693 231.791,234.318 232.034 M289.490 231.992 C 288.853 232.070,288.498 232.285,288.403 232.650 C 288.312 232.995,288.016 233.193,287.590 233.193 C 287.121 233.193,286.920 233.352,286.920 233.722 C 286.920 234.015,286.669 234.318,286.359 234.399 C 286.050 234.480,285.710 234.779,285.604 235.065 C 285.497 235.350,285.192 235.741,284.926 235.932 C 284.568 236.190,284.448 236.665,284.465 237.761 C 284.478 238.575,284.537 238.892,284.597 238.467 C 284.674 237.927,284.871 237.693,285.251 237.693 C 285.826 237.693,286.140 260.231,285.570 260.584 C 285.276 260.766,284.799 260.445,284.577 259.916 C 284.480 259.684,284.452 260.171,284.513 261.000 C 284.593 262.060,284.799 262.666,285.210 263.050 C 285.532 263.349,285.795 263.779,285.795 264.005 C 285.795 264.231,286.048 264.416,286.357 264.416 C 286.732 264.416,286.920 264.604,286.920 264.979 C 286.920 265.391,287.107 265.541,287.623 265.541 C 288.066 265.541,288.326 265.700,288.326 265.970 C 288.326 266.206,288.651 266.523,289.048 266.674 C 289.992 267.033,289.956 267.053,289.802 266.245 C 289.686 265.640,289.770 265.541,290.403 265.541 C 291.184 265.541,291.370 266.042,290.802 266.610 C 290.539 266.873,291.446 266.948,294.880 266.948 L 299.297 266.948 299.297 270.042 L 299.297 273.136 295.865 273.136 C 293.196 273.136,292.508 273.061,292.771 272.799 C 293.580 271.990,292.961 268.953,291.868 268.368 C 290.990 267.898,285.406 268.067,284.894 268.579 C 284.040 269.433,284.352 276.512,285.244 276.512 C 285.367 276.512,285.552 276.892,285.654 277.356 C 285.770 277.885,286.016 278.200,286.312 278.200 C 286.572 278.200,286.943 278.453,287.136 278.762 C 287.669 279.616,302.920 279.639,303.772 278.788 C 304.067 278.492,304.542 278.206,304.827 278.152 C 305.263 278.069,305.358 277.733,305.427 276.017 C 305.490 274.459,305.606 273.980,305.919 273.980 C 306.145 273.980,306.332 273.822,306.337 273.629 C 306.558 263.138,306.241 234.406,305.900 234.028 C 305.672 233.776,305.485 233.248,305.485 232.854 C 305.485 232.021,304.741 231.784,302.145 231.790 C 300.025 231.795,299.297 232.018,299.297 232.663 C 299.297 233.363,298.265 233.369,298.043 232.669 C 297.802 231.909,293.169 231.542,289.490 231.992 M313.419 232.104 C 312.908 232.251,312.420 232.556,312.334 232.782 C 312.247 233.008,311.887 233.193,311.533 233.193 C 310.748 233.193,310.549 233.660,310.549 235.505 C 310.549 236.486,310.408 237.031,310.098 237.258 C 309.458 237.726,309.480 260.998,310.121 261.483 C 310.373 261.674,310.550 262.447,310.604 263.593 L 310.689 265.401 312.055 265.488 C 313.337 265.569,313.413 265.617,313.289 266.266 L 313.157 266.956 321.206 266.882 L 329.255 266.807 329.344 266.174 C 329.402 265.768,329.628 265.541,329.977 265.541 C 330.495 265.541,330.520 265.288,330.520 260.083 L 330.520 254.624 329.088 254.427 C 327.505 254.209,324.405 254.460,323.760 254.858 C 323.453 255.047,323.323 255.836,323.251 257.936 L 323.154 260.759 319.946 260.759 L 316.737 260.759 316.737 256.399 L 316.737 252.039 322.743 252.039 L 328.749 252.039 329.635 251.193 L 330.520 250.347 330.520 242.473 C 330.520 235.066,330.490 234.599,330.012 234.599 C 329.643 234.599,329.431 234.272,329.238 233.405 C 328.992 232.295,328.894 232.197,327.848 232.015 C 326.174 231.723,314.491 231.795,313.419 232.104 M329.677 233.353 C 329.677 233.442,329.866 233.704,330.098 233.936 C 330.474 234.311,330.520 234.293,330.520 233.775 C 330.520 233.445,330.338 233.193,330.098 233.193 C 329.866 233.193,329.677 233.265,329.677 233.353 M183.122 241.956 C 183.122 245.573,183.110 245.646,182.589 245.174 C 182.153 244.779,181.572 244.701,179.424 244.749 L 176.793 244.807 176.712 241.900 C 176.668 240.300,176.494 238.826,176.326 238.624 C 176.078 238.324,176.680 238.256,179.572 238.256 L 183.122 238.256 183.122 241.956 M273.136 248.945 L 273.136 259.634 272.044 259.634 C 271.188 259.634,270.920 259.756,270.805 260.197 C 270.590 261.019,268.073 261.037,268.073 260.216 C 268.073 259.917,267.820 259.592,267.511 259.494 C 266.962 259.320,266.948 259.068,266.948 249.348 L 266.948 239.381 268.073 239.381 C 268.692 239.381,269.198 239.276,269.198 239.147 C 269.198 239.018,269.868 238.968,270.686 239.036 C 271.819 239.130,272.263 239.052,272.549 238.708 C 272.755 238.459,272.972 238.256,273.030 238.256 C 273.089 238.256,273.136 243.066,273.136 248.945 M297.226 238.678 C 297.326 238.938,297.753 239.100,298.342 239.100 L 299.297 239.100 299.297 249.501 L 299.297 259.902 298.575 259.627 C 298.178 259.476,296.533 259.353,294.918 259.353 L 291.983 259.353 291.983 249.367 C 291.983 239.569,291.994 239.381,292.546 239.381 C 292.921 239.381,293.108 239.194,293.108 238.819 C 293.108 238.080,296.946 237.949,297.226 238.678 M323.262 241.561 L 323.176 244.866 320.565 244.770 C 318.462 244.693,317.866 244.762,317.506 245.122 C 316.770 245.858,316.737 245.718,316.737 241.913 L 316.737 238.256 320.042 238.255 L 323.347 238.255 323.262 241.561 M107.021 252.743 C 107.021 259.395,107.058 262.077,107.102 258.701 C 107.147 255.326,107.147 249.883,107.102 246.605 C 107.057 243.328,107.021 246.090,107.021 252.743 M286.920 277.356 C 286.920 277.668,286.732 277.918,286.498 277.918 C 286.266 277.918,286.076 277.865,286.076 277.801 C 286.076 277.736,285.999 277.483,285.905 277.238 C 285.783 276.919,285.902 276.793,286.327 276.793 C 286.732 276.793,286.920 276.971,286.920 277.356 " stroke="none" fill="#161515" fill-rule="evenodd"></path><path id="path2" d="M139.067 84.512 C 138.611 85.702,139.108 119.128,139.596 120.028 C 139.865 120.523,140.084 121.141,140.084 121.401 C 140.084 122.027,142.092 126.301,142.386 126.301 C 142.513 126.301,142.617 126.459,142.618 126.653 C 142.621 127.143,146.184 130.544,147.500 131.311 C 153.284 134.686,167.638 134.018,172.335 130.155 C 173.705 129.028,174.651 127.990,175.449 126.738 C 175.948 125.956,176.549 125.069,176.786 124.767 C 177.022 124.465,177.215 124.070,177.215 123.891 C 177.215 123.711,177.456 123.258,177.750 122.884 C 178.053 122.499,178.373 121.478,178.489 120.526 C 178.602 119.602,178.899 118.340,179.150 117.722 C 179.552 116.729,179.606 114.687,179.606 100.422 L 179.606 84.248 173.217 84.172 L 166.829 84.096 166.748 100.628 L 166.667 117.159 165.884 118.645 C 164.334 121.587,162.348 122.777,159.013 122.762 C 157.361 122.755,156.560 122.630,156.200 122.322 C 155.923 122.086,155.316 121.740,154.852 121.554 C 153.973 121.200,152.535 119.288,151.864 117.581 C 151.557 116.802,151.447 113.224,151.336 100.422 L 151.195 84.248 145.211 84.172 C 140.140 84.107,139.203 84.159,139.067 84.512 M182.780 84.261 C 182.558 84.484,183.065 86.566,183.518 87.290 C 183.730 87.628,183.988 88.388,184.092 88.980 C 184.196 89.571,184.526 90.457,184.826 90.949 C 185.125 91.440,185.371 92.191,185.372 92.617 C 185.372 93.043,185.626 93.864,185.935 94.441 C 186.245 95.019,186.498 95.723,186.498 96.006 C 186.498 96.289,186.736 97.113,187.027 97.838 C 187.665 99.426,189.321 104.664,189.315 105.074 C 189.313 105.235,189.564 105.863,189.873 106.470 C 190.183 107.077,190.436 107.898,190.436 108.295 C 190.436 108.692,190.625 109.286,190.855 109.615 C 191.086 109.944,191.416 110.890,191.590 111.717 C 191.764 112.544,192.065 113.411,192.259 113.643 C 192.453 113.875,192.695 114.612,192.796 115.280 C 192.898 115.948,193.155 116.771,193.368 117.108 C 193.582 117.446,193.838 118.165,193.938 118.706 C 194.038 119.248,194.352 120.260,194.637 120.956 C 194.921 121.653,195.561 123.551,196.059 125.176 C 196.557 126.800,197.205 128.722,197.498 129.447 C 197.791 130.172,198.031 131.093,198.031 131.494 C 198.031 132.628,198.898 132.771,205.789 132.771 L 212.104 132.771 212.633 131.900 C 212.924 131.422,213.312 130.441,213.496 129.720 C 213.679 129.000,214.009 128.075,214.228 127.664 C 214.448 127.253,214.627 126.616,214.627 126.247 C 214.627 125.878,214.879 125.082,215.187 124.478 C 215.495 123.873,215.826 122.929,215.922 122.379 C 216.018 121.828,216.335 120.960,216.627 120.448 C 216.920 119.936,217.159 119.200,217.159 118.812 C 217.159 118.425,217.395 117.514,217.683 116.789 C 218.267 115.320,219.850 110.307,220.142 109.001 C 220.246 108.537,220.430 108.029,220.552 107.872 C 220.674 107.716,220.930 106.956,221.120 106.185 C 221.310 105.413,221.636 104.532,221.844 104.227 C 222.052 103.922,222.222 103.316,222.222 102.880 C 222.222 102.444,222.465 101.612,222.761 101.031 C 223.058 100.449,223.393 99.473,223.507 98.862 C 223.621 98.250,223.870 97.496,224.061 97.187 C 224.253 96.878,224.563 95.960,224.750 95.147 C 224.938 94.334,225.195 93.606,225.320 93.528 C 225.446 93.450,225.639 92.855,225.748 92.206 C 225.858 91.557,226.166 90.513,226.433 89.887 C 226.700 89.261,227.079 88.052,227.275 87.201 C 227.470 86.350,227.801 85.381,228.010 85.047 C 228.571 84.150,228.275 84.107,221.501 84.107 L 215.482 84.107 215.328 84.880 C 215.243 85.306,215.037 86.034,214.870 86.498 C 214.703 86.962,214.398 88.165,214.194 89.171 C 213.989 90.177,213.624 91.380,213.383 91.843 C 213.141 92.307,212.942 92.999,212.941 93.382 C 212.940 93.764,212.697 94.903,212.401 95.913 C 211.445 99.175,210.646 102.210,210.289 103.938 C 210.097 104.867,209.784 105.918,209.593 106.274 C 209.403 106.631,209.121 107.702,208.967 108.655 C 208.814 109.609,208.564 110.538,208.412 110.722 C 208.260 110.905,208.007 111.859,207.849 112.841 C 207.692 113.823,207.405 114.880,207.211 115.190 C 207.018 115.499,206.705 116.285,206.516 116.936 C 205.704 119.736,204.241 117.338,203.219 111.533 C 203.110 110.914,202.925 110.281,202.808 110.127 C 202.690 109.972,202.442 109.086,202.256 108.158 C 202.070 107.229,201.754 106.153,201.553 105.767 C 201.352 105.380,201.100 104.403,200.991 103.597 C 200.883 102.791,200.552 101.656,200.256 101.076 C 199.961 100.496,199.719 99.619,199.719 99.127 C 199.719 98.635,199.468 97.681,199.162 97.007 C 198.856 96.332,198.603 95.496,198.600 95.149 C 198.596 94.801,198.356 93.789,198.067 92.898 C 197.777 92.008,197.197 89.951,196.779 88.326 C 195.551 83.562,196.526 84.107,189.223 84.107 C 185.765 84.107,182.865 84.176,182.780 84.261 M237.975 97.174 C 237.588 97.394,236.765 97.661,236.146 97.766 C 233.282 98.253,230.091 101.211,228.888 104.495 C 227.943 107.075,227.873 106.990,231.224 107.350 C 232.848 107.525,234.534 107.809,234.969 107.983 C 237.100 108.832,239.310 108.256,239.773 106.732 C 240.587 104.051,247.523 103.280,249.105 105.695 C 250.958 108.522,249.266 110.433,244.023 111.436 C 243.249 111.584,242.046 111.899,241.350 112.135 C 240.654 112.371,239.388 112.686,238.537 112.835 C 237.686 112.983,236.476 113.352,235.846 113.655 C 235.217 113.958,234.379 114.205,233.982 114.205 C 233.586 114.205,233.104 114.395,232.911 114.627 C 232.719 114.859,232.449 115.049,232.311 115.049 C 229.305 115.049,225.881 123.151,227.561 126.290 C 227.719 126.585,227.848 127.079,227.848 127.388 C 227.848 127.696,228.022 128.122,228.234 128.334 C 228.446 128.546,228.825 129.118,229.077 129.604 C 231.017 133.356,242.485 134.764,246.158 131.702 C 249.500 128.915,250.422 128.790,251.248 131.012 C 251.926 132.837,251.836 132.812,257.525 132.711 C 262.539 132.621,262.944 132.414,261.695 130.574 C 261.225 129.881,261.168 128.826,261.024 118.003 C 260.851 105.089,260.899 105.465,259.011 101.969 C 258.416 100.867,256.970 99.297,256.550 99.297 C 256.433 99.297,255.877 98.984,255.314 98.602 C 252.927 96.983,240.159 95.931,237.975 97.174 M249.788 116.595 C 250.262 117.166,249.905 121.007,249.238 122.504 C 247.510 126.383,242.263 127.886,239.571 125.272 C 236.689 122.473,239.831 118.170,245.518 117.128 C 246.088 117.024,246.804 116.767,247.109 116.556 C 247.847 116.049,249.352 116.070,249.788 116.595 M168.279 249.561 C 168.215 261.051,168.225 261.286,168.765 261.246 C 169.303 261.205,169.314 260.940,169.263 249.660 L 169.210 238.115 169.134 249.226 C 169.032 263.955,168.672 264.113,168.490 249.508 L 168.345 237.834 168.279 249.561 M85.868 265.978 C 85.676 266.186,85.613 266.412,85.727 266.482 C 85.842 266.551,86.092 266.438,86.284 266.230 C 86.476 266.022,86.539 265.796,86.425 265.727 C 86.310 265.657,86.060 265.770,85.868 265.978 M186.844 266.248 C 186.876 266.633,187.009 266.948,187.141 266.948 C 187.272 266.948,187.300 266.696,187.202 266.387 C 187.069 265.969,187.129 265.867,187.436 265.984 C 187.662 266.071,187.914 266.034,187.996 265.902 C 188.078 265.769,187.839 265.636,187.466 265.605 C 186.901 265.558,186.796 265.667,186.844 266.248 M245.570 266.245 C 245.570 266.831,245.703 266.948,246.374 266.948 C 247.081 266.948,247.163 266.862,247.045 266.245 C 246.946 265.729,246.732 265.541,246.240 265.541 C 245.712 265.541,245.570 265.691,245.570 266.245 M272.011 266.245 C 272.011 266.682,272.171 266.948,272.433 266.948 C 272.944 266.948,272.993 266.488,272.504 266.290 C 272.293 266.206,272.350 266.140,272.644 266.126 C 273.331 266.095,273.264 265.541,272.574 265.541 C 272.161 265.541,272.011 265.729,272.011 266.245 " stroke="none" fill="#faf7f8" fill-rule="evenodd"></path><path id="path3" d="M138.789 84.223 C 138.705 84.441,138.682 92.574,138.737 102.296 L 138.838 119.972 139.775 122.450 C 141.418 126.793,144.956 130.896,148.242 132.268 C 148.938 132.559,149.725 132.915,149.989 133.061 C 152.473 134.423,165.773 134.279,168.941 132.856 C 174.526 130.347,178.465 124.718,179.772 117.380 C 179.918 116.558,180.001 108.895,179.960 99.940 L 179.887 83.966 173.437 83.891 C 169.890 83.849,166.877 83.925,166.742 84.060 C 166.607 84.195,166.506 90.838,166.518 98.823 C 166.531 107.518,166.424 114.066,166.251 115.150 C 165.205 121.698,160.499 124.081,154.712 120.993 C 153.960 120.593,152.552 117.926,152.221 116.279 C 152.003 115.191,151.899 109.761,151.899 99.421 C 151.899 85.771,151.852 84.149,151.454 83.996 C 150.433 83.605,138.948 83.810,138.789 84.223 M182.352 84.055 C 181.969 84.299,182.087 84.791,183.297 87.980 C 183.665 88.950,183.966 89.966,183.966 90.238 C 183.966 90.510,184.140 90.982,184.352 91.288 C 184.565 91.593,184.832 92.286,184.947 92.827 C 185.063 93.368,185.320 94.318,185.519 94.937 C 185.718 95.556,186.353 97.581,186.929 99.437 C 188.520 104.564,189.344 107.003,189.588 107.314 C 189.709 107.468,189.901 108.038,190.013 108.579 C 190.126 109.121,190.457 110.095,190.749 110.744 C 191.041 111.393,191.280 112.153,191.281 112.432 C 191.282 112.711,191.515 113.322,191.800 113.789 C 192.085 114.256,192.408 115.142,192.518 115.758 C 192.627 116.374,192.892 117.384,193.106 118.003 C 193.320 118.622,193.954 120.647,194.515 122.504 C 195.077 124.360,195.701 126.259,195.902 126.724 C 196.103 127.189,196.363 128.012,196.479 128.552 C 196.595 129.093,196.856 129.852,197.060 130.239 C 197.264 130.626,197.497 131.259,197.578 131.646 C 197.963 133.485,197.886 133.466,205.273 133.558 C 211.408 133.635,212.053 133.598,212.615 133.136 C 213.177 132.675,215.190 126.965,215.190 125.833 C 215.190 125.615,215.366 125.157,215.580 124.814 C 215.795 124.472,216.057 123.699,216.163 123.098 C 216.268 122.497,216.599 121.550,216.898 120.993 C 217.196 120.436,217.440 119.752,217.440 119.473 C 217.440 119.193,217.676 118.495,217.965 117.921 C 218.253 117.347,218.581 116.371,218.693 115.752 C 218.805 115.134,219.017 114.483,219.163 114.306 C 219.309 114.129,219.683 113.116,219.995 112.055 C 220.307 110.995,220.887 109.051,221.284 107.736 C 221.681 106.421,222.236 104.473,222.518 103.407 C 222.800 102.342,223.165 101.336,223.330 101.171 C 223.494 101.007,223.629 100.584,223.629 100.233 C 223.629 99.882,223.945 98.879,224.332 98.004 C 224.719 97.129,225.035 96.176,225.035 95.885 C 225.035 95.594,225.288 94.884,225.598 94.307 C 225.907 93.730,226.165 93.002,226.170 92.691 C 226.175 92.379,226.424 91.617,226.723 90.999 C 227.022 90.380,227.271 89.699,227.276 89.486 C 227.281 89.272,227.619 88.112,228.028 86.906 C 228.436 85.701,228.693 84.515,228.599 84.270 C 228.372 83.679,215.711 83.591,215.285 84.177 C 215.029 84.529,214.225 87.020,213.175 90.717 C 212.868 91.800,212.372 93.446,212.074 94.374 C 211.777 95.302,211.535 96.252,211.537 96.484 C 211.539 96.716,211.288 97.729,210.979 98.734 C 210.325 100.863,209.038 105.906,208.682 107.736 C 208.547 108.432,208.247 109.479,208.016 110.062 C 207.784 110.645,207.597 111.468,207.598 111.890 C 207.602 112.717,205.926 117.300,205.620 117.300 C 205.326 117.300,204.782 115.932,204.782 115.195 C 204.782 114.826,204.639 114.167,204.464 113.731 C 204.289 113.296,203.922 112.053,203.648 110.970 C 203.375 109.887,203.022 108.622,202.865 108.158 C 202.043 105.729,201.116 102.471,201.120 102.025 C 201.123 101.747,200.915 101.114,200.658 100.619 C 200.401 100.124,200.034 98.896,199.842 97.890 C 199.650 96.885,199.094 94.543,198.607 92.686 C 198.119 90.830,197.462 88.264,197.147 86.985 C 196.831 85.705,196.386 84.471,196.157 84.242 C 195.697 83.783,183.051 83.611,182.352 84.055 M151.336 100.422 C 151.447 113.224,151.557 116.802,151.864 117.581 C 152.535 119.288,153.973 121.200,154.852 121.554 C 155.316 121.740,155.923 122.086,156.200 122.322 C 156.560 122.630,157.361 122.755,159.013 122.762 C 162.348 122.777,164.334 121.587,165.884 118.645 L 166.667 117.159 166.748 100.628 L 166.829 84.096 173.217 84.172 L 179.606 84.248 179.606 100.422 C 179.606 114.687,179.552 116.729,179.150 117.722 C 178.899 118.340,178.602 119.602,178.489 120.526 C 178.373 121.478,178.053 122.499,177.750 122.884 C 177.456 123.258,177.215 123.711,177.215 123.891 C 177.215 124.070,177.022 124.465,176.786 124.767 C 176.549 125.069,175.948 125.956,175.449 126.738 C 173.425 129.913,170.381 131.969,166.461 132.809 C 160.521 134.081,150.953 133.326,147.500 131.311 C 146.184 130.544,142.621 127.143,142.618 126.653 C 142.617 126.459,142.513 126.301,142.386 126.301 C 142.092 126.301,140.084 122.027,140.084 121.401 C 140.084 121.141,139.865 120.523,139.596 120.028 C 139.108 119.128,138.611 85.702,139.067 84.512 C 139.203 84.159,140.140 84.107,145.211 84.172 L 151.195 84.248 151.336 100.422 M195.764 84.740 C 195.903 85.088,196.360 86.702,196.779 88.326 C 197.197 89.951,197.777 92.008,198.067 92.898 C 198.356 93.789,198.596 94.801,198.600 95.149 C 198.603 95.496,198.856 96.332,199.162 97.007 C 199.468 97.681,199.719 98.635,199.719 99.127 C 199.719 99.619,199.961 100.496,200.256 101.076 C 200.552 101.656,200.883 102.791,200.991 103.597 C 201.100 104.403,201.352 105.380,201.553 105.767 C 201.754 106.153,202.070 107.229,202.256 108.158 C 202.442 109.086,202.690 109.972,202.808 110.127 C 202.925 110.281,203.110 110.914,203.219 111.533 C 204.241 117.338,205.704 119.736,206.516 116.936 C 206.705 116.285,207.018 115.499,207.211 115.190 C 207.405 114.880,207.692 113.823,207.849 112.841 C 208.007 111.859,208.260 110.905,208.412 110.722 C 208.564 110.538,208.814 109.609,208.967 108.655 C 209.121 107.702,209.403 106.631,209.593 106.274 C 209.784 105.918,210.097 104.867,210.289 103.938 C 210.646 102.210,211.445 99.175,212.401 95.913 C 212.697 94.903,212.940 93.764,212.941 93.382 C 212.942 92.999,213.141 92.307,213.383 91.843 C 213.624 91.380,213.989 90.177,214.194 89.171 C 214.398 88.165,214.703 86.962,214.870 86.498 C 215.037 86.034,215.243 85.306,215.328 84.880 L 215.482 84.107 221.501 84.107 C 228.275 84.107,228.571 84.150,228.010 85.047 C 227.801 85.381,227.470 86.350,227.275 87.201 C 227.079 88.052,226.700 89.261,226.433 89.887 C 226.166 90.513,225.858 91.557,225.748 92.206 C 225.639 92.855,225.446 93.450,225.320 93.528 C 225.195 93.606,224.938 94.334,224.750 95.147 C 224.563 95.960,224.253 96.878,224.061 97.187 C 223.870 97.496,223.621 98.250,223.507 98.862 C 223.393 99.473,223.058 100.449,222.761 101.031 C 222.465 101.612,222.222 102.444,222.222 102.880 C 222.222 103.316,222.052 103.922,221.844 104.227 C 221.636 104.532,221.310 105.413,221.120 106.185 C 220.930 106.956,220.674 107.716,220.552 107.872 C 220.430 108.029,220.246 108.537,220.142 109.001 C 219.850 110.307,218.267 115.320,217.683 116.789 C 217.395 117.514,217.159 118.425,217.159 118.812 C 217.159 119.200,216.920 119.936,216.627 120.448 C 216.335 120.960,216.018 121.828,215.922 122.379 C 215.826 122.929,215.495 123.873,215.187 124.478 C 214.879 125.082,214.627 125.878,214.627 126.247 C 214.627 126.616,214.448 127.253,214.228 127.664 C 214.009 128.075,213.679 129.000,213.496 129.720 C 213.312 130.441,212.924 131.422,212.633 131.900 L 212.104 132.771 205.789 132.771 C 198.898 132.771,198.031 132.628,198.031 131.494 C 198.031 131.093,197.791 130.172,197.498 129.447 C 197.205 128.722,196.557 126.800,196.059 125.176 C 195.561 123.551,194.921 121.653,194.637 120.956 C 194.352 120.260,194.038 119.248,193.938 118.706 C 193.838 118.165,193.582 117.446,193.368 117.108 C 193.155 116.771,192.898 115.948,192.796 115.280 C 192.695 114.612,192.453 113.875,192.259 113.643 C 192.065 113.411,191.764 112.544,191.590 111.717 C 191.416 110.890,191.086 109.944,190.855 109.615 C 190.625 109.286,190.436 108.692,190.436 108.295 C 190.436 107.898,190.183 107.077,189.873 106.470 C 189.564 105.863,189.313 105.235,189.315 105.074 C 189.321 104.664,187.665 99.426,187.027 97.838 C 186.736 97.113,186.498 96.289,186.498 96.006 C 186.498 95.723,186.245 95.019,185.935 94.441 C 185.626 93.864,185.372 93.043,185.372 92.617 C 185.371 92.191,185.125 91.440,184.826 90.949 C 184.526 90.457,184.196 89.571,184.092 88.980 C 183.988 88.388,183.730 87.628,183.518 87.290 C 183.065 86.566,182.558 84.484,182.780 84.261 C 183.360 83.682,195.521 84.130,195.764 84.740 M239.194 96.471 C 238.085 96.573,237.009 96.797,236.803 96.967 C 236.596 97.138,235.925 97.371,235.311 97.486 C 232.807 97.954,229.720 100.940,228.496 104.079 C 227.257 107.255,227.158 107.084,230.661 107.802 C 235.431 108.781,239.662 108.984,239.662 108.235 C 239.662 107.703,240.574 106.048,240.868 106.048 C 241.031 106.048,241.365 105.879,241.609 105.672 C 244.133 103.538,249.226 105.074,249.226 107.969 C 249.226 109.080,245.837 110.623,241.210 111.617 C 238.748 112.146,235.712 113.022,235.361 113.305 C 235.174 113.455,234.578 113.672,234.037 113.787 C 225.045 115.698,223.806 128.626,232.208 132.872 C 235.011 134.288,242.900 134.294,245.204 132.882 C 247.281 131.609,248.273 130.901,248.609 130.450 C 249.310 129.512,250.007 129.856,250.765 131.512 C 251.243 132.558,251.711 133.155,252.198 133.340 C 253.275 133.750,261.691 133.696,262.110 133.277 C 262.599 132.788,262.521 130.799,261.974 129.817 C 261.564 129.081,261.482 127.466,261.334 117.159 L 261.165 105.345 260.238 103.178 C 259.258 100.885,258.086 99.471,256.658 98.858 C 256.182 98.653,255.628 98.288,255.428 98.047 C 255.228 97.806,254.855 97.609,254.599 97.609 C 254.343 97.609,253.848 97.409,253.499 97.164 C 252.333 96.347,244.595 95.973,239.194 96.471 M252.673 97.420 C 253.563 97.688,254.752 98.221,255.314 98.602 C 255.877 98.984,256.433 99.297,256.550 99.297 C 256.970 99.297,258.416 100.867,259.011 101.969 C 260.899 105.465,260.851 105.089,261.024 118.003 C 261.168 128.826,261.225 129.881,261.695 130.574 C 262.944 132.414,262.539 132.621,257.525 132.711 C 251.836 132.812,251.926 132.837,251.248 131.012 C 250.422 128.790,249.500 128.915,246.158 131.702 C 242.485 134.764,231.017 133.356,229.077 129.604 C 228.825 129.118,228.446 128.546,228.234 128.334 C 228.022 128.122,227.848 127.696,227.848 127.388 C 227.848 127.079,227.719 126.585,227.561 126.290 C 225.881 123.151,229.305 115.049,232.311 115.049 C 232.449 115.049,232.719 114.859,232.911 114.627 C 233.104 114.395,233.586 114.205,233.982 114.205 C 234.379 114.205,235.217 113.958,235.846 113.655 C 236.476 113.352,237.686 112.983,238.537 112.835 C 239.388 112.686,240.654 112.371,241.350 112.135 C 242.046 111.899,243.249 111.584,244.023 111.436 C 249.266 110.433,250.958 108.522,249.105 105.695 C 247.523 103.280,240.587 104.051,239.773 106.732 C 239.310 108.256,237.100 108.832,234.969 107.983 C 234.534 107.809,232.848 107.525,231.224 107.350 C 227.873 106.990,227.943 107.075,228.888 104.495 C 230.091 101.211,233.282 98.253,236.146 97.766 C 236.765 97.661,237.588 97.394,237.975 97.174 C 239.058 96.557,250.447 96.748,252.673 97.420 M247.109 116.556 C 246.804 116.767,246.088 117.024,245.518 117.128 C 239.831 118.170,236.689 122.473,239.571 125.272 C 243.335 128.927,249.374 125.388,249.938 119.197 C 250.200 116.317,249.036 115.230,247.109 116.556 M248.917 116.995 C 249.525 117.380,249.172 121.508,248.427 122.713 C 246.180 126.349,241.075 127.128,239.311 124.104 C 237.930 121.737,239.408 120.022,244.444 118.151 C 245.759 117.662,247.089 117.153,247.398 117.019 C 248.137 116.699,248.442 116.694,248.917 116.995 M168.654 260.109 C 168.549 260.384,168.597 260.653,168.762 260.708 C 168.927 260.763,169.005 260.898,168.937 261.008 C 168.869 261.118,168.932 261.392,169.077 261.617 C 169.253 261.889,169.285 261.649,169.173 260.900 C 168.971 259.556,168.905 259.455,168.654 260.109 M107.206 263.924 C 107.184 264.439,107.314 264.698,107.595 264.698 C 107.827 264.698,108.017 264.571,108.017 264.416 C 108.017 264.262,107.900 264.135,107.756 264.135 C 107.613 264.135,107.438 263.914,107.367 263.643 C 107.288 263.340,107.226 263.448,107.206 263.924 M245.007 265.947 C 245.007 266.170,245.134 266.430,245.288 266.526 C 245.443 266.622,245.570 266.439,245.570 266.121 C 245.570 265.802,245.443 265.541,245.288 265.541 C 245.134 265.541,245.007 265.724,245.007 265.947 M246.976 266.104 C 246.976 266.629,247.051 266.704,247.314 266.442 C 247.576 266.179,247.576 266.029,247.314 265.767 C 247.051 265.504,246.976 265.579,246.976 266.104 M290.091 266.104 C 290.068 266.414,290.154 266.667,290.283 266.667 C 290.586 266.667,290.870 265.928,290.651 265.710 C 290.337 265.396,290.134 265.540,290.091 266.104 " stroke="none" fill="#dc9cac" fill-rule="evenodd"></path><path id="path4" d="M298.172 107.041 C 298.172 193.984,298.219 205.063,298.594 205.063 C 298.968 205.063,299.015 194.002,299.015 107.203 C 299.015 20.476,298.967 9.324,298.594 9.181 C 298.219 9.037,298.172 20.026,298.172 107.041 M221.268 83.536 C 216.173 83.659,215.075 83.758,214.908 84.107 C 214.798 84.339,214.511 84.909,214.272 85.373 C 214.032 85.837,213.698 86.966,213.529 87.883 C 213.360 88.799,213.032 89.839,212.799 90.193 C 212.567 90.548,212.377 91.229,212.377 91.707 C 212.377 92.185,212.128 93.123,211.823 93.792 C 211.519 94.460,211.185 95.561,211.081 96.238 C 210.977 96.915,210.737 97.785,210.547 98.172 C 210.358 98.558,210.044 99.731,209.851 100.777 C 209.657 101.823,209.398 102.742,209.275 102.818 C 209.151 102.894,208.969 103.494,208.869 104.151 C 208.520 106.446,208.063 108.442,207.809 108.775 C 207.668 108.959,207.462 110.059,207.351 111.219 C 207.230 112.487,206.972 113.531,206.705 113.837 C 206.460 114.117,206.175 114.821,206.071 115.401 C 205.796 116.932,205.415 116.695,205.185 114.851 C 205.074 113.968,204.751 112.734,204.467 112.108 C 204.183 111.482,203.948 110.615,203.944 110.181 C 203.941 109.748,203.699 108.861,203.407 108.212 C 203.115 107.563,202.784 106.463,202.673 105.767 C 202.562 105.070,202.310 104.311,202.113 104.079 C 201.917 103.847,201.667 103.024,201.557 102.250 C 201.447 101.477,201.115 100.449,200.819 99.967 C 200.523 99.484,200.281 98.615,200.281 98.036 C 200.281 97.110,199.943 95.592,198.621 90.577 C 198.438 89.880,198.063 88.343,197.789 87.160 C 197.515 85.977,197.074 84.680,196.810 84.277 L 196.330 83.544 189.079 83.544 C 181.749 83.544,181.153 83.623,181.153 84.585 C 181.153 84.786,181.335 84.951,181.556 84.951 C 181.991 84.951,182.143 85.314,182.440 87.060 C 182.545 87.679,182.789 88.376,182.982 88.608 C 183.175 88.840,183.422 89.536,183.532 90.155 C 183.643 90.774,183.921 91.490,184.152 91.747 C 184.382 92.004,184.670 92.890,184.793 93.716 C 185.029 95.314,186.180 99.349,186.866 100.985 C 187.093 101.526,187.366 102.500,187.473 103.148 C 187.580 103.797,187.847 104.477,188.067 104.660 C 188.287 104.842,188.467 105.266,188.467 105.601 C 188.467 105.936,188.723 106.712,189.036 107.324 C 189.350 107.937,189.682 108.945,189.776 109.564 C 189.870 110.183,190.167 110.942,190.436 111.252 C 190.706 111.561,190.995 112.362,191.079 113.032 C 191.163 113.701,191.444 114.483,191.702 114.768 C 191.960 115.053,192.237 115.835,192.317 116.504 C 192.448 117.595,193.330 120.793,194.127 123.066 C 194.290 123.530,194.613 124.606,194.846 125.457 C 195.079 126.308,195.402 127.165,195.564 127.361 C 195.726 127.557,195.954 128.190,196.071 128.767 C 196.258 129.688,197.142 132.101,197.745 133.333 C 198.087 134.033,212.672 134.103,213.277 133.408 C 213.728 132.890,215.037 128.858,215.315 127.129 C 215.404 126.579,215.728 125.634,216.036 125.030 C 216.344 124.426,216.596 123.557,216.596 123.099 C 216.596 122.641,216.802 122.040,217.053 121.762 C 217.304 121.485,217.620 120.662,217.757 119.933 C 217.893 119.204,218.178 118.409,218.391 118.165 C 218.604 117.921,218.863 117.131,218.967 116.408 C 219.071 115.686,219.336 114.946,219.556 114.763 C 219.777 114.580,220.031 113.968,220.121 113.404 C 220.211 112.839,220.485 111.934,220.731 111.392 C 220.976 110.851,221.339 109.712,221.538 108.861 C 221.736 108.010,222.092 106.807,222.329 106.188 C 222.566 105.570,222.766 104.682,222.772 104.215 C 222.779 103.749,223.022 102.925,223.311 102.385 C 223.600 101.845,223.931 100.835,224.045 100.139 C 224.159 99.444,224.428 98.675,224.643 98.431 C 224.858 98.188,225.141 97.414,225.272 96.713 C 225.403 96.012,225.720 95.139,225.976 94.773 C 226.232 94.407,226.442 93.802,226.442 93.428 C 226.442 93.054,226.684 92.228,226.981 91.592 C 229.294 86.637,229.675 83.069,227.865 83.325 C 227.623 83.359,224.655 83.454,221.268 83.536 M138.515 83.923 C 137.980 85.318,138.559 121.143,139.137 122.363 C 139.466 123.059,139.831 123.945,139.946 124.332 C 140.389 125.815,141.578 127.421,143.715 129.425 C 146.705 132.229,146.987 132.448,147.886 132.660 C 148.314 132.761,149.044 133.066,149.508 133.338 C 149.997 133.625,151.533 133.971,153.165 134.161 C 154.712 134.342,156.941 134.602,158.119 134.739 C 159.670 134.919,160.757 134.884,162.057 134.612 C 163.045 134.406,164.841 134.145,166.047 134.032 C 168.237 133.828,170.737 132.813,171.593 131.782 C 171.784 131.552,172.051 131.364,172.186 131.364 C 172.697 131.364,176.371 127.840,176.371 127.350 C 176.371 127.189,176.688 126.642,177.075 126.135 C 177.461 125.628,177.778 125.034,177.778 124.816 C 177.778 124.597,178.018 124.141,178.311 123.804 C 178.604 123.466,178.931 122.723,179.038 122.153 C 179.145 121.583,179.402 120.789,179.609 120.388 C 180.557 118.556,181.153 84.781,180.253 83.882 C 179.680 83.309,166.356 83.410,166.134 83.989 C 166.040 84.234,165.963 91.418,165.962 99.953 C 165.960 112.703,165.890 115.606,165.566 116.226 C 165.350 116.641,165.089 117.362,164.986 117.829 C 164.375 120.613,159.993 122.895,157.627 121.661 C 157.184 121.430,156.552 121.240,156.222 121.239 C 155.624 121.238,153.868 119.691,153.868 119.167 C 153.868 119.015,153.693 118.691,153.479 118.447 C 152.626 117.472,152.461 114.364,152.461 99.260 C 152.461 87.937,152.378 84.136,152.124 83.882 C 151.607 83.365,138.714 83.404,138.515 83.923 M151.454 83.996 C 151.852 84.149,151.899 85.771,151.899 99.421 C 151.899 109.761,152.003 115.191,152.221 116.279 C 152.552 117.926,153.960 120.593,154.712 120.993 C 160.499 124.081,165.205 121.698,166.251 115.150 C 166.424 114.066,166.531 107.518,166.518 98.823 C 166.506 90.838,166.607 84.195,166.742 84.060 C 166.877 83.925,169.890 83.849,173.437 83.891 L 179.887 83.966 179.960 99.940 C 180.001 108.895,179.918 116.558,179.772 117.380 C 178.465 124.718,174.526 130.347,168.941 132.856 C 165.773 134.279,152.473 134.423,149.989 133.061 C 149.725 132.915,148.938 132.559,148.242 132.268 C 144.956 130.896,141.418 126.793,139.775 122.450 L 138.838 119.972 138.737 102.296 C 138.682 92.574,138.705 84.441,138.789 84.223 C 138.948 83.810,150.433 83.605,151.454 83.996 M196.157 84.242 C 196.386 84.471,196.831 85.705,197.147 86.985 C 197.462 88.264,198.119 90.830,198.607 92.686 C 199.094 94.543,199.650 96.885,199.842 97.890 C 200.034 98.896,200.401 100.124,200.658 100.619 C 200.915 101.114,201.123 101.747,201.120 102.025 C 201.116 102.471,202.043 105.729,202.865 108.158 C 203.022 108.622,203.375 109.887,203.648 110.970 C 203.922 112.053,204.289 113.296,204.464 113.731 C 204.639 114.167,204.782 114.826,204.782 115.195 C 204.782 115.932,205.326 117.300,205.620 117.300 C 205.926 117.300,207.602 112.717,207.598 111.890 C 207.597 111.468,207.784 110.645,208.016 110.062 C 208.247 109.479,208.547 108.432,208.682 107.736 C 209.038 105.906,210.325 100.863,210.979 98.734 C 211.288 97.729,211.539 96.716,211.537 96.484 C 211.535 96.252,211.777 95.302,212.074 94.374 C 212.372 93.446,212.868 91.800,213.175 90.717 C 214.225 87.020,215.029 84.529,215.285 84.177 C 215.711 83.591,228.372 83.679,228.599 84.270 C 228.693 84.515,228.436 85.701,228.028 86.906 C 227.619 88.112,227.281 89.272,227.276 89.486 C 227.271 89.699,227.022 90.380,226.723 90.999 C 226.424 91.617,226.175 92.379,226.170 92.691 C 226.165 93.002,225.907 93.730,225.598 94.307 C 225.288 94.884,225.035 95.594,225.035 95.885 C 225.035 96.176,224.719 97.129,224.332 98.004 C 223.945 98.879,223.629 99.882,223.629 100.233 C 223.629 100.584,223.494 101.007,223.330 101.171 C 223.165 101.336,222.800 102.342,222.518 103.407 C 222.236 104.473,221.681 106.421,221.284 107.736 C 220.887 109.051,220.307 110.995,219.995 112.055 C 219.683 113.116,219.309 114.129,219.163 114.306 C 219.017 114.483,218.805 115.134,218.693 115.752 C 218.581 116.371,218.253 117.347,217.965 117.921 C 217.676 118.495,217.440 119.193,217.440 119.473 C 217.440 119.752,217.196 120.436,216.898 120.993 C 216.599 121.550,216.268 122.497,216.163 123.098 C 216.057 123.699,215.795 124.472,215.580 124.814 C 215.366 125.157,215.190 125.615,215.190 125.833 C 215.190 126.965,213.177 132.675,212.615 133.136 C 212.053 133.598,211.408 133.635,205.273 133.558 C 197.886 133.466,197.963 133.485,197.578 131.646 C 197.497 131.259,197.264 130.626,197.060 130.239 C 196.856 129.852,196.595 129.093,196.479 128.552 C 196.363 128.012,196.103 127.189,195.902 126.724 C 195.701 126.259,195.077 124.360,194.515 122.504 C 193.954 120.647,193.320 118.622,193.106 118.003 C 192.892 117.384,192.627 116.374,192.518 115.758 C 192.408 115.142,192.085 114.256,191.800 113.789 C 191.515 113.322,191.282 112.711,191.281 112.432 C 191.280 112.153,191.041 111.393,190.749 110.744 C 190.457 110.095,190.126 109.121,190.013 108.579 C 189.901 108.038,189.709 107.468,189.588 107.314 C 189.344 107.003,188.520 104.564,186.929 99.437 C 186.353 97.581,185.718 95.556,185.519 94.937 C 185.320 94.318,185.063 93.368,184.947 92.827 C 184.832 92.286,184.565 91.593,184.352 91.288 C 184.140 90.982,183.966 90.510,183.966 90.238 C 183.966 89.966,183.665 88.950,183.297 87.980 C 182.087 84.791,181.969 84.299,182.352 84.055 C 183.051 83.611,195.697 83.783,196.157 84.242 M240.366 95.977 C 238.016 96.151,236.556 96.385,236.283 96.631 C 236.048 96.841,235.352 97.128,234.736 97.268 C 232.603 97.753,228.922 101.031,228.578 102.752 C 228.482 103.230,228.197 103.848,227.944 104.128 C 226.372 105.865,227.401 108.017,229.803 108.017 C 230.213 108.017,230.688 108.157,230.860 108.328 C 231.231 108.700,237.730 109.237,239.022 109.003 C 239.790 108.863,239.974 108.669,240.228 107.724 C 240.393 107.112,240.698 106.610,240.905 106.610 C 241.112 106.610,241.422 106.441,241.594 106.234 C 242.566 105.063,246.693 105.039,247.943 106.197 C 249.526 107.664,247.689 109.986,244.946 109.986 C 244.584 109.986,244.025 110.171,243.703 110.396 C 243.381 110.622,242.247 110.945,241.183 111.115 C 240.120 111.285,239.058 111.591,238.823 111.794 C 238.589 111.998,237.790 112.229,237.049 112.308 C 236.308 112.387,235.482 112.650,235.213 112.893 C 234.945 113.136,234.159 113.423,233.467 113.531 C 232.774 113.639,231.906 113.962,231.537 114.248 C 231.168 114.534,230.719 114.768,230.539 114.768 C 227.648 114.768,224.743 124.296,226.723 127.286 C 227.030 127.750,227.283 128.340,227.284 128.598 C 227.287 129.455,229.777 132.090,231.533 133.096 C 233.021 133.948,237.232 134.861,238.728 134.655 C 245.118 133.777,245.074 133.791,247.677 131.801 C 248.294 131.329,248.950 130.752,249.134 130.520 C 249.420 130.161,249.526 130.223,249.851 130.942 C 250.061 131.406,250.527 132.264,250.886 132.847 L 251.539 133.908 257.064 133.831 L 262.588 133.755 262.672 132.130 C 262.722 131.174,262.553 129.784,262.262 128.755 C 261.840 127.263,261.745 125.318,261.615 115.612 C 261.466 104.458,261.449 104.196,260.830 103.098 C 260.482 102.482,260.197 101.828,260.197 101.645 C 260.197 101.149,257.859 98.734,257.379 98.734 C 257.149 98.734,256.594 98.417,256.145 98.031 C 255.695 97.644,255.113 97.328,254.852 97.328 C 254.590 97.328,254.101 97.090,253.766 96.799 C 253.276 96.373,252.507 96.234,249.855 96.087 C 248.039 95.987,245.985 95.861,245.288 95.806 C 244.592 95.751,242.377 95.828,240.366 95.977 M250.271 96.469 C 251.809 96.617,253.122 96.900,253.499 97.164 C 253.848 97.409,254.343 97.609,254.599 97.609 C 254.855 97.609,255.228 97.806,255.428 98.047 C 255.628 98.288,256.182 98.653,256.658 98.858 C 258.086 99.471,259.258 100.885,260.238 103.178 L 261.165 105.345 261.334 117.159 C 261.482 127.466,261.564 129.081,261.974 129.817 C 262.521 130.799,262.599 132.788,262.110 133.277 C 261.691 133.696,253.275 133.750,252.198 133.340 C 251.711 133.155,251.243 132.558,250.765 131.512 C 250.007 129.856,249.310 129.512,248.609 130.450 C 248.273 130.901,247.281 131.609,245.204 132.882 C 242.900 134.294,235.011 134.288,232.208 132.872 C 223.806 128.626,225.045 115.698,234.037 113.787 C 234.578 113.672,235.174 113.455,235.361 113.305 C 235.712 113.022,238.748 112.146,241.210 111.617 C 245.837 110.623,249.226 109.080,249.226 107.969 C 249.226 105.074,244.133 103.538,241.609 105.672 C 241.365 105.879,241.031 106.048,240.868 106.048 C 240.574 106.048,239.662 107.703,239.662 108.235 C 239.662 108.984,235.431 108.781,230.661 107.802 C 227.158 107.084,227.257 107.255,228.496 104.079 C 229.720 100.940,232.807 97.954,235.311 97.486 C 235.925 97.371,236.596 97.138,236.803 96.967 C 237.591 96.316,245.620 96.018,250.271 96.469 M247.398 117.019 C 247.089 117.153,245.759 117.662,244.444 118.151 C 239.408 120.022,237.930 121.737,239.311 124.104 C 241.871 128.493,248.760 125.282,249.155 119.516 C 249.340 116.819,248.994 116.328,247.398 117.019 M248.493 117.745 C 250.403 122.722,243.665 127.756,239.909 124.158 C 238.693 122.993,239.517 120.118,241.069 120.111 C 241.301 120.110,241.871 119.857,242.335 119.550 C 242.799 119.243,243.341 118.990,243.539 118.989 C 243.738 118.988,244.371 118.774,244.946 118.514 C 245.939 118.065,247.752 117.393,248.141 117.329 C 248.241 117.313,248.399 117.500,248.493 117.745 M168.685 237.329 C 168.369 237.411,168.234 237.622,168.334 237.882 C 168.422 238.113,168.497 243.260,168.499 249.320 C 168.502 256.537,168.598 260.192,168.776 259.916 C 169.201 259.259,169.148 237.975,168.723 237.975 C 168.538 237.975,168.633 237.789,168.934 237.562 C 169.509 237.127,169.500 237.118,168.685 237.329 M285.034 238.308 C 285.126 238.569,285.072 238.825,284.915 238.877 C 284.412 239.045,284.571 259.093,285.079 259.602 C 285.443 259.966,285.512 259.965,285.654 259.596 C 286.033 258.608,285.665 238.575,285.261 238.199 C 284.934 237.895,284.896 237.914,285.034 238.308 M106.896 240.215 C 106.899 240.779,106.957 240.840,107.173 240.506 C 107.351 240.230,107.447 244.242,107.450 252.110 C 107.453 259.936,107.553 264.135,107.736 264.135 C 107.890 264.135,108.017 264.262,108.017 264.416 C 108.017 264.571,107.732 264.700,107.384 264.702 C 106.904 264.705,106.847 264.767,107.147 264.957 C 107.899 265.433,108.344 264.976,108.189 263.887 C 108.109 263.327,108.032 257.593,108.019 251.144 C 107.994 239.681,107.981 239.419,107.443 239.459 C 107.050 239.489,106.893 239.706,106.896 240.215 M66.315 265.735 C 65.672 265.903,65.689 266.294,66.355 266.651 C 66.814 266.896,66.882 266.839,66.847 266.239 C 66.825 265.855,66.807 265.556,66.807 265.574 C 66.807 265.592,66.586 265.665,66.315 265.735 M244.444 266.071 C 244.444 266.363,244.678 266.662,244.963 266.737 C 245.416 266.855,245.442 266.789,245.174 266.209 C 244.804 265.411,244.444 265.343,244.444 266.071 M312.076 266.111 C 312.076 266.444,312.218 266.626,312.419 266.549 C 312.608 266.476,312.824 266.568,312.899 266.753 C 312.974 266.937,313.046 266.741,313.058 266.315 C 313.074 265.752,312.944 265.541,312.578 265.541 C 312.261 265.541,312.076 265.752,312.076 266.111 " stroke="none" fill="#d5728f" fill-rule="evenodd"></path></g></svg>